%TF.GenerationSoftware,KiCad,Pcbnew,5.1.6-c6e7f7d~86~ubuntu16.04.1*%
%TF.CreationDate,2020-06-21T16:49:51-03:00*%
%TF.ProjectId,coolercontroller,636f6f6c-6572-4636-9f6e-74726f6c6c65,rev?*%
%TF.SameCoordinates,Original*%
%TF.FileFunction,Legend,Top*%
%TF.FilePolarity,Positive*%
%FSLAX46Y46*%
G04 Gerber Fmt 4.6, Leading zero omitted, Abs format (unit mm)*
G04 Created by KiCad (PCBNEW 5.1.6-c6e7f7d~86~ubuntu16.04.1) date 2020-06-21 16:49:51*
%MOMM*%
%LPD*%
G01*
G04 APERTURE LIST*
%ADD10C,0.120000*%
%ADD11C,0.150000*%
G04 APERTURE END LIST*
D10*
%TO.C,P6*%
X150894000Y-146160000D02*
X156914000Y-146160000D01*
X156914000Y-146160000D02*
X156914000Y-140860000D01*
X156914000Y-140860000D02*
X150894000Y-140860000D01*
X150894000Y-140860000D02*
X150894000Y-146160000D01*
X151924000Y-146450000D02*
X155924000Y-146450000D01*
X156914000Y-144780000D02*
X155914000Y-144780000D01*
X155914000Y-144780000D02*
X155914000Y-142240000D01*
X155914000Y-142240000D02*
X156914000Y-142240000D01*
X155914000Y-144780000D02*
X155384000Y-144530000D01*
X155384000Y-144530000D02*
X155384000Y-142490000D01*
X155384000Y-142490000D02*
X155914000Y-142240000D01*
X156914000Y-144530000D02*
X155914000Y-144530000D01*
X156914000Y-142490000D02*
X155914000Y-142490000D01*
X150894000Y-145580000D02*
X151494000Y-145580000D01*
X151494000Y-145580000D02*
X151494000Y-143980000D01*
X151494000Y-143980000D02*
X150894000Y-143980000D01*
X150894000Y-143040000D02*
X151494000Y-143040000D01*
X151494000Y-143040000D02*
X151494000Y-141440000D01*
X151494000Y-141440000D02*
X150894000Y-141440000D01*
%TO.C,P5*%
X150894000Y-153272000D02*
X156914000Y-153272000D01*
X156914000Y-153272000D02*
X156914000Y-147972000D01*
X156914000Y-147972000D02*
X150894000Y-147972000D01*
X150894000Y-147972000D02*
X150894000Y-153272000D01*
X151924000Y-153562000D02*
X155924000Y-153562000D01*
X156914000Y-151892000D02*
X155914000Y-151892000D01*
X155914000Y-151892000D02*
X155914000Y-149352000D01*
X155914000Y-149352000D02*
X156914000Y-149352000D01*
X155914000Y-151892000D02*
X155384000Y-151642000D01*
X155384000Y-151642000D02*
X155384000Y-149602000D01*
X155384000Y-149602000D02*
X155914000Y-149352000D01*
X156914000Y-151642000D02*
X155914000Y-151642000D01*
X156914000Y-149602000D02*
X155914000Y-149602000D01*
X150894000Y-152692000D02*
X151494000Y-152692000D01*
X151494000Y-152692000D02*
X151494000Y-151092000D01*
X151494000Y-151092000D02*
X150894000Y-151092000D01*
X150894000Y-150152000D02*
X151494000Y-150152000D01*
X151494000Y-150152000D02*
X151494000Y-148552000D01*
X151494000Y-148552000D02*
X150894000Y-148552000D01*
%TO.C,P4*%
X150894000Y-160384000D02*
X156914000Y-160384000D01*
X156914000Y-160384000D02*
X156914000Y-155084000D01*
X156914000Y-155084000D02*
X150894000Y-155084000D01*
X150894000Y-155084000D02*
X150894000Y-160384000D01*
X151924000Y-160674000D02*
X155924000Y-160674000D01*
X156914000Y-159004000D02*
X155914000Y-159004000D01*
X155914000Y-159004000D02*
X155914000Y-156464000D01*
X155914000Y-156464000D02*
X156914000Y-156464000D01*
X155914000Y-159004000D02*
X155384000Y-158754000D01*
X155384000Y-158754000D02*
X155384000Y-156714000D01*
X155384000Y-156714000D02*
X155914000Y-156464000D01*
X156914000Y-158754000D02*
X155914000Y-158754000D01*
X156914000Y-156714000D02*
X155914000Y-156714000D01*
X150894000Y-159804000D02*
X151494000Y-159804000D01*
X151494000Y-159804000D02*
X151494000Y-158204000D01*
X151494000Y-158204000D02*
X150894000Y-158204000D01*
X150894000Y-157264000D02*
X151494000Y-157264000D01*
X151494000Y-157264000D02*
X151494000Y-155664000D01*
X151494000Y-155664000D02*
X150894000Y-155664000D01*
%TO.C,P3*%
X101794000Y-164592000D02*
X101794000Y-163262000D01*
X101794000Y-163262000D02*
X103124000Y-163262000D01*
X104394000Y-163262000D02*
X112074000Y-163262000D01*
X112074000Y-165922000D02*
X112074000Y-163262000D01*
X104394000Y-165922000D02*
X112074000Y-165922000D01*
X104394000Y-165922000D02*
X104394000Y-163262000D01*
%TO.C,P2*%
X76200000Y-157794000D02*
X74870000Y-157794000D01*
X74870000Y-157794000D02*
X74870000Y-156464000D01*
X74870000Y-155194000D02*
X74870000Y-147514000D01*
X77530000Y-147514000D02*
X74870000Y-147514000D01*
X77530000Y-155194000D02*
X77530000Y-147514000D01*
X77530000Y-155194000D02*
X74870000Y-155194000D01*
%TO.C,J1*%
X91754000Y-166310000D02*
X91754000Y-167640000D01*
X90424000Y-166310000D02*
X91754000Y-166310000D01*
X89154000Y-166310000D02*
X89154000Y-168970000D01*
X89154000Y-168970000D02*
X86554000Y-168970000D01*
X89154000Y-166310000D02*
X86554000Y-166310000D01*
X86554000Y-166310000D02*
X86554000Y-168970000D01*
%TO.C,R2*%
X81812000Y-161544000D02*
X83772000Y-161544000D01*
X94972000Y-161544000D02*
X93012000Y-161544000D01*
X83772000Y-163264000D02*
X93012000Y-163264000D01*
X83772000Y-159824000D02*
X83772000Y-163264000D01*
X93012000Y-159824000D02*
X83772000Y-159824000D01*
X93012000Y-163264000D02*
X93012000Y-159824000D01*
%TO.C,R1*%
X117880000Y-169164000D02*
X119840000Y-169164000D01*
X131040000Y-169164000D02*
X129080000Y-169164000D01*
X119840000Y-170884000D02*
X129080000Y-170884000D01*
X119840000Y-167444000D02*
X119840000Y-170884000D01*
X129080000Y-167444000D02*
X119840000Y-167444000D01*
X129080000Y-170884000D02*
X129080000Y-167444000D01*
%TO.C,Q3*%
X97862000Y-154454000D02*
X97862000Y-150854000D01*
X97850478Y-150815522D02*
G75*
G03*
X93412000Y-152654000I-1838478J-1838478D01*
G01*
X97850478Y-154492478D02*
G75*
G02*
X93412000Y-152654000I-1838478J1838478D01*
G01*
%TO.C,Q2*%
X89226000Y-145818000D02*
X89226000Y-142218000D01*
X89214478Y-142179522D02*
G75*
G03*
X84776000Y-144018000I-1838478J-1838478D01*
G01*
X89214478Y-145856478D02*
G75*
G02*
X84776000Y-144018000I-1838478J1838478D01*
G01*
%TO.C,Q1*%
X89226000Y-154454000D02*
X89226000Y-150854000D01*
X89214478Y-150815522D02*
G75*
G03*
X84776000Y-152654000I-1838478J-1838478D01*
G01*
X89214478Y-154492478D02*
G75*
G02*
X84776000Y-152654000I-1838478J1838478D01*
G01*
%TO.C,IC1*%
X101794000Y-154576000D02*
X101794000Y-156226000D01*
X137474000Y-154576000D02*
X101794000Y-154576000D01*
X137474000Y-159876000D02*
X137474000Y-154576000D01*
X101794000Y-159876000D02*
X137474000Y-159876000D01*
X101794000Y-158226000D02*
X101794000Y-159876000D01*
X101794000Y-156226000D02*
G75*
G02*
X101794000Y-158226000I0J-1000000D01*
G01*
%TO.C,D4*%
X130623000Y-141286000D02*
X130623000Y-145226000D01*
X130863000Y-141286000D02*
X130863000Y-145226000D01*
X130743000Y-141286000D02*
X130743000Y-145226000D01*
X138568000Y-143256000D02*
X138428000Y-143256000D01*
X129148000Y-143256000D02*
X129288000Y-143256000D01*
X138428000Y-141286000D02*
X129288000Y-141286000D01*
X138428000Y-145226000D02*
X138428000Y-141286000D01*
X129288000Y-145226000D02*
X138428000Y-145226000D01*
X129288000Y-141286000D02*
X129288000Y-145226000D01*
%TO.C,D3*%
X126559000Y-146874000D02*
X126559000Y-150814000D01*
X126799000Y-146874000D02*
X126799000Y-150814000D01*
X126679000Y-146874000D02*
X126679000Y-150814000D01*
X134504000Y-148844000D02*
X134364000Y-148844000D01*
X125084000Y-148844000D02*
X125224000Y-148844000D01*
X134364000Y-146874000D02*
X125224000Y-146874000D01*
X134364000Y-150814000D02*
X134364000Y-146874000D01*
X125224000Y-150814000D02*
X134364000Y-150814000D01*
X125224000Y-146874000D02*
X125224000Y-150814000D01*
%TO.C,D2*%
X148274000Y-149419000D02*
X144334000Y-149419000D01*
X148274000Y-149659000D02*
X144334000Y-149659000D01*
X148274000Y-149539000D02*
X144334000Y-149539000D01*
X146304000Y-157364000D02*
X146304000Y-157224000D01*
X146304000Y-147944000D02*
X146304000Y-148084000D01*
X148274000Y-157224000D02*
X148274000Y-148084000D01*
X144334000Y-157224000D02*
X148274000Y-157224000D01*
X144334000Y-148084000D02*
X144334000Y-157224000D01*
X148274000Y-148084000D02*
X144334000Y-148084000D01*
%TO.C,D1*%
X140498000Y-167068000D02*
X140498000Y-166912000D01*
X140498000Y-169384000D02*
X140498000Y-169228000D01*
X137896870Y-167068163D02*
G75*
G02*
X139978961Y-167068000I1041130J-1079837D01*
G01*
X137896870Y-169227837D02*
G75*
G03*
X139978961Y-169228000I1041130J1079837D01*
G01*
X137265665Y-167069392D02*
G75*
G02*
X140498000Y-166912484I1672335J-1078608D01*
G01*
X137265665Y-169226608D02*
G75*
G03*
X140498000Y-169383516I1672335J1078608D01*
G01*
%TO.C,P1*%
X143952000Y-161866000D02*
X146362000Y-161866000D01*
X143952000Y-164276000D02*
X143952000Y-161866000D01*
X156872000Y-162166000D02*
X144252000Y-162166000D01*
X156872000Y-170286000D02*
X156872000Y-162166000D01*
X144252000Y-170286000D02*
X156872000Y-170286000D01*
X144252000Y-162166000D02*
X144252000Y-170286000D01*
%TO.C,R3*%
X97560000Y-143256000D02*
X102060000Y-143256000D01*
X115800000Y-143256000D02*
X111300000Y-143256000D01*
X102060000Y-144976000D02*
X111300000Y-144976000D01*
X102060000Y-141536000D02*
X102060000Y-144976000D01*
X111300000Y-141536000D02*
X102060000Y-141536000D01*
X111300000Y-144976000D02*
X111300000Y-141536000D01*
%TO.C,P6*%
D11*
X150256380Y-144248095D02*
X149256380Y-144248095D01*
X149256380Y-143867142D01*
X149304000Y-143771904D01*
X149351619Y-143724285D01*
X149446857Y-143676666D01*
X149589714Y-143676666D01*
X149684952Y-143724285D01*
X149732571Y-143771904D01*
X149780190Y-143867142D01*
X149780190Y-144248095D01*
X149256380Y-142819523D02*
X149256380Y-143010000D01*
X149304000Y-143105238D01*
X149351619Y-143152857D01*
X149494476Y-143248095D01*
X149684952Y-143295714D01*
X150065904Y-143295714D01*
X150161142Y-143248095D01*
X150208761Y-143200476D01*
X150256380Y-143105238D01*
X150256380Y-142914761D01*
X150208761Y-142819523D01*
X150161142Y-142771904D01*
X150065904Y-142724285D01*
X149827809Y-142724285D01*
X149732571Y-142771904D01*
X149684952Y-142819523D01*
X149637333Y-142914761D01*
X149637333Y-143105238D01*
X149684952Y-143200476D01*
X149732571Y-143248095D01*
X149827809Y-143295714D01*
%TO.C,P5*%
X150256380Y-151360095D02*
X149256380Y-151360095D01*
X149256380Y-150979142D01*
X149304000Y-150883904D01*
X149351619Y-150836285D01*
X149446857Y-150788666D01*
X149589714Y-150788666D01*
X149684952Y-150836285D01*
X149732571Y-150883904D01*
X149780190Y-150979142D01*
X149780190Y-151360095D01*
X149256380Y-149883904D02*
X149256380Y-150360095D01*
X149732571Y-150407714D01*
X149684952Y-150360095D01*
X149637333Y-150264857D01*
X149637333Y-150026761D01*
X149684952Y-149931523D01*
X149732571Y-149883904D01*
X149827809Y-149836285D01*
X150065904Y-149836285D01*
X150161142Y-149883904D01*
X150208761Y-149931523D01*
X150256380Y-150026761D01*
X150256380Y-150264857D01*
X150208761Y-150360095D01*
X150161142Y-150407714D01*
%TO.C,P4*%
X150256380Y-158472095D02*
X149256380Y-158472095D01*
X149256380Y-158091142D01*
X149304000Y-157995904D01*
X149351619Y-157948285D01*
X149446857Y-157900666D01*
X149589714Y-157900666D01*
X149684952Y-157948285D01*
X149732571Y-157995904D01*
X149780190Y-158091142D01*
X149780190Y-158472095D01*
X149589714Y-157043523D02*
X150256380Y-157043523D01*
X149208761Y-157281619D02*
X149923047Y-157519714D01*
X149923047Y-156900666D01*
%TO.C,P3*%
X100806380Y-165330095D02*
X99806380Y-165330095D01*
X99806380Y-164949142D01*
X99854000Y-164853904D01*
X99901619Y-164806285D01*
X99996857Y-164758666D01*
X100139714Y-164758666D01*
X100234952Y-164806285D01*
X100282571Y-164853904D01*
X100330190Y-164949142D01*
X100330190Y-165330095D01*
X99806380Y-164425333D02*
X99806380Y-163806285D01*
X100187333Y-164139619D01*
X100187333Y-163996761D01*
X100234952Y-163901523D01*
X100282571Y-163853904D01*
X100377809Y-163806285D01*
X100615904Y-163806285D01*
X100711142Y-163853904D01*
X100758761Y-163901523D01*
X100806380Y-163996761D01*
X100806380Y-164282476D01*
X100758761Y-164377714D01*
X100711142Y-164425333D01*
%TO.C,P2*%
X75461904Y-159686380D02*
X75461904Y-158686380D01*
X75842857Y-158686380D01*
X75938095Y-158734000D01*
X75985714Y-158781619D01*
X76033333Y-158876857D01*
X76033333Y-159019714D01*
X75985714Y-159114952D01*
X75938095Y-159162571D01*
X75842857Y-159210190D01*
X75461904Y-159210190D01*
X76414285Y-158781619D02*
X76461904Y-158734000D01*
X76557142Y-158686380D01*
X76795238Y-158686380D01*
X76890476Y-158734000D01*
X76938095Y-158781619D01*
X76985714Y-158876857D01*
X76985714Y-158972095D01*
X76938095Y-159114952D01*
X76366666Y-159686380D01*
X76985714Y-159686380D01*
%TO.C,J1*%
X92206380Y-167973333D02*
X92920666Y-167973333D01*
X93063523Y-168020952D01*
X93158761Y-168116190D01*
X93206380Y-168259047D01*
X93206380Y-168354285D01*
X93206380Y-166973333D02*
X93206380Y-167544761D01*
X93206380Y-167259047D02*
X92206380Y-167259047D01*
X92349238Y-167354285D01*
X92444476Y-167449523D01*
X92492095Y-167544761D01*
%TO.C,R2*%
X88225333Y-164716380D02*
X87892000Y-164240190D01*
X87653904Y-164716380D02*
X87653904Y-163716380D01*
X88034857Y-163716380D01*
X88130095Y-163764000D01*
X88177714Y-163811619D01*
X88225333Y-163906857D01*
X88225333Y-164049714D01*
X88177714Y-164144952D01*
X88130095Y-164192571D01*
X88034857Y-164240190D01*
X87653904Y-164240190D01*
X88606285Y-163811619D02*
X88653904Y-163764000D01*
X88749142Y-163716380D01*
X88987238Y-163716380D01*
X89082476Y-163764000D01*
X89130095Y-163811619D01*
X89177714Y-163906857D01*
X89177714Y-164002095D01*
X89130095Y-164144952D01*
X88558666Y-164716380D01*
X89177714Y-164716380D01*
%TO.C,R1*%
X124293333Y-172336380D02*
X123960000Y-171860190D01*
X123721904Y-172336380D02*
X123721904Y-171336380D01*
X124102857Y-171336380D01*
X124198095Y-171384000D01*
X124245714Y-171431619D01*
X124293333Y-171526857D01*
X124293333Y-171669714D01*
X124245714Y-171764952D01*
X124198095Y-171812571D01*
X124102857Y-171860190D01*
X123721904Y-171860190D01*
X125245714Y-172336380D02*
X124674285Y-172336380D01*
X124960000Y-172336380D02*
X124960000Y-171336380D01*
X124864761Y-171479238D01*
X124769523Y-171574476D01*
X124674285Y-171622095D01*
%TO.C,Q3*%
X92999619Y-152749238D02*
X92952000Y-152844476D01*
X92856761Y-152939714D01*
X92713904Y-153082571D01*
X92666285Y-153177809D01*
X92666285Y-153273047D01*
X92904380Y-153225428D02*
X92856761Y-153320666D01*
X92761523Y-153415904D01*
X92571047Y-153463523D01*
X92237714Y-153463523D01*
X92047238Y-153415904D01*
X91952000Y-153320666D01*
X91904380Y-153225428D01*
X91904380Y-153034952D01*
X91952000Y-152939714D01*
X92047238Y-152844476D01*
X92237714Y-152796857D01*
X92571047Y-152796857D01*
X92761523Y-152844476D01*
X92856761Y-152939714D01*
X92904380Y-153034952D01*
X92904380Y-153225428D01*
X91904380Y-152463523D02*
X91904380Y-151844476D01*
X92285333Y-152177809D01*
X92285333Y-152034952D01*
X92332952Y-151939714D01*
X92380571Y-151892095D01*
X92475809Y-151844476D01*
X92713904Y-151844476D01*
X92809142Y-151892095D01*
X92856761Y-151939714D01*
X92904380Y-152034952D01*
X92904380Y-152320666D01*
X92856761Y-152415904D01*
X92809142Y-152463523D01*
%TO.C,Q2*%
X84363619Y-144113238D02*
X84316000Y-144208476D01*
X84220761Y-144303714D01*
X84077904Y-144446571D01*
X84030285Y-144541809D01*
X84030285Y-144637047D01*
X84268380Y-144589428D02*
X84220761Y-144684666D01*
X84125523Y-144779904D01*
X83935047Y-144827523D01*
X83601714Y-144827523D01*
X83411238Y-144779904D01*
X83316000Y-144684666D01*
X83268380Y-144589428D01*
X83268380Y-144398952D01*
X83316000Y-144303714D01*
X83411238Y-144208476D01*
X83601714Y-144160857D01*
X83935047Y-144160857D01*
X84125523Y-144208476D01*
X84220761Y-144303714D01*
X84268380Y-144398952D01*
X84268380Y-144589428D01*
X83363619Y-143779904D02*
X83316000Y-143732285D01*
X83268380Y-143637047D01*
X83268380Y-143398952D01*
X83316000Y-143303714D01*
X83363619Y-143256095D01*
X83458857Y-143208476D01*
X83554095Y-143208476D01*
X83696952Y-143256095D01*
X84268380Y-143827523D01*
X84268380Y-143208476D01*
%TO.C,Q1*%
X84363619Y-152749238D02*
X84316000Y-152844476D01*
X84220761Y-152939714D01*
X84077904Y-153082571D01*
X84030285Y-153177809D01*
X84030285Y-153273047D01*
X84268380Y-153225428D02*
X84220761Y-153320666D01*
X84125523Y-153415904D01*
X83935047Y-153463523D01*
X83601714Y-153463523D01*
X83411238Y-153415904D01*
X83316000Y-153320666D01*
X83268380Y-153225428D01*
X83268380Y-153034952D01*
X83316000Y-152939714D01*
X83411238Y-152844476D01*
X83601714Y-152796857D01*
X83935047Y-152796857D01*
X84125523Y-152844476D01*
X84220761Y-152939714D01*
X84268380Y-153034952D01*
X84268380Y-153225428D01*
X84268380Y-151844476D02*
X84268380Y-152415904D01*
X84268380Y-152130190D02*
X83268380Y-152130190D01*
X83411238Y-152225428D01*
X83506476Y-152320666D01*
X83554095Y-152415904D01*
%TO.C,IC1*%
X101246380Y-158202190D02*
X100246380Y-158202190D01*
X101151142Y-157154571D02*
X101198761Y-157202190D01*
X101246380Y-157345047D01*
X101246380Y-157440285D01*
X101198761Y-157583142D01*
X101103523Y-157678380D01*
X101008285Y-157726000D01*
X100817809Y-157773619D01*
X100674952Y-157773619D01*
X100484476Y-157726000D01*
X100389238Y-157678380D01*
X100294000Y-157583142D01*
X100246380Y-157440285D01*
X100246380Y-157345047D01*
X100294000Y-157202190D01*
X100341619Y-157154571D01*
X101246380Y-156202190D02*
X101246380Y-156773619D01*
X101246380Y-156487904D02*
X100246380Y-156487904D01*
X100389238Y-156583142D01*
X100484476Y-156678380D01*
X100532095Y-156773619D01*
%TO.C,D4*%
X133119904Y-140738380D02*
X133119904Y-139738380D01*
X133358000Y-139738380D01*
X133500857Y-139786000D01*
X133596095Y-139881238D01*
X133643714Y-139976476D01*
X133691333Y-140166952D01*
X133691333Y-140309809D01*
X133643714Y-140500285D01*
X133596095Y-140595523D01*
X133500857Y-140690761D01*
X133358000Y-140738380D01*
X133119904Y-140738380D01*
X134548476Y-140071714D02*
X134548476Y-140738380D01*
X134310380Y-139690761D02*
X134072285Y-140405047D01*
X134691333Y-140405047D01*
X127246095Y-141308380D02*
X127246095Y-140308380D01*
X127817523Y-141308380D02*
X127388952Y-140736952D01*
X127817523Y-140308380D02*
X127246095Y-140879809D01*
%TO.C,D3*%
X129055904Y-146326380D02*
X129055904Y-145326380D01*
X129294000Y-145326380D01*
X129436857Y-145374000D01*
X129532095Y-145469238D01*
X129579714Y-145564476D01*
X129627333Y-145754952D01*
X129627333Y-145897809D01*
X129579714Y-146088285D01*
X129532095Y-146183523D01*
X129436857Y-146278761D01*
X129294000Y-146326380D01*
X129055904Y-146326380D01*
X129960666Y-145326380D02*
X130579714Y-145326380D01*
X130246380Y-145707333D01*
X130389238Y-145707333D01*
X130484476Y-145754952D01*
X130532095Y-145802571D01*
X130579714Y-145897809D01*
X130579714Y-146135904D01*
X130532095Y-146231142D01*
X130484476Y-146278761D01*
X130389238Y-146326380D01*
X130103523Y-146326380D01*
X130008285Y-146278761D01*
X129960666Y-146231142D01*
X123182095Y-146896380D02*
X123182095Y-145896380D01*
X123753523Y-146896380D02*
X123324952Y-146324952D01*
X123753523Y-145896380D02*
X123182095Y-146467809D01*
%TO.C,D2*%
X149726380Y-153392095D02*
X148726380Y-153392095D01*
X148726380Y-153154000D01*
X148774000Y-153011142D01*
X148869238Y-152915904D01*
X148964476Y-152868285D01*
X149154952Y-152820666D01*
X149297809Y-152820666D01*
X149488285Y-152868285D01*
X149583523Y-152915904D01*
X149678761Y-153011142D01*
X149726380Y-153154000D01*
X149726380Y-153392095D01*
X148821619Y-152439714D02*
X148774000Y-152392095D01*
X148726380Y-152296857D01*
X148726380Y-152058761D01*
X148774000Y-151963523D01*
X148821619Y-151915904D01*
X148916857Y-151868285D01*
X149012095Y-151868285D01*
X149154952Y-151915904D01*
X149726380Y-152487333D01*
X149726380Y-151868285D01*
X149156380Y-146565904D02*
X148156380Y-146565904D01*
X149156380Y-145994476D02*
X148584952Y-146423047D01*
X148156380Y-145994476D02*
X148727809Y-146565904D01*
%TO.C,D1*%
X138199904Y-171560380D02*
X138199904Y-170560380D01*
X138438000Y-170560380D01*
X138580857Y-170608000D01*
X138676095Y-170703238D01*
X138723714Y-170798476D01*
X138771333Y-170988952D01*
X138771333Y-171131809D01*
X138723714Y-171322285D01*
X138676095Y-171417523D01*
X138580857Y-171512761D01*
X138438000Y-171560380D01*
X138199904Y-171560380D01*
X139723714Y-171560380D02*
X139152285Y-171560380D01*
X139438000Y-171560380D02*
X139438000Y-170560380D01*
X139342761Y-170703238D01*
X139247523Y-170798476D01*
X139152285Y-170846095D01*
%TO.C,P1*%
X149823904Y-161528380D02*
X149823904Y-160528380D01*
X150204857Y-160528380D01*
X150300095Y-160576000D01*
X150347714Y-160623619D01*
X150395333Y-160718857D01*
X150395333Y-160861714D01*
X150347714Y-160956952D01*
X150300095Y-161004571D01*
X150204857Y-161052190D01*
X149823904Y-161052190D01*
X151347714Y-161528380D02*
X150776285Y-161528380D01*
X151062000Y-161528380D02*
X151062000Y-160528380D01*
X150966761Y-160671238D01*
X150871523Y-160766476D01*
X150776285Y-160814095D01*
%TO.C,R3*%
X106513333Y-146428380D02*
X106180000Y-145952190D01*
X105941904Y-146428380D02*
X105941904Y-145428380D01*
X106322857Y-145428380D01*
X106418095Y-145476000D01*
X106465714Y-145523619D01*
X106513333Y-145618857D01*
X106513333Y-145761714D01*
X106465714Y-145856952D01*
X106418095Y-145904571D01*
X106322857Y-145952190D01*
X105941904Y-145952190D01*
X106846666Y-145428380D02*
X107465714Y-145428380D01*
X107132380Y-145809333D01*
X107275238Y-145809333D01*
X107370476Y-145856952D01*
X107418095Y-145904571D01*
X107465714Y-145999809D01*
X107465714Y-146237904D01*
X107418095Y-146333142D01*
X107370476Y-146380761D01*
X107275238Y-146428380D01*
X106989523Y-146428380D01*
X106894285Y-146380761D01*
X106846666Y-146333142D01*
%TD*%
M02*
