M48
; DRILL file {KiCad 5.1.6-c6e7f7d~86~ubuntu16.04.1} date Sun Jun 21 16:49:57 2020
; FORMAT={-:-/ absolute / inch / decimal}
; #@! TF.CreationDate,2020-06-21T16:49:57-03:00
; #@! TF.GenerationSoftware,Kicad,Pcbnew,5.1.6-c6e7f7d~86~ubuntu16.04.1
; #@! TF.FileFunction,Plated,1,2,PTH
FMAT,2
INCH
T1C0.0157
T2C0.0295
T3C0.0315
T4C0.0335
T5C0.0354
T6C0.0394
T7C0.0469
T8C0.0551
%
G90
G05
T1
X3.6Y-5.6
X3.6Y-6.06
X3.78Y-5.82
X3.84Y-6.6
X3.9Y-5.96
X3.98Y-6.62
X4.04Y-5.96
X4.06Y-6.58
X4.28Y-6.64
X4.5204Y-6.5196
X4.72Y-6.52
X4.84Y-5.66
T2
X3.78Y-5.96
X3.78Y-6.01
X3.78Y-6.06
X3.44Y-5.62
X3.44Y-5.67
X3.44Y-5.72
X3.44Y-5.96
X3.44Y-6.01
X3.44Y-6.06
T3
X4.6Y-6.66
X5.2Y-6.66
X3.18Y-6.36
X3.78Y-6.36
X4.06Y-6.04
X4.06Y-6.34
X4.16Y-6.04
X4.16Y-6.34
X4.26Y-6.04
X4.26Y-6.34
X4.36Y-6.04
X4.36Y-6.34
X4.46Y-6.04
X4.46Y-6.34
X4.56Y-6.04
X4.56Y-6.34
X4.66Y-6.04
X4.66Y-6.34
X4.76Y-6.04
X4.76Y-6.34
X4.86Y-6.04
X4.86Y-6.34
X4.96Y-6.04
X4.96Y-6.34
X5.06Y-6.04
X5.06Y-6.34
X5.16Y-6.04
X5.16Y-6.34
X5.26Y-6.04
X5.26Y-6.34
X5.36Y-6.04
X5.36Y-6.34
X3.8Y-5.64
X4.6Y-5.64
T4
X5.78Y-6.44
X5.8784Y-6.44
X5.9769Y-6.44
X6.0753Y-6.44
T5
X5.42Y-6.62
X5.52Y-6.62
T6
X4.06Y-6.48
X4.16Y-6.48
X4.26Y-6.48
X4.36Y-6.48
X3.0Y-5.86
X3.0Y-5.96
X3.0Y-6.06
X3.0Y-6.16
X3.46Y-6.6
X3.56Y-6.6
T7
X6.06Y-6.16
X6.06Y-6.26
X6.06Y-5.6
X6.06Y-5.7
X6.06Y-5.88
X6.06Y-5.98
T8
X5.76Y-5.76
X5.76Y-6.26
X5.02Y-5.64
X5.52Y-5.64
X4.86Y-5.86
X5.36Y-5.86
T0
M30
