%TF.GenerationSoftware,KiCad,Pcbnew,5.1.6-c6e7f7d~86~ubuntu16.04.1*%
%TF.CreationDate,2020-06-21T16:49:52-03:00*%
%TF.ProjectId,coolercontroller,636f6f6c-6572-4636-9f6e-74726f6c6c65,rev?*%
%TF.SameCoordinates,Original*%
%TF.FileFunction,Soldermask,Top*%
%TF.FilePolarity,Negative*%
%FSLAX46Y46*%
G04 Gerber Fmt 4.6, Leading zero omitted, Abs format (unit mm)*
G04 Created by KiCad (PCBNEW 5.1.6-c6e7f7d~86~ubuntu16.04.1) date 2020-06-21 16:49:52*
%MOMM*%
%LPD*%
G01*
G04 APERTURE LIST*
%ADD10O,2.190000X1.740000*%
%ADD11O,1.700000X1.700000*%
%ADD12R,1.700000X1.700000*%
%ADD13O,1.600000X1.600000*%
%ADD14C,1.600000*%
%ADD15R,1.500000X1.050000*%
%ADD16O,1.500000X1.050000*%
%ADD17R,1.600000X1.600000*%
%ADD18O,2.800000X2.800000*%
%ADD19R,2.800000X2.800000*%
%ADD20C,1.800000*%
%ADD21R,1.800000X1.800000*%
%ADD22O,1.700000X1.850000*%
G04 APERTURE END LIST*
D10*
%TO.C,P6*%
X153924000Y-142240000D03*
G36*
G01*
X154769001Y-145650000D02*
X153078999Y-145650000D01*
G75*
G02*
X152829000Y-145400001I0J249999D01*
G01*
X152829000Y-144159999D01*
G75*
G02*
X153078999Y-143910000I249999J0D01*
G01*
X154769001Y-143910000D01*
G75*
G02*
X155019000Y-144159999I0J-249999D01*
G01*
X155019000Y-145400001D01*
G75*
G02*
X154769001Y-145650000I-249999J0D01*
G01*
G37*
%TD*%
%TO.C,P5*%
X153924000Y-149352000D03*
G36*
G01*
X154769001Y-152762000D02*
X153078999Y-152762000D01*
G75*
G02*
X152829000Y-152512001I0J249999D01*
G01*
X152829000Y-151271999D01*
G75*
G02*
X153078999Y-151022000I249999J0D01*
G01*
X154769001Y-151022000D01*
G75*
G02*
X155019000Y-151271999I0J-249999D01*
G01*
X155019000Y-152512001D01*
G75*
G02*
X154769001Y-152762000I-249999J0D01*
G01*
G37*
%TD*%
%TO.C,P4*%
X153924000Y-156464000D03*
G36*
G01*
X154769001Y-159874000D02*
X153078999Y-159874000D01*
G75*
G02*
X152829000Y-159624001I0J249999D01*
G01*
X152829000Y-158383999D01*
G75*
G02*
X153078999Y-158134000I249999J0D01*
G01*
X154769001Y-158134000D01*
G75*
G02*
X155019000Y-158383999I0J-249999D01*
G01*
X155019000Y-159624001D01*
G75*
G02*
X154769001Y-159874000I-249999J0D01*
G01*
G37*
%TD*%
D11*
%TO.C,P3*%
X110744000Y-164592000D03*
X108204000Y-164592000D03*
X105664000Y-164592000D03*
D12*
X103124000Y-164592000D03*
%TD*%
D11*
%TO.C,P2*%
X76200000Y-148844000D03*
X76200000Y-151384000D03*
X76200000Y-153924000D03*
D12*
X76200000Y-156464000D03*
%TD*%
D11*
%TO.C,J1*%
X87884000Y-167640000D03*
D12*
X90424000Y-167640000D03*
%TD*%
D13*
%TO.C,R2*%
X80772000Y-161544000D03*
D14*
X96012000Y-161544000D03*
%TD*%
D13*
%TO.C,R1*%
X116840000Y-169164000D03*
D14*
X132080000Y-169164000D03*
%TD*%
D15*
%TO.C,Q3*%
X96012000Y-153924000D03*
D16*
X96012000Y-151384000D03*
X96012000Y-152654000D03*
%TD*%
D15*
%TO.C,Q2*%
X87376000Y-145288000D03*
D16*
X87376000Y-142748000D03*
X87376000Y-144018000D03*
%TD*%
D15*
%TO.C,Q1*%
X87376000Y-153924000D03*
D16*
X87376000Y-151384000D03*
X87376000Y-152654000D03*
%TD*%
D13*
%TO.C,IC1*%
X103124000Y-153416000D03*
X136144000Y-161036000D03*
X105664000Y-153416000D03*
X133604000Y-161036000D03*
X108204000Y-153416000D03*
X131064000Y-161036000D03*
X110744000Y-153416000D03*
X128524000Y-161036000D03*
X113284000Y-153416000D03*
X125984000Y-161036000D03*
X115824000Y-153416000D03*
X123444000Y-161036000D03*
X118364000Y-153416000D03*
X120904000Y-161036000D03*
X120904000Y-153416000D03*
X118364000Y-161036000D03*
X123444000Y-153416000D03*
X115824000Y-161036000D03*
X125984000Y-153416000D03*
X113284000Y-161036000D03*
X128524000Y-153416000D03*
X110744000Y-161036000D03*
X131064000Y-153416000D03*
X108204000Y-161036000D03*
X133604000Y-153416000D03*
X105664000Y-161036000D03*
X136144000Y-153416000D03*
D17*
X103124000Y-161036000D03*
%TD*%
D18*
%TO.C,D4*%
X140208000Y-143256000D03*
D19*
X127508000Y-143256000D03*
%TD*%
D18*
%TO.C,D3*%
X136144000Y-148844000D03*
D19*
X123444000Y-148844000D03*
%TD*%
D18*
%TO.C,D2*%
X146304000Y-159004000D03*
D19*
X146304000Y-146304000D03*
%TD*%
D20*
%TO.C,D1*%
X137668000Y-168148000D03*
D21*
X140208000Y-168148000D03*
%TD*%
%TO.C,P1*%
G36*
G01*
X145962000Y-164251000D02*
X145962000Y-162901000D01*
G75*
G02*
X146212000Y-162651000I250000J0D01*
G01*
X147412000Y-162651000D01*
G75*
G02*
X147662000Y-162901000I0J-250000D01*
G01*
X147662000Y-164251000D01*
G75*
G02*
X147412000Y-164501000I-250000J0D01*
G01*
X146212000Y-164501000D01*
G75*
G02*
X145962000Y-164251000I0J250000D01*
G01*
G37*
D22*
X149312000Y-163576000D03*
X151812000Y-163576000D03*
X154312000Y-163576000D03*
%TD*%
D14*
%TO.C,R3*%
X116840000Y-143256000D03*
D13*
X96520000Y-143256000D03*
%TD*%
M02*
