%TF.GenerationSoftware,KiCad,Pcbnew,5.1.6-c6e7f7d~86~ubuntu16.04.1*%
%TF.CreationDate,2020-06-21T16:49:52-03:00*%
%TF.ProjectId,coolercontroller,636f6f6c-6572-4636-9f6e-74726f6c6c65,rev?*%
%TF.SameCoordinates,Original*%
%TF.FileFunction,Other,Fab,Top*%
%FSLAX46Y46*%
G04 Gerber Fmt 4.6, Leading zero omitted, Abs format (unit mm)*
G04 Created by KiCad (PCBNEW 5.1.6-c6e7f7d~86~ubuntu16.04.1) date 2020-06-21 16:49:52*
%MOMM*%
%LPD*%
G01*
G04 APERTURE LIST*
%ADD10C,0.100000*%
%ADD11C,0.150000*%
G04 APERTURE END LIST*
D10*
%TO.C,P6*%
X151004000Y-146050000D02*
X156804000Y-146050000D01*
X156804000Y-146050000D02*
X156804000Y-140970000D01*
X156804000Y-140970000D02*
X151004000Y-140970000D01*
X151004000Y-140970000D02*
X151004000Y-146050000D01*
X153424000Y-146050000D02*
X153924000Y-145342893D01*
X153924000Y-145342893D02*
X154424000Y-146050000D01*
%TO.C,P5*%
X151004000Y-153162000D02*
X156804000Y-153162000D01*
X156804000Y-153162000D02*
X156804000Y-148082000D01*
X156804000Y-148082000D02*
X151004000Y-148082000D01*
X151004000Y-148082000D02*
X151004000Y-153162000D01*
X153424000Y-153162000D02*
X153924000Y-152454893D01*
X153924000Y-152454893D02*
X154424000Y-153162000D01*
%TO.C,P4*%
X151004000Y-160274000D02*
X156804000Y-160274000D01*
X156804000Y-160274000D02*
X156804000Y-155194000D01*
X156804000Y-155194000D02*
X151004000Y-155194000D01*
X151004000Y-155194000D02*
X151004000Y-160274000D01*
X153424000Y-160274000D02*
X153924000Y-159566893D01*
X153924000Y-159566893D02*
X154424000Y-160274000D01*
%TO.C,P3*%
X112014000Y-165862000D02*
X101854000Y-165862000D01*
X112014000Y-163322000D02*
X112014000Y-165862000D01*
X102489000Y-163322000D02*
X112014000Y-163322000D01*
X101854000Y-163957000D02*
X102489000Y-163322000D01*
X101854000Y-165862000D02*
X101854000Y-163957000D01*
%TO.C,P2*%
X77470000Y-147574000D02*
X77470000Y-157734000D01*
X74930000Y-147574000D02*
X77470000Y-147574000D01*
X74930000Y-157099000D02*
X74930000Y-147574000D01*
X75565000Y-157734000D02*
X74930000Y-157099000D01*
X77470000Y-157734000D02*
X75565000Y-157734000D01*
%TO.C,J1*%
X91059000Y-166370000D02*
X91694000Y-167005000D01*
X86614000Y-166370000D02*
X91059000Y-166370000D01*
X86614000Y-168910000D02*
X86614000Y-166370000D01*
X91694000Y-168910000D02*
X86614000Y-168910000D01*
X91694000Y-167005000D02*
X91694000Y-168910000D01*
%TO.C,R2*%
X80772000Y-161544000D02*
X83892000Y-161544000D01*
X96012000Y-161544000D02*
X92892000Y-161544000D01*
X83892000Y-163144000D02*
X92892000Y-163144000D01*
X83892000Y-159944000D02*
X83892000Y-163144000D01*
X92892000Y-159944000D02*
X83892000Y-159944000D01*
X92892000Y-163144000D02*
X92892000Y-159944000D01*
%TO.C,R1*%
X116840000Y-169164000D02*
X119960000Y-169164000D01*
X132080000Y-169164000D02*
X128960000Y-169164000D01*
X119960000Y-170764000D02*
X128960000Y-170764000D01*
X119960000Y-167564000D02*
X119960000Y-170764000D01*
X128960000Y-167564000D02*
X119960000Y-167564000D01*
X128960000Y-170764000D02*
X128960000Y-167564000D01*
%TO.C,Q3*%
X97762000Y-154424000D02*
X97762000Y-150924000D01*
X97765625Y-154407625D02*
G75*
G02*
X93532000Y-152654000I-1753625J1753625D01*
G01*
X97765625Y-150900375D02*
G75*
G03*
X93532000Y-152654000I-1753625J-1753625D01*
G01*
%TO.C,Q2*%
X89126000Y-145788000D02*
X89126000Y-142288000D01*
X89129625Y-145771625D02*
G75*
G02*
X84896000Y-144018000I-1753625J1753625D01*
G01*
X89129625Y-142264375D02*
G75*
G03*
X84896000Y-144018000I-1753625J-1753625D01*
G01*
%TO.C,Q1*%
X89126000Y-154424000D02*
X89126000Y-150924000D01*
X89129625Y-154407625D02*
G75*
G02*
X84896000Y-152654000I-1753625J1753625D01*
G01*
X89129625Y-150900375D02*
G75*
G03*
X84896000Y-152654000I-1753625J-1753625D01*
G01*
%TO.C,IC1*%
X102854000Y-160401000D02*
X101854000Y-159401000D01*
X137414000Y-160401000D02*
X102854000Y-160401000D01*
X137414000Y-154051000D02*
X137414000Y-160401000D01*
X101854000Y-154051000D02*
X137414000Y-154051000D01*
X101854000Y-159401000D02*
X101854000Y-154051000D01*
%TO.C,D4*%
X130643000Y-141406000D02*
X130643000Y-145106000D01*
X130843000Y-141406000D02*
X130843000Y-145106000D01*
X130743000Y-141406000D02*
X130743000Y-145106000D01*
X140208000Y-143256000D02*
X138308000Y-143256000D01*
X127508000Y-143256000D02*
X129408000Y-143256000D01*
X138308000Y-141406000D02*
X129408000Y-141406000D01*
X138308000Y-145106000D02*
X138308000Y-141406000D01*
X129408000Y-145106000D02*
X138308000Y-145106000D01*
X129408000Y-141406000D02*
X129408000Y-145106000D01*
%TO.C,D3*%
X126579000Y-146994000D02*
X126579000Y-150694000D01*
X126779000Y-146994000D02*
X126779000Y-150694000D01*
X126679000Y-146994000D02*
X126679000Y-150694000D01*
X136144000Y-148844000D02*
X134244000Y-148844000D01*
X123444000Y-148844000D02*
X125344000Y-148844000D01*
X134244000Y-146994000D02*
X125344000Y-146994000D01*
X134244000Y-150694000D02*
X134244000Y-146994000D01*
X125344000Y-150694000D02*
X134244000Y-150694000D01*
X125344000Y-146994000D02*
X125344000Y-150694000D01*
%TO.C,D2*%
X148154000Y-149439000D02*
X144454000Y-149439000D01*
X148154000Y-149639000D02*
X144454000Y-149639000D01*
X148154000Y-149539000D02*
X144454000Y-149539000D01*
X146304000Y-159004000D02*
X146304000Y-157104000D01*
X146304000Y-146304000D02*
X146304000Y-148204000D01*
X148154000Y-157104000D02*
X148154000Y-148204000D01*
X144454000Y-157104000D02*
X148154000Y-157104000D01*
X144454000Y-148204000D02*
X144454000Y-157104000D01*
X148154000Y-148204000D02*
X144454000Y-148204000D01*
%TO.C,D1*%
X140438000Y-169314190D02*
X140438000Y-166981810D01*
X140438000Y-168148000D02*
G75*
G03*
X140438000Y-168148000I-1500000J0D01*
G01*
X140438555Y-166982524D02*
G75*
G03*
X140438000Y-169314190I-1500555J-1165476D01*
G01*
%TO.C,P1*%
X145069107Y-163576000D02*
X144362000Y-163076000D01*
X144362000Y-164076000D02*
X145069107Y-163576000D01*
X156762000Y-162276000D02*
X144362000Y-162276000D01*
X156762000Y-170176000D02*
X156762000Y-162276000D01*
X144362000Y-170176000D02*
X156762000Y-170176000D01*
X144362000Y-162276000D02*
X144362000Y-170176000D01*
%TO.C,R3*%
X96520000Y-143256000D02*
X102180000Y-143256000D01*
X116840000Y-143256000D02*
X111180000Y-143256000D01*
X102180000Y-144856000D02*
X111180000Y-144856000D01*
X102180000Y-141656000D02*
X102180000Y-144856000D01*
X111180000Y-141656000D02*
X102180000Y-141656000D01*
X111180000Y-144856000D02*
X111180000Y-141656000D01*
%TD*%
%TO.C,P6*%
D11*
X158456380Y-145390952D02*
X157456380Y-145390952D01*
X157456380Y-145010000D01*
X157504000Y-144914761D01*
X157551619Y-144867142D01*
X157646857Y-144819523D01*
X157789714Y-144819523D01*
X157884952Y-144867142D01*
X157932571Y-144914761D01*
X157980190Y-145010000D01*
X157980190Y-145390952D01*
X157456380Y-144486190D02*
X158456380Y-144248095D01*
X157742095Y-144057619D01*
X158456380Y-143867142D01*
X157456380Y-143629047D01*
X158456380Y-143248095D02*
X157456380Y-143248095D01*
X158170666Y-142914761D01*
X157456380Y-142581428D01*
X158456380Y-142581428D01*
X157456380Y-142200476D02*
X157456380Y-141581428D01*
X157837333Y-141914761D01*
X157837333Y-141771904D01*
X157884952Y-141676666D01*
X157932571Y-141629047D01*
X158027809Y-141581428D01*
X158265904Y-141581428D01*
X158361142Y-141629047D01*
X158408761Y-141676666D01*
X158456380Y-141771904D01*
X158456380Y-142057619D01*
X158408761Y-142152857D01*
X158361142Y-142200476D01*
X152156380Y-144248095D02*
X151156380Y-144248095D01*
X151156380Y-143867142D01*
X151204000Y-143771904D01*
X151251619Y-143724285D01*
X151346857Y-143676666D01*
X151489714Y-143676666D01*
X151584952Y-143724285D01*
X151632571Y-143771904D01*
X151680190Y-143867142D01*
X151680190Y-144248095D01*
X151156380Y-142819523D02*
X151156380Y-143010000D01*
X151204000Y-143105238D01*
X151251619Y-143152857D01*
X151394476Y-143248095D01*
X151584952Y-143295714D01*
X151965904Y-143295714D01*
X152061142Y-143248095D01*
X152108761Y-143200476D01*
X152156380Y-143105238D01*
X152156380Y-142914761D01*
X152108761Y-142819523D01*
X152061142Y-142771904D01*
X151965904Y-142724285D01*
X151727809Y-142724285D01*
X151632571Y-142771904D01*
X151584952Y-142819523D01*
X151537333Y-142914761D01*
X151537333Y-143105238D01*
X151584952Y-143200476D01*
X151632571Y-143248095D01*
X151727809Y-143295714D01*
%TO.C,P5*%
X158456380Y-152502952D02*
X157456380Y-152502952D01*
X157456380Y-152122000D01*
X157504000Y-152026761D01*
X157551619Y-151979142D01*
X157646857Y-151931523D01*
X157789714Y-151931523D01*
X157884952Y-151979142D01*
X157932571Y-152026761D01*
X157980190Y-152122000D01*
X157980190Y-152502952D01*
X157456380Y-151598190D02*
X158456380Y-151360095D01*
X157742095Y-151169619D01*
X158456380Y-150979142D01*
X157456380Y-150741047D01*
X158456380Y-150360095D02*
X157456380Y-150360095D01*
X158170666Y-150026761D01*
X157456380Y-149693428D01*
X158456380Y-149693428D01*
X157551619Y-149264857D02*
X157504000Y-149217238D01*
X157456380Y-149122000D01*
X157456380Y-148883904D01*
X157504000Y-148788666D01*
X157551619Y-148741047D01*
X157646857Y-148693428D01*
X157742095Y-148693428D01*
X157884952Y-148741047D01*
X158456380Y-149312476D01*
X158456380Y-148693428D01*
X152156380Y-151360095D02*
X151156380Y-151360095D01*
X151156380Y-150979142D01*
X151204000Y-150883904D01*
X151251619Y-150836285D01*
X151346857Y-150788666D01*
X151489714Y-150788666D01*
X151584952Y-150836285D01*
X151632571Y-150883904D01*
X151680190Y-150979142D01*
X151680190Y-151360095D01*
X151156380Y-149883904D02*
X151156380Y-150360095D01*
X151632571Y-150407714D01*
X151584952Y-150360095D01*
X151537333Y-150264857D01*
X151537333Y-150026761D01*
X151584952Y-149931523D01*
X151632571Y-149883904D01*
X151727809Y-149836285D01*
X151965904Y-149836285D01*
X152061142Y-149883904D01*
X152108761Y-149931523D01*
X152156380Y-150026761D01*
X152156380Y-150264857D01*
X152108761Y-150360095D01*
X152061142Y-150407714D01*
%TO.C,P4*%
X158456380Y-159614952D02*
X157456380Y-159614952D01*
X157456380Y-159234000D01*
X157504000Y-159138761D01*
X157551619Y-159091142D01*
X157646857Y-159043523D01*
X157789714Y-159043523D01*
X157884952Y-159091142D01*
X157932571Y-159138761D01*
X157980190Y-159234000D01*
X157980190Y-159614952D01*
X157456380Y-158710190D02*
X158456380Y-158472095D01*
X157742095Y-158281619D01*
X158456380Y-158091142D01*
X157456380Y-157853047D01*
X158456380Y-157472095D02*
X157456380Y-157472095D01*
X158170666Y-157138761D01*
X157456380Y-156805428D01*
X158456380Y-156805428D01*
X158456380Y-155805428D02*
X158456380Y-156376857D01*
X158456380Y-156091142D02*
X157456380Y-156091142D01*
X157599238Y-156186380D01*
X157694476Y-156281619D01*
X157742095Y-156376857D01*
X152156380Y-158472095D02*
X151156380Y-158472095D01*
X151156380Y-158091142D01*
X151204000Y-157995904D01*
X151251619Y-157948285D01*
X151346857Y-157900666D01*
X151489714Y-157900666D01*
X151584952Y-157948285D01*
X151632571Y-157995904D01*
X151680190Y-158091142D01*
X151680190Y-158472095D01*
X151489714Y-157043523D02*
X152156380Y-157043523D01*
X151108761Y-157281619D02*
X151823047Y-157519714D01*
X151823047Y-156900666D01*
%TO.C,P3*%
X113966380Y-166187238D02*
X113490190Y-166520571D01*
X113966380Y-166758666D02*
X112966380Y-166758666D01*
X112966380Y-166377714D01*
X113014000Y-166282476D01*
X113061619Y-166234857D01*
X113156857Y-166187238D01*
X113299714Y-166187238D01*
X113394952Y-166234857D01*
X113442571Y-166282476D01*
X113490190Y-166377714D01*
X113490190Y-166758666D01*
X113918761Y-165806285D02*
X113966380Y-165663428D01*
X113966380Y-165425333D01*
X113918761Y-165330095D01*
X113871142Y-165282476D01*
X113775904Y-165234857D01*
X113680666Y-165234857D01*
X113585428Y-165282476D01*
X113537809Y-165330095D01*
X113490190Y-165425333D01*
X113442571Y-165615809D01*
X113394952Y-165711047D01*
X113347333Y-165758666D01*
X113252095Y-165806285D01*
X113156857Y-165806285D01*
X113061619Y-165758666D01*
X113014000Y-165711047D01*
X112966380Y-165615809D01*
X112966380Y-165377714D01*
X113014000Y-165234857D01*
X113061619Y-164853904D02*
X113014000Y-164806285D01*
X112966380Y-164711047D01*
X112966380Y-164472952D01*
X113014000Y-164377714D01*
X113061619Y-164330095D01*
X113156857Y-164282476D01*
X113252095Y-164282476D01*
X113394952Y-164330095D01*
X113966380Y-164901523D01*
X113966380Y-164282476D01*
X112966380Y-163949142D02*
X112966380Y-163330095D01*
X113347333Y-163663428D01*
X113347333Y-163520571D01*
X113394952Y-163425333D01*
X113442571Y-163377714D01*
X113537809Y-163330095D01*
X113775904Y-163330095D01*
X113871142Y-163377714D01*
X113918761Y-163425333D01*
X113966380Y-163520571D01*
X113966380Y-163806285D01*
X113918761Y-163901523D01*
X113871142Y-163949142D01*
X113061619Y-162949142D02*
X113014000Y-162901523D01*
X112966380Y-162806285D01*
X112966380Y-162568190D01*
X113014000Y-162472952D01*
X113061619Y-162425333D01*
X113156857Y-162377714D01*
X113252095Y-162377714D01*
X113394952Y-162425333D01*
X113966380Y-162996761D01*
X113966380Y-162377714D01*
X106195904Y-165044380D02*
X106195904Y-164044380D01*
X106576857Y-164044380D01*
X106672095Y-164092000D01*
X106719714Y-164139619D01*
X106767333Y-164234857D01*
X106767333Y-164377714D01*
X106719714Y-164472952D01*
X106672095Y-164520571D01*
X106576857Y-164568190D01*
X106195904Y-164568190D01*
X107100666Y-164044380D02*
X107719714Y-164044380D01*
X107386380Y-164425333D01*
X107529238Y-164425333D01*
X107624476Y-164472952D01*
X107672095Y-164520571D01*
X107719714Y-164615809D01*
X107719714Y-164853904D01*
X107672095Y-164949142D01*
X107624476Y-164996761D01*
X107529238Y-165044380D01*
X107243523Y-165044380D01*
X107148285Y-164996761D01*
X107100666Y-164949142D01*
%TO.C,P2*%
X72961904Y-146478761D02*
X73104761Y-146526380D01*
X73342857Y-146526380D01*
X73438095Y-146478761D01*
X73485714Y-146431142D01*
X73533333Y-146335904D01*
X73533333Y-146240666D01*
X73485714Y-146145428D01*
X73438095Y-146097809D01*
X73342857Y-146050190D01*
X73152380Y-146002571D01*
X73057142Y-145954952D01*
X73009523Y-145907333D01*
X72961904Y-145812095D01*
X72961904Y-145716857D01*
X73009523Y-145621619D01*
X73057142Y-145574000D01*
X73152380Y-145526380D01*
X73390476Y-145526380D01*
X73533333Y-145574000D01*
X73961904Y-146002571D02*
X74295238Y-146002571D01*
X74438095Y-146526380D02*
X73961904Y-146526380D01*
X73961904Y-145526380D01*
X74438095Y-145526380D01*
X74866666Y-146526380D02*
X74866666Y-145526380D01*
X75438095Y-146526380D01*
X75438095Y-145526380D01*
X75866666Y-146478761D02*
X76009523Y-146526380D01*
X76247619Y-146526380D01*
X76342857Y-146478761D01*
X76390476Y-146431142D01*
X76438095Y-146335904D01*
X76438095Y-146240666D01*
X76390476Y-146145428D01*
X76342857Y-146097809D01*
X76247619Y-146050190D01*
X76057142Y-146002571D01*
X75961904Y-145954952D01*
X75914285Y-145907333D01*
X75866666Y-145812095D01*
X75866666Y-145716857D01*
X75914285Y-145621619D01*
X75961904Y-145574000D01*
X76057142Y-145526380D01*
X76295238Y-145526380D01*
X76438095Y-145574000D01*
X77057142Y-145526380D02*
X77247619Y-145526380D01*
X77342857Y-145574000D01*
X77438095Y-145669238D01*
X77485714Y-145859714D01*
X77485714Y-146193047D01*
X77438095Y-146383523D01*
X77342857Y-146478761D01*
X77247619Y-146526380D01*
X77057142Y-146526380D01*
X76961904Y-146478761D01*
X76866666Y-146383523D01*
X76819047Y-146193047D01*
X76819047Y-145859714D01*
X76866666Y-145669238D01*
X76961904Y-145574000D01*
X77057142Y-145526380D01*
X78485714Y-146526380D02*
X78152380Y-146050190D01*
X77914285Y-146526380D02*
X77914285Y-145526380D01*
X78295238Y-145526380D01*
X78390476Y-145574000D01*
X78438095Y-145621619D01*
X78485714Y-145716857D01*
X78485714Y-145859714D01*
X78438095Y-145954952D01*
X78390476Y-146002571D01*
X78295238Y-146050190D01*
X77914285Y-146050190D01*
X78866666Y-146478761D02*
X79009523Y-146526380D01*
X79247619Y-146526380D01*
X79342857Y-146478761D01*
X79390476Y-146431142D01*
X79438095Y-146335904D01*
X79438095Y-146240666D01*
X79390476Y-146145428D01*
X79342857Y-146097809D01*
X79247619Y-146050190D01*
X79057142Y-146002571D01*
X78961904Y-145954952D01*
X78914285Y-145907333D01*
X78866666Y-145812095D01*
X78866666Y-145716857D01*
X78914285Y-145621619D01*
X78961904Y-145574000D01*
X79057142Y-145526380D01*
X79295238Y-145526380D01*
X79438095Y-145574000D01*
X76652380Y-153392095D02*
X75652380Y-153392095D01*
X75652380Y-153011142D01*
X75700000Y-152915904D01*
X75747619Y-152868285D01*
X75842857Y-152820666D01*
X75985714Y-152820666D01*
X76080952Y-152868285D01*
X76128571Y-152915904D01*
X76176190Y-153011142D01*
X76176190Y-153392095D01*
X75747619Y-152439714D02*
X75700000Y-152392095D01*
X75652380Y-152296857D01*
X75652380Y-152058761D01*
X75700000Y-151963523D01*
X75747619Y-151915904D01*
X75842857Y-151868285D01*
X75938095Y-151868285D01*
X76080952Y-151915904D01*
X76652380Y-152487333D01*
X76652380Y-151868285D01*
%TO.C,J1*%
X86006380Y-172306666D02*
X85530190Y-172640000D01*
X86006380Y-172878095D02*
X85006380Y-172878095D01*
X85006380Y-172497142D01*
X85054000Y-172401904D01*
X85101619Y-172354285D01*
X85196857Y-172306666D01*
X85339714Y-172306666D01*
X85434952Y-172354285D01*
X85482571Y-172401904D01*
X85530190Y-172497142D01*
X85530190Y-172878095D01*
X85482571Y-171878095D02*
X85482571Y-171544761D01*
X86006380Y-171401904D02*
X86006380Y-171878095D01*
X85006380Y-171878095D01*
X85006380Y-171401904D01*
X85958761Y-171020952D02*
X86006380Y-170878095D01*
X86006380Y-170640000D01*
X85958761Y-170544761D01*
X85911142Y-170497142D01*
X85815904Y-170449523D01*
X85720666Y-170449523D01*
X85625428Y-170497142D01*
X85577809Y-170544761D01*
X85530190Y-170640000D01*
X85482571Y-170830476D01*
X85434952Y-170925714D01*
X85387333Y-170973333D01*
X85292095Y-171020952D01*
X85196857Y-171020952D01*
X85101619Y-170973333D01*
X85054000Y-170925714D01*
X85006380Y-170830476D01*
X85006380Y-170592380D01*
X85054000Y-170449523D01*
X85482571Y-170020952D02*
X85482571Y-169687619D01*
X86006380Y-169544761D02*
X86006380Y-170020952D01*
X85006380Y-170020952D01*
X85006380Y-169544761D01*
X85006380Y-169259047D02*
X85006380Y-168687619D01*
X86006380Y-168973333D02*
X85006380Y-168973333D01*
X86101619Y-168592380D02*
X86101619Y-167830476D01*
X85482571Y-167259047D02*
X85530190Y-167116190D01*
X85577809Y-167068571D01*
X85673047Y-167020952D01*
X85815904Y-167020952D01*
X85911142Y-167068571D01*
X85958761Y-167116190D01*
X86006380Y-167211428D01*
X86006380Y-167592380D01*
X85006380Y-167592380D01*
X85006380Y-167259047D01*
X85054000Y-167163809D01*
X85101619Y-167116190D01*
X85196857Y-167068571D01*
X85292095Y-167068571D01*
X85387333Y-167116190D01*
X85434952Y-167163809D01*
X85482571Y-167259047D01*
X85482571Y-167592380D01*
X85006380Y-166592380D02*
X85815904Y-166592380D01*
X85911142Y-166544761D01*
X85958761Y-166497142D01*
X86006380Y-166401904D01*
X86006380Y-166211428D01*
X85958761Y-166116190D01*
X85911142Y-166068571D01*
X85815904Y-166020952D01*
X85006380Y-166020952D01*
X85006380Y-165687619D02*
X85006380Y-165116190D01*
X86006380Y-165401904D02*
X85006380Y-165401904D01*
X85006380Y-164925714D02*
X85006380Y-164354285D01*
X86006380Y-164640000D02*
X85006380Y-164640000D01*
X85006380Y-163830476D02*
X85006380Y-163640000D01*
X85054000Y-163544761D01*
X85149238Y-163449523D01*
X85339714Y-163401904D01*
X85673047Y-163401904D01*
X85863523Y-163449523D01*
X85958761Y-163544761D01*
X86006380Y-163640000D01*
X86006380Y-163830476D01*
X85958761Y-163925714D01*
X85863523Y-164020952D01*
X85673047Y-164068571D01*
X85339714Y-164068571D01*
X85149238Y-164020952D01*
X85054000Y-163925714D01*
X85006380Y-163830476D01*
X86006380Y-162973333D02*
X85006380Y-162973333D01*
X86006380Y-162401904D01*
X85006380Y-162401904D01*
X88606380Y-167973333D02*
X89320666Y-167973333D01*
X89463523Y-168020952D01*
X89558761Y-168116190D01*
X89606380Y-168259047D01*
X89606380Y-168354285D01*
X89606380Y-166973333D02*
X89606380Y-167544761D01*
X89606380Y-167259047D02*
X88606380Y-167259047D01*
X88749238Y-167354285D01*
X88844476Y-167449523D01*
X88892095Y-167544761D01*
%TO.C,R2*%
X87701523Y-159276380D02*
X87130095Y-159276380D01*
X87415809Y-159276380D02*
X87415809Y-158276380D01*
X87320571Y-158419238D01*
X87225333Y-158514476D01*
X87130095Y-158562095D01*
X88320571Y-158276380D02*
X88415809Y-158276380D01*
X88511047Y-158324000D01*
X88558666Y-158371619D01*
X88606285Y-158466857D01*
X88653904Y-158657333D01*
X88653904Y-158895428D01*
X88606285Y-159085904D01*
X88558666Y-159181142D01*
X88511047Y-159228761D01*
X88415809Y-159276380D01*
X88320571Y-159276380D01*
X88225333Y-159228761D01*
X88177714Y-159181142D01*
X88130095Y-159085904D01*
X88082476Y-158895428D01*
X88082476Y-158657333D01*
X88130095Y-158466857D01*
X88177714Y-158371619D01*
X88225333Y-158324000D01*
X88320571Y-158276380D01*
X89082476Y-159276380D02*
X89082476Y-158276380D01*
X89653904Y-159276380D02*
X89225333Y-158704952D01*
X89653904Y-158276380D02*
X89082476Y-158847809D01*
X88225333Y-161996380D02*
X87892000Y-161520190D01*
X87653904Y-161996380D02*
X87653904Y-160996380D01*
X88034857Y-160996380D01*
X88130095Y-161044000D01*
X88177714Y-161091619D01*
X88225333Y-161186857D01*
X88225333Y-161329714D01*
X88177714Y-161424952D01*
X88130095Y-161472571D01*
X88034857Y-161520190D01*
X87653904Y-161520190D01*
X88606285Y-161091619D02*
X88653904Y-161044000D01*
X88749142Y-160996380D01*
X88987238Y-160996380D01*
X89082476Y-161044000D01*
X89130095Y-161091619D01*
X89177714Y-161186857D01*
X89177714Y-161282095D01*
X89130095Y-161424952D01*
X88558666Y-161996380D01*
X89177714Y-161996380D01*
%TO.C,R1*%
X123674285Y-165991619D02*
X123721904Y-165944000D01*
X123817142Y-165896380D01*
X124055238Y-165896380D01*
X124150476Y-165944000D01*
X124198095Y-165991619D01*
X124245714Y-166086857D01*
X124245714Y-166182095D01*
X124198095Y-166324952D01*
X123626666Y-166896380D01*
X124245714Y-166896380D01*
X124674285Y-166896380D02*
X124674285Y-165896380D01*
X125245714Y-166896380D02*
X124817142Y-166324952D01*
X125245714Y-165896380D02*
X124674285Y-166467809D01*
X124293333Y-169616380D02*
X123960000Y-169140190D01*
X123721904Y-169616380D02*
X123721904Y-168616380D01*
X124102857Y-168616380D01*
X124198095Y-168664000D01*
X124245714Y-168711619D01*
X124293333Y-168806857D01*
X124293333Y-168949714D01*
X124245714Y-169044952D01*
X124198095Y-169092571D01*
X124102857Y-169140190D01*
X123721904Y-169140190D01*
X125245714Y-169616380D02*
X124674285Y-169616380D01*
X124960000Y-169616380D02*
X124960000Y-168616380D01*
X124864761Y-168759238D01*
X124769523Y-168854476D01*
X124674285Y-168902095D01*
%TO.C,Q3*%
X98730571Y-154511142D02*
X98778190Y-154368285D01*
X98825809Y-154320666D01*
X98921047Y-154273047D01*
X99063904Y-154273047D01*
X99159142Y-154320666D01*
X99206761Y-154368285D01*
X99254380Y-154463523D01*
X99254380Y-154844476D01*
X98254380Y-154844476D01*
X98254380Y-154511142D01*
X98302000Y-154415904D01*
X98349619Y-154368285D01*
X98444857Y-154320666D01*
X98540095Y-154320666D01*
X98635333Y-154368285D01*
X98682952Y-154415904D01*
X98730571Y-154511142D01*
X98730571Y-154844476D01*
X99159142Y-153273047D02*
X99206761Y-153320666D01*
X99254380Y-153463523D01*
X99254380Y-153558761D01*
X99206761Y-153701619D01*
X99111523Y-153796857D01*
X99016285Y-153844476D01*
X98825809Y-153892095D01*
X98682952Y-153892095D01*
X98492476Y-153844476D01*
X98397238Y-153796857D01*
X98302000Y-153701619D01*
X98254380Y-153558761D01*
X98254380Y-153463523D01*
X98302000Y-153320666D01*
X98349619Y-153273047D01*
X98254380Y-152368285D02*
X98254380Y-152844476D01*
X98730571Y-152892095D01*
X98682952Y-152844476D01*
X98635333Y-152749238D01*
X98635333Y-152511142D01*
X98682952Y-152415904D01*
X98730571Y-152368285D01*
X98825809Y-152320666D01*
X99063904Y-152320666D01*
X99159142Y-152368285D01*
X99206761Y-152415904D01*
X99254380Y-152511142D01*
X99254380Y-152749238D01*
X99206761Y-152844476D01*
X99159142Y-152892095D01*
X98587714Y-151463523D02*
X99254380Y-151463523D01*
X98206761Y-151701619D02*
X98921047Y-151939714D01*
X98921047Y-151320666D01*
X99254380Y-150892095D02*
X99254380Y-150701619D01*
X99206761Y-150606380D01*
X99159142Y-150558761D01*
X99016285Y-150463523D01*
X98825809Y-150415904D01*
X98444857Y-150415904D01*
X98349619Y-150463523D01*
X98302000Y-150511142D01*
X98254380Y-150606380D01*
X98254380Y-150796857D01*
X98302000Y-150892095D01*
X98349619Y-150939714D01*
X98444857Y-150987333D01*
X98682952Y-150987333D01*
X98778190Y-150939714D01*
X98825809Y-150892095D01*
X98873428Y-150796857D01*
X98873428Y-150606380D01*
X98825809Y-150511142D01*
X98778190Y-150463523D01*
X98682952Y-150415904D01*
X92999619Y-152749238D02*
X92952000Y-152844476D01*
X92856761Y-152939714D01*
X92713904Y-153082571D01*
X92666285Y-153177809D01*
X92666285Y-153273047D01*
X92904380Y-153225428D02*
X92856761Y-153320666D01*
X92761523Y-153415904D01*
X92571047Y-153463523D01*
X92237714Y-153463523D01*
X92047238Y-153415904D01*
X91952000Y-153320666D01*
X91904380Y-153225428D01*
X91904380Y-153034952D01*
X91952000Y-152939714D01*
X92047238Y-152844476D01*
X92237714Y-152796857D01*
X92571047Y-152796857D01*
X92761523Y-152844476D01*
X92856761Y-152939714D01*
X92904380Y-153034952D01*
X92904380Y-153225428D01*
X91904380Y-152463523D02*
X91904380Y-151844476D01*
X92285333Y-152177809D01*
X92285333Y-152034952D01*
X92332952Y-151939714D01*
X92380571Y-151892095D01*
X92475809Y-151844476D01*
X92713904Y-151844476D01*
X92809142Y-151892095D01*
X92856761Y-151939714D01*
X92904380Y-152034952D01*
X92904380Y-152320666D01*
X92856761Y-152415904D01*
X92809142Y-152463523D01*
%TO.C,Q2*%
X90094571Y-145875142D02*
X90142190Y-145732285D01*
X90189809Y-145684666D01*
X90285047Y-145637047D01*
X90427904Y-145637047D01*
X90523142Y-145684666D01*
X90570761Y-145732285D01*
X90618380Y-145827523D01*
X90618380Y-146208476D01*
X89618380Y-146208476D01*
X89618380Y-145875142D01*
X89666000Y-145779904D01*
X89713619Y-145732285D01*
X89808857Y-145684666D01*
X89904095Y-145684666D01*
X89999333Y-145732285D01*
X90046952Y-145779904D01*
X90094571Y-145875142D01*
X90094571Y-146208476D01*
X90523142Y-144637047D02*
X90570761Y-144684666D01*
X90618380Y-144827523D01*
X90618380Y-144922761D01*
X90570761Y-145065619D01*
X90475523Y-145160857D01*
X90380285Y-145208476D01*
X90189809Y-145256095D01*
X90046952Y-145256095D01*
X89856476Y-145208476D01*
X89761238Y-145160857D01*
X89666000Y-145065619D01*
X89618380Y-144922761D01*
X89618380Y-144827523D01*
X89666000Y-144684666D01*
X89713619Y-144637047D01*
X89618380Y-143732285D02*
X89618380Y-144208476D01*
X90094571Y-144256095D01*
X90046952Y-144208476D01*
X89999333Y-144113238D01*
X89999333Y-143875142D01*
X90046952Y-143779904D01*
X90094571Y-143732285D01*
X90189809Y-143684666D01*
X90427904Y-143684666D01*
X90523142Y-143732285D01*
X90570761Y-143779904D01*
X90618380Y-143875142D01*
X90618380Y-144113238D01*
X90570761Y-144208476D01*
X90523142Y-144256095D01*
X89951714Y-142827523D02*
X90618380Y-142827523D01*
X89570761Y-143065619D02*
X90285047Y-143303714D01*
X90285047Y-142684666D01*
X90618380Y-142256095D02*
X90618380Y-142065619D01*
X90570761Y-141970380D01*
X90523142Y-141922761D01*
X90380285Y-141827523D01*
X90189809Y-141779904D01*
X89808857Y-141779904D01*
X89713619Y-141827523D01*
X89666000Y-141875142D01*
X89618380Y-141970380D01*
X89618380Y-142160857D01*
X89666000Y-142256095D01*
X89713619Y-142303714D01*
X89808857Y-142351333D01*
X90046952Y-142351333D01*
X90142190Y-142303714D01*
X90189809Y-142256095D01*
X90237428Y-142160857D01*
X90237428Y-141970380D01*
X90189809Y-141875142D01*
X90142190Y-141827523D01*
X90046952Y-141779904D01*
X84363619Y-144113238D02*
X84316000Y-144208476D01*
X84220761Y-144303714D01*
X84077904Y-144446571D01*
X84030285Y-144541809D01*
X84030285Y-144637047D01*
X84268380Y-144589428D02*
X84220761Y-144684666D01*
X84125523Y-144779904D01*
X83935047Y-144827523D01*
X83601714Y-144827523D01*
X83411238Y-144779904D01*
X83316000Y-144684666D01*
X83268380Y-144589428D01*
X83268380Y-144398952D01*
X83316000Y-144303714D01*
X83411238Y-144208476D01*
X83601714Y-144160857D01*
X83935047Y-144160857D01*
X84125523Y-144208476D01*
X84220761Y-144303714D01*
X84268380Y-144398952D01*
X84268380Y-144589428D01*
X83363619Y-143779904D02*
X83316000Y-143732285D01*
X83268380Y-143637047D01*
X83268380Y-143398952D01*
X83316000Y-143303714D01*
X83363619Y-143256095D01*
X83458857Y-143208476D01*
X83554095Y-143208476D01*
X83696952Y-143256095D01*
X84268380Y-143827523D01*
X84268380Y-143208476D01*
%TO.C,Q1*%
X90094571Y-154511142D02*
X90142190Y-154368285D01*
X90189809Y-154320666D01*
X90285047Y-154273047D01*
X90427904Y-154273047D01*
X90523142Y-154320666D01*
X90570761Y-154368285D01*
X90618380Y-154463523D01*
X90618380Y-154844476D01*
X89618380Y-154844476D01*
X89618380Y-154511142D01*
X89666000Y-154415904D01*
X89713619Y-154368285D01*
X89808857Y-154320666D01*
X89904095Y-154320666D01*
X89999333Y-154368285D01*
X90046952Y-154415904D01*
X90094571Y-154511142D01*
X90094571Y-154844476D01*
X90523142Y-153273047D02*
X90570761Y-153320666D01*
X90618380Y-153463523D01*
X90618380Y-153558761D01*
X90570761Y-153701619D01*
X90475523Y-153796857D01*
X90380285Y-153844476D01*
X90189809Y-153892095D01*
X90046952Y-153892095D01*
X89856476Y-153844476D01*
X89761238Y-153796857D01*
X89666000Y-153701619D01*
X89618380Y-153558761D01*
X89618380Y-153463523D01*
X89666000Y-153320666D01*
X89713619Y-153273047D01*
X89618380Y-152368285D02*
X89618380Y-152844476D01*
X90094571Y-152892095D01*
X90046952Y-152844476D01*
X89999333Y-152749238D01*
X89999333Y-152511142D01*
X90046952Y-152415904D01*
X90094571Y-152368285D01*
X90189809Y-152320666D01*
X90427904Y-152320666D01*
X90523142Y-152368285D01*
X90570761Y-152415904D01*
X90618380Y-152511142D01*
X90618380Y-152749238D01*
X90570761Y-152844476D01*
X90523142Y-152892095D01*
X89951714Y-151463523D02*
X90618380Y-151463523D01*
X89570761Y-151701619D02*
X90285047Y-151939714D01*
X90285047Y-151320666D01*
X90618380Y-150892095D02*
X90618380Y-150701619D01*
X90570761Y-150606380D01*
X90523142Y-150558761D01*
X90380285Y-150463523D01*
X90189809Y-150415904D01*
X89808857Y-150415904D01*
X89713619Y-150463523D01*
X89666000Y-150511142D01*
X89618380Y-150606380D01*
X89618380Y-150796857D01*
X89666000Y-150892095D01*
X89713619Y-150939714D01*
X89808857Y-150987333D01*
X90046952Y-150987333D01*
X90142190Y-150939714D01*
X90189809Y-150892095D01*
X90237428Y-150796857D01*
X90237428Y-150606380D01*
X90189809Y-150511142D01*
X90142190Y-150463523D01*
X90046952Y-150415904D01*
X84363619Y-152749238D02*
X84316000Y-152844476D01*
X84220761Y-152939714D01*
X84077904Y-153082571D01*
X84030285Y-153177809D01*
X84030285Y-153273047D01*
X84268380Y-153225428D02*
X84220761Y-153320666D01*
X84125523Y-153415904D01*
X83935047Y-153463523D01*
X83601714Y-153463523D01*
X83411238Y-153415904D01*
X83316000Y-153320666D01*
X83268380Y-153225428D01*
X83268380Y-153034952D01*
X83316000Y-152939714D01*
X83411238Y-152844476D01*
X83601714Y-152796857D01*
X83935047Y-152796857D01*
X84125523Y-152844476D01*
X84220761Y-152939714D01*
X84268380Y-153034952D01*
X84268380Y-153225428D01*
X84268380Y-151844476D02*
X84268380Y-152415904D01*
X84268380Y-152130190D02*
X83268380Y-152130190D01*
X83411238Y-152225428D01*
X83506476Y-152320666D01*
X83554095Y-152415904D01*
%TO.C,IC1*%
X138640666Y-162345047D02*
X138640666Y-161868857D01*
X138926380Y-162440285D02*
X137926380Y-162106952D01*
X138926380Y-161773619D01*
X137926380Y-161583142D02*
X137926380Y-161011714D01*
X138926380Y-161297428D02*
X137926380Y-161297428D01*
X138926380Y-160678380D02*
X137926380Y-160678380D01*
X138640666Y-160345047D01*
X137926380Y-160011714D01*
X138926380Y-160011714D01*
X138402571Y-159535523D02*
X138402571Y-159202190D01*
X138926380Y-159059333D02*
X138926380Y-159535523D01*
X137926380Y-159535523D01*
X137926380Y-159059333D01*
X137974000Y-158106952D02*
X137926380Y-158202190D01*
X137926380Y-158345047D01*
X137974000Y-158487904D01*
X138069238Y-158583142D01*
X138164476Y-158630761D01*
X138354952Y-158678380D01*
X138497809Y-158678380D01*
X138688285Y-158630761D01*
X138783523Y-158583142D01*
X138878761Y-158487904D01*
X138926380Y-158345047D01*
X138926380Y-158249809D01*
X138878761Y-158106952D01*
X138831142Y-158059333D01*
X138497809Y-158059333D01*
X138497809Y-158249809D01*
X138640666Y-157678380D02*
X138640666Y-157202190D01*
X138926380Y-157773619D02*
X137926380Y-157440285D01*
X138926380Y-157106952D01*
X137926380Y-156868857D02*
X137926380Y-156249809D01*
X138307333Y-156583142D01*
X138307333Y-156440285D01*
X138354952Y-156345047D01*
X138402571Y-156297428D01*
X138497809Y-156249809D01*
X138735904Y-156249809D01*
X138831142Y-156297428D01*
X138878761Y-156345047D01*
X138926380Y-156440285D01*
X138926380Y-156726000D01*
X138878761Y-156821238D01*
X138831142Y-156868857D01*
X138021619Y-155868857D02*
X137974000Y-155821238D01*
X137926380Y-155726000D01*
X137926380Y-155487904D01*
X137974000Y-155392666D01*
X138021619Y-155345047D01*
X138116857Y-155297428D01*
X138212095Y-155297428D01*
X138354952Y-155345047D01*
X138926380Y-155916476D01*
X138926380Y-155297428D01*
X138354952Y-154726000D02*
X138307333Y-154821238D01*
X138259714Y-154868857D01*
X138164476Y-154916476D01*
X138116857Y-154916476D01*
X138021619Y-154868857D01*
X137974000Y-154821238D01*
X137926380Y-154726000D01*
X137926380Y-154535523D01*
X137974000Y-154440285D01*
X138021619Y-154392666D01*
X138116857Y-154345047D01*
X138164476Y-154345047D01*
X138259714Y-154392666D01*
X138307333Y-154440285D01*
X138354952Y-154535523D01*
X138354952Y-154726000D01*
X138402571Y-154821238D01*
X138450190Y-154868857D01*
X138545428Y-154916476D01*
X138735904Y-154916476D01*
X138831142Y-154868857D01*
X138878761Y-154821238D01*
X138926380Y-154726000D01*
X138926380Y-154535523D01*
X138878761Y-154440285D01*
X138831142Y-154392666D01*
X138735904Y-154345047D01*
X138545428Y-154345047D01*
X138450190Y-154392666D01*
X138402571Y-154440285D01*
X138354952Y-154535523D01*
X138545428Y-153916476D02*
X138545428Y-153154571D01*
X138926380Y-152678380D02*
X137926380Y-152678380D01*
X137926380Y-152297428D01*
X137974000Y-152202190D01*
X138021619Y-152154571D01*
X138116857Y-152106952D01*
X138259714Y-152106952D01*
X138354952Y-152154571D01*
X138402571Y-152202190D01*
X138450190Y-152297428D01*
X138450190Y-152678380D01*
X120086380Y-158202190D02*
X119086380Y-158202190D01*
X119991142Y-157154571D02*
X120038761Y-157202190D01*
X120086380Y-157345047D01*
X120086380Y-157440285D01*
X120038761Y-157583142D01*
X119943523Y-157678380D01*
X119848285Y-157726000D01*
X119657809Y-157773619D01*
X119514952Y-157773619D01*
X119324476Y-157726000D01*
X119229238Y-157678380D01*
X119134000Y-157583142D01*
X119086380Y-157440285D01*
X119086380Y-157345047D01*
X119134000Y-157202190D01*
X119181619Y-157154571D01*
X120086380Y-156202190D02*
X120086380Y-156773619D01*
X120086380Y-156487904D02*
X119086380Y-156487904D01*
X119229238Y-156583142D01*
X119324476Y-156678380D01*
X119372095Y-156773619D01*
%TO.C,D4*%
X133596095Y-146678380D02*
X133596095Y-145678380D01*
X133834190Y-145678380D01*
X133977047Y-145726000D01*
X134072285Y-145821238D01*
X134119904Y-145916476D01*
X134167523Y-146106952D01*
X134167523Y-146249809D01*
X134119904Y-146440285D01*
X134072285Y-146535523D01*
X133977047Y-146630761D01*
X133834190Y-146678380D01*
X133596095Y-146678380D01*
X127246095Y-141308380D02*
X127246095Y-140308380D01*
X127817523Y-141308380D02*
X127388952Y-140736952D01*
X127817523Y-140308380D02*
X127246095Y-140879809D01*
X133787404Y-143708380D02*
X133787404Y-142708380D01*
X134025500Y-142708380D01*
X134168357Y-142756000D01*
X134263595Y-142851238D01*
X134311214Y-142946476D01*
X134358833Y-143136952D01*
X134358833Y-143279809D01*
X134311214Y-143470285D01*
X134263595Y-143565523D01*
X134168357Y-143660761D01*
X134025500Y-143708380D01*
X133787404Y-143708380D01*
X135215976Y-143041714D02*
X135215976Y-143708380D01*
X134977880Y-142660761D02*
X134739785Y-143375047D01*
X135358833Y-143375047D01*
%TO.C,D3*%
X129532095Y-152266380D02*
X129532095Y-151266380D01*
X129770190Y-151266380D01*
X129913047Y-151314000D01*
X130008285Y-151409238D01*
X130055904Y-151504476D01*
X130103523Y-151694952D01*
X130103523Y-151837809D01*
X130055904Y-152028285D01*
X130008285Y-152123523D01*
X129913047Y-152218761D01*
X129770190Y-152266380D01*
X129532095Y-152266380D01*
X123182095Y-146896380D02*
X123182095Y-145896380D01*
X123753523Y-146896380D02*
X123324952Y-146324952D01*
X123753523Y-145896380D02*
X123182095Y-146467809D01*
X129723404Y-149296380D02*
X129723404Y-148296380D01*
X129961500Y-148296380D01*
X130104357Y-148344000D01*
X130199595Y-148439238D01*
X130247214Y-148534476D01*
X130294833Y-148724952D01*
X130294833Y-148867809D01*
X130247214Y-149058285D01*
X130199595Y-149153523D01*
X130104357Y-149248761D01*
X129961500Y-149296380D01*
X129723404Y-149296380D01*
X130628166Y-148296380D02*
X131247214Y-148296380D01*
X130913880Y-148677333D01*
X131056738Y-148677333D01*
X131151976Y-148724952D01*
X131199595Y-148772571D01*
X131247214Y-148867809D01*
X131247214Y-149105904D01*
X131199595Y-149201142D01*
X131151976Y-149248761D01*
X131056738Y-149296380D01*
X130771023Y-149296380D01*
X130675785Y-149248761D01*
X130628166Y-149201142D01*
%TO.C,D2*%
X143786380Y-152915904D02*
X142786380Y-152915904D01*
X142786380Y-152677809D01*
X142834000Y-152534952D01*
X142929238Y-152439714D01*
X143024476Y-152392095D01*
X143214952Y-152344476D01*
X143357809Y-152344476D01*
X143548285Y-152392095D01*
X143643523Y-152439714D01*
X143738761Y-152534952D01*
X143786380Y-152677809D01*
X143786380Y-152915904D01*
X149156380Y-146565904D02*
X148156380Y-146565904D01*
X149156380Y-145994476D02*
X148584952Y-146423047D01*
X148156380Y-145994476D02*
X148727809Y-146565904D01*
X146756380Y-154059595D02*
X145756380Y-154059595D01*
X145756380Y-153821500D01*
X145804000Y-153678642D01*
X145899238Y-153583404D01*
X145994476Y-153535785D01*
X146184952Y-153488166D01*
X146327809Y-153488166D01*
X146518285Y-153535785D01*
X146613523Y-153583404D01*
X146708761Y-153678642D01*
X146756380Y-153821500D01*
X146756380Y-154059595D01*
X145851619Y-153107214D02*
X145804000Y-153059595D01*
X145756380Y-152964357D01*
X145756380Y-152726261D01*
X145804000Y-152631023D01*
X145851619Y-152583404D01*
X145946857Y-152535785D01*
X146042095Y-152535785D01*
X146184952Y-152583404D01*
X146756380Y-153154833D01*
X146756380Y-152535785D01*
%TO.C,D1*%
X138295142Y-165640380D02*
X137818952Y-165640380D01*
X137818952Y-164640380D01*
X138628476Y-165116571D02*
X138961809Y-165116571D01*
X139104666Y-165640380D02*
X138628476Y-165640380D01*
X138628476Y-164640380D01*
X139104666Y-164640380D01*
X139533238Y-165640380D02*
X139533238Y-164640380D01*
X139771333Y-164640380D01*
X139914190Y-164688000D01*
X140009428Y-164783238D01*
X140057047Y-164878476D01*
X140104666Y-165068952D01*
X140104666Y-165211809D01*
X140057047Y-165402285D01*
X140009428Y-165497523D01*
X139914190Y-165592761D01*
X139771333Y-165640380D01*
X139533238Y-165640380D01*
%TO.C,P1*%
X148252476Y-171828380D02*
X148252476Y-170828380D01*
X148633428Y-170828380D01*
X148728666Y-170876000D01*
X148776285Y-170923619D01*
X148823904Y-171018857D01*
X148823904Y-171161714D01*
X148776285Y-171256952D01*
X148728666Y-171304571D01*
X148633428Y-171352190D01*
X148252476Y-171352190D01*
X149442952Y-170828380D02*
X149633428Y-170828380D01*
X149728666Y-170876000D01*
X149823904Y-170971238D01*
X149871523Y-171161714D01*
X149871523Y-171495047D01*
X149823904Y-171685523D01*
X149728666Y-171780761D01*
X149633428Y-171828380D01*
X149442952Y-171828380D01*
X149347714Y-171780761D01*
X149252476Y-171685523D01*
X149204857Y-171495047D01*
X149204857Y-171161714D01*
X149252476Y-170971238D01*
X149347714Y-170876000D01*
X149442952Y-170828380D01*
X150204857Y-170828380D02*
X150442952Y-171828380D01*
X150633428Y-171114095D01*
X150823904Y-171828380D01*
X151062000Y-170828380D01*
X151442952Y-171304571D02*
X151776285Y-171304571D01*
X151919142Y-171828380D02*
X151442952Y-171828380D01*
X151442952Y-170828380D01*
X151919142Y-170828380D01*
X152919142Y-171828380D02*
X152585809Y-171352190D01*
X152347714Y-171828380D02*
X152347714Y-170828380D01*
X152728666Y-170828380D01*
X152823904Y-170876000D01*
X152871523Y-170923619D01*
X152919142Y-171018857D01*
X152919142Y-171161714D01*
X152871523Y-171256952D01*
X152823904Y-171304571D01*
X152728666Y-171352190D01*
X152347714Y-171352190D01*
X149823904Y-169928380D02*
X149823904Y-168928380D01*
X150204857Y-168928380D01*
X150300095Y-168976000D01*
X150347714Y-169023619D01*
X150395333Y-169118857D01*
X150395333Y-169261714D01*
X150347714Y-169356952D01*
X150300095Y-169404571D01*
X150204857Y-169452190D01*
X149823904Y-169452190D01*
X151347714Y-169928380D02*
X150776285Y-169928380D01*
X151062000Y-169928380D02*
X151062000Y-168928380D01*
X150966761Y-169071238D01*
X150871523Y-169166476D01*
X150776285Y-169214095D01*
%TO.C,R3*%
X105989523Y-140988380D02*
X105418095Y-140988380D01*
X105703809Y-140988380D02*
X105703809Y-139988380D01*
X105608571Y-140131238D01*
X105513333Y-140226476D01*
X105418095Y-140274095D01*
X106608571Y-139988380D02*
X106703809Y-139988380D01*
X106799047Y-140036000D01*
X106846666Y-140083619D01*
X106894285Y-140178857D01*
X106941904Y-140369333D01*
X106941904Y-140607428D01*
X106894285Y-140797904D01*
X106846666Y-140893142D01*
X106799047Y-140940761D01*
X106703809Y-140988380D01*
X106608571Y-140988380D01*
X106513333Y-140940761D01*
X106465714Y-140893142D01*
X106418095Y-140797904D01*
X106370476Y-140607428D01*
X106370476Y-140369333D01*
X106418095Y-140178857D01*
X106465714Y-140083619D01*
X106513333Y-140036000D01*
X106608571Y-139988380D01*
X107370476Y-140988380D02*
X107370476Y-139988380D01*
X107941904Y-140988380D02*
X107513333Y-140416952D01*
X107941904Y-139988380D02*
X107370476Y-140559809D01*
X106513333Y-143708380D02*
X106180000Y-143232190D01*
X105941904Y-143708380D02*
X105941904Y-142708380D01*
X106322857Y-142708380D01*
X106418095Y-142756000D01*
X106465714Y-142803619D01*
X106513333Y-142898857D01*
X106513333Y-143041714D01*
X106465714Y-143136952D01*
X106418095Y-143184571D01*
X106322857Y-143232190D01*
X105941904Y-143232190D01*
X106846666Y-142708380D02*
X107465714Y-142708380D01*
X107132380Y-143089333D01*
X107275238Y-143089333D01*
X107370476Y-143136952D01*
X107418095Y-143184571D01*
X107465714Y-143279809D01*
X107465714Y-143517904D01*
X107418095Y-143613142D01*
X107370476Y-143660761D01*
X107275238Y-143708380D01*
X106989523Y-143708380D01*
X106894285Y-143660761D01*
X106846666Y-143613142D01*
%TD*%
M02*
