%TF.GenerationSoftware,KiCad,Pcbnew,5.1.6-c6e7f7d~86~ubuntu16.04.1*%
%TF.CreationDate,2020-06-21T16:49:51-03:00*%
%TF.ProjectId,coolercontroller,636f6f6c-6572-4636-9f6e-74726f6c6c65,rev?*%
%TF.SameCoordinates,Original*%
%TF.FileFunction,Copper,L1,Top*%
%TF.FilePolarity,Positive*%
%FSLAX46Y46*%
G04 Gerber Fmt 4.6, Leading zero omitted, Abs format (unit mm)*
G04 Created by KiCad (PCBNEW 5.1.6-c6e7f7d~86~ubuntu16.04.1) date 2020-06-21 16:49:51*
%MOMM*%
%LPD*%
G01*
G04 APERTURE LIST*
%TA.AperFunction,ComponentPad*%
%ADD10O,2.190000X1.740000*%
%TD*%
%TA.AperFunction,ComponentPad*%
%ADD11O,1.700000X1.700000*%
%TD*%
%TA.AperFunction,ComponentPad*%
%ADD12R,1.700000X1.700000*%
%TD*%
%TA.AperFunction,ComponentPad*%
%ADD13O,1.600000X1.600000*%
%TD*%
%TA.AperFunction,ComponentPad*%
%ADD14C,1.600000*%
%TD*%
%TA.AperFunction,ComponentPad*%
%ADD15R,1.500000X1.050000*%
%TD*%
%TA.AperFunction,ComponentPad*%
%ADD16O,1.500000X1.050000*%
%TD*%
%TA.AperFunction,ComponentPad*%
%ADD17R,1.600000X1.600000*%
%TD*%
%TA.AperFunction,ComponentPad*%
%ADD18O,2.800000X2.800000*%
%TD*%
%TA.AperFunction,ComponentPad*%
%ADD19R,2.800000X2.800000*%
%TD*%
%TA.AperFunction,ComponentPad*%
%ADD20C,1.800000*%
%TD*%
%TA.AperFunction,ComponentPad*%
%ADD21R,1.800000X1.800000*%
%TD*%
%TA.AperFunction,ComponentPad*%
%ADD22O,1.700000X1.850000*%
%TD*%
%TA.AperFunction,ViaPad*%
%ADD23C,0.800000*%
%TD*%
%TA.AperFunction,Conductor*%
%ADD24C,0.250000*%
%TD*%
%TA.AperFunction,Conductor*%
%ADD25C,0.254000*%
%TD*%
G04 APERTURE END LIST*
D10*
%TO.P,P6,2*%
%TO.N,Net-(D4-Pad2)*%
X153924000Y-142240000D03*
%TO.P,P6,1*%
%TO.N,+12V*%
%TA.AperFunction,ComponentPad*%
G36*
G01*
X154769001Y-145650000D02*
X153078999Y-145650000D01*
G75*
G02*
X152829000Y-145400001I0J249999D01*
G01*
X152829000Y-144159999D01*
G75*
G02*
X153078999Y-143910000I249999J0D01*
G01*
X154769001Y-143910000D01*
G75*
G02*
X155019000Y-144159999I0J-249999D01*
G01*
X155019000Y-145400001D01*
G75*
G02*
X154769001Y-145650000I-249999J0D01*
G01*
G37*
%TD.AperFunction*%
%TD*%
%TO.P,P5,2*%
%TO.N,Net-(D3-Pad2)*%
X153924000Y-149352000D03*
%TO.P,P5,1*%
%TO.N,+12V*%
%TA.AperFunction,ComponentPad*%
G36*
G01*
X154769001Y-152762000D02*
X153078999Y-152762000D01*
G75*
G02*
X152829000Y-152512001I0J249999D01*
G01*
X152829000Y-151271999D01*
G75*
G02*
X153078999Y-151022000I249999J0D01*
G01*
X154769001Y-151022000D01*
G75*
G02*
X155019000Y-151271999I0J-249999D01*
G01*
X155019000Y-152512001D01*
G75*
G02*
X154769001Y-152762000I-249999J0D01*
G01*
G37*
%TD.AperFunction*%
%TD*%
%TO.P,P4,2*%
%TO.N,Net-(D2-Pad2)*%
X153924000Y-156464000D03*
%TO.P,P4,1*%
%TO.N,+12V*%
%TA.AperFunction,ComponentPad*%
G36*
G01*
X154769001Y-159874000D02*
X153078999Y-159874000D01*
G75*
G02*
X152829000Y-159624001I0J249999D01*
G01*
X152829000Y-158383999D01*
G75*
G02*
X153078999Y-158134000I249999J0D01*
G01*
X154769001Y-158134000D01*
G75*
G02*
X155019000Y-158383999I0J-249999D01*
G01*
X155019000Y-159624001D01*
G75*
G02*
X154769001Y-159874000I-249999J0D01*
G01*
G37*
%TD.AperFunction*%
%TD*%
D11*
%TO.P,P3,4*%
%TO.N,GND*%
X110744000Y-164592000D03*
%TO.P,P3,3*%
%TO.N,Net-(IC1-Pad2)*%
X108204000Y-164592000D03*
%TO.P,P3,2*%
%TO.N,Net-(IC1-Pad3)*%
X105664000Y-164592000D03*
D12*
%TO.P,P3,1*%
%TO.N,VCC*%
X103124000Y-164592000D03*
%TD*%
D11*
%TO.P,P2,4*%
%TO.N,GND*%
X76200000Y-148844000D03*
%TO.P,P2,3*%
%TO.N,Net-(IC1-Pad14)*%
X76200000Y-151384000D03*
%TO.P,P2,2*%
%TO.N,Net-(IC1-Pad13)*%
X76200000Y-153924000D03*
D12*
%TO.P,P2,1*%
%TO.N,VCC*%
X76200000Y-156464000D03*
%TD*%
D11*
%TO.P,J1,2*%
%TO.N,GND*%
X87884000Y-167640000D03*
D12*
%TO.P,J1,1*%
%TO.N,Net-(IC1-Pad1)*%
X90424000Y-167640000D03*
%TD*%
D13*
%TO.P,R2,2*%
%TO.N,VCC*%
X80772000Y-161544000D03*
D14*
%TO.P,R2,1*%
%TO.N,Net-(IC1-Pad1)*%
X96012000Y-161544000D03*
%TD*%
D13*
%TO.P,R1,2*%
%TO.N,GND*%
X116840000Y-169164000D03*
D14*
%TO.P,R1,1*%
%TO.N,Net-(D1-Pad2)*%
X132080000Y-169164000D03*
%TD*%
D15*
%TO.P,Q3,1*%
%TO.N,Net-(D4-Pad2)*%
X96012000Y-153924000D03*
D16*
%TO.P,Q3,3*%
%TO.N,GND*%
X96012000Y-151384000D03*
%TO.P,Q3,2*%
%TO.N,Net-(Q1-Pad2)*%
X96012000Y-152654000D03*
%TD*%
D15*
%TO.P,Q2,1*%
%TO.N,Net-(D3-Pad2)*%
X87376000Y-145288000D03*
D16*
%TO.P,Q2,3*%
%TO.N,GND*%
X87376000Y-142748000D03*
%TO.P,Q2,2*%
%TO.N,Net-(Q1-Pad2)*%
X87376000Y-144018000D03*
%TD*%
D15*
%TO.P,Q1,1*%
%TO.N,Net-(D2-Pad2)*%
X87376000Y-153924000D03*
D16*
%TO.P,Q1,3*%
%TO.N,GND*%
X87376000Y-151384000D03*
%TO.P,Q1,2*%
%TO.N,Net-(Q1-Pad2)*%
X87376000Y-152654000D03*
%TD*%
D13*
%TO.P,IC1,28*%
%TO.N,Net-(IC1-Pad28)*%
X103124000Y-153416000D03*
%TO.P,IC1,14*%
%TO.N,Net-(IC1-Pad14)*%
X136144000Y-161036000D03*
%TO.P,IC1,27*%
%TO.N,Net-(IC1-Pad27)*%
X105664000Y-153416000D03*
%TO.P,IC1,13*%
%TO.N,Net-(IC1-Pad13)*%
X133604000Y-161036000D03*
%TO.P,IC1,26*%
%TO.N,Net-(IC1-Pad26)*%
X108204000Y-153416000D03*
%TO.P,IC1,12*%
%TO.N,Net-(IC1-Pad12)*%
X131064000Y-161036000D03*
%TO.P,IC1,25*%
%TO.N,Net-(IC1-Pad25)*%
X110744000Y-153416000D03*
%TO.P,IC1,11*%
%TO.N,Net-(IC1-Pad11)*%
X128524000Y-161036000D03*
%TO.P,IC1,24*%
%TO.N,Net-(IC1-Pad24)*%
X113284000Y-153416000D03*
%TO.P,IC1,10*%
%TO.N,Net-(IC1-Pad10)*%
X125984000Y-161036000D03*
%TO.P,IC1,23*%
%TO.N,Net-(IC1-Pad23)*%
X115824000Y-153416000D03*
%TO.P,IC1,9*%
%TO.N,Net-(IC1-Pad9)*%
X123444000Y-161036000D03*
%TO.P,IC1,22*%
%TO.N,GND*%
X118364000Y-153416000D03*
%TO.P,IC1,8*%
X120904000Y-161036000D03*
%TO.P,IC1,21*%
%TO.N,Net-(IC1-Pad21)*%
X120904000Y-153416000D03*
%TO.P,IC1,7*%
%TO.N,VCC*%
X118364000Y-161036000D03*
%TO.P,IC1,20*%
%TO.N,Net-(IC1-Pad20)*%
X123444000Y-153416000D03*
%TO.P,IC1,6*%
%TO.N,Net-(IC1-Pad6)*%
X115824000Y-161036000D03*
%TO.P,IC1,19*%
%TO.N,Net-(IC1-Pad19)*%
X125984000Y-153416000D03*
%TO.P,IC1,5*%
%TO.N,Net-(IC1-Pad5)*%
X113284000Y-161036000D03*
%TO.P,IC1,18*%
%TO.N,Net-(IC1-Pad18)*%
X128524000Y-153416000D03*
%TO.P,IC1,4*%
%TO.N,Net-(IC1-Pad4)*%
X110744000Y-161036000D03*
%TO.P,IC1,17*%
%TO.N,Net-(IC1-Pad17)*%
X131064000Y-153416000D03*
%TO.P,IC1,3*%
%TO.N,Net-(IC1-Pad3)*%
X108204000Y-161036000D03*
%TO.P,IC1,16*%
%TO.N,Net-(IC1-Pad16)*%
X133604000Y-153416000D03*
%TO.P,IC1,2*%
%TO.N,Net-(IC1-Pad2)*%
X105664000Y-161036000D03*
%TO.P,IC1,15*%
%TO.N,Net-(IC1-Pad15)*%
X136144000Y-153416000D03*
D17*
%TO.P,IC1,1*%
%TO.N,Net-(IC1-Pad1)*%
X103124000Y-161036000D03*
%TD*%
D18*
%TO.P,D4,2*%
%TO.N,Net-(D4-Pad2)*%
X140208000Y-143256000D03*
D19*
%TO.P,D4,1*%
%TO.N,+12V*%
X127508000Y-143256000D03*
%TD*%
D18*
%TO.P,D3,2*%
%TO.N,Net-(D3-Pad2)*%
X136144000Y-148844000D03*
D19*
%TO.P,D3,1*%
%TO.N,+12V*%
X123444000Y-148844000D03*
%TD*%
D18*
%TO.P,D2,2*%
%TO.N,Net-(D2-Pad2)*%
X146304000Y-159004000D03*
D19*
%TO.P,D2,1*%
%TO.N,+12V*%
X146304000Y-146304000D03*
%TD*%
D20*
%TO.P,D1,2*%
%TO.N,Net-(D1-Pad2)*%
X137668000Y-168148000D03*
D21*
%TO.P,D1,1*%
%TO.N,VCC*%
X140208000Y-168148000D03*
%TD*%
%TO.P,P1,1*%
%TO.N,VCC*%
%TA.AperFunction,ComponentPad*%
G36*
G01*
X145962000Y-164251000D02*
X145962000Y-162901000D01*
G75*
G02*
X146212000Y-162651000I250000J0D01*
G01*
X147412000Y-162651000D01*
G75*
G02*
X147662000Y-162901000I0J-250000D01*
G01*
X147662000Y-164251000D01*
G75*
G02*
X147412000Y-164501000I-250000J0D01*
G01*
X146212000Y-164501000D01*
G75*
G02*
X145962000Y-164251000I0J250000D01*
G01*
G37*
%TD.AperFunction*%
D22*
%TO.P,P1,2*%
%TO.N,GND*%
X149312000Y-163576000D03*
%TO.P,P1,3*%
X151812000Y-163576000D03*
%TO.P,P1,4*%
%TO.N,+12V*%
X154312000Y-163576000D03*
%TD*%
D14*
%TO.P,R3,1*%
%TO.N,Net-(IC1-Pad17)*%
X116840000Y-143256000D03*
D13*
%TO.P,R3,2*%
%TO.N,Net-(Q1-Pad2)*%
X96520000Y-143256000D03*
%TD*%
D23*
%TO.N,VCC*%
X103124000Y-167132000D03*
X119888000Y-165608000D03*
X114817001Y-165598999D03*
X108712000Y-168656000D03*
%TO.N,Net-(D3-Pad2)*%
X122936000Y-143764000D03*
X96012000Y-147828000D03*
%TO.N,Net-(D4-Pad2)*%
X91440000Y-153924000D03*
X91440000Y-142240000D03*
%TO.N,GND*%
X102616000Y-151384000D03*
X99060000Y-151384000D03*
%TO.N,Net-(IC1-Pad2)*%
X101092000Y-168148000D03*
X97536000Y-167640000D03*
%TD*%
D24*
%TO.N,Net-(D1-Pad2)*%
X136652000Y-169164000D02*
X137668000Y-168148000D01*
X132080000Y-169164000D02*
X136652000Y-169164000D01*
%TO.N,VCC*%
X76200000Y-156972000D02*
X76200000Y-156464000D01*
X80772000Y-161544000D02*
X76200000Y-156972000D01*
X98600999Y-169115001D02*
X103124000Y-164592000D01*
X87175999Y-169115001D02*
X98600999Y-169115001D01*
X80772000Y-162711002D02*
X87175999Y-169115001D01*
X80772000Y-161544000D02*
X80772000Y-162711002D01*
X142240000Y-168148000D02*
X146812000Y-163576000D01*
X140208000Y-168148000D02*
X142240000Y-168148000D01*
X103124000Y-164592000D02*
X103124000Y-166624000D01*
X103124000Y-167132000D02*
X103389990Y-167397990D01*
X103124000Y-166624000D02*
X103124000Y-167132000D01*
X140208000Y-168148000D02*
X140208000Y-166624000D01*
X140208000Y-166624000D02*
X139192000Y-165608000D01*
X139192000Y-165608000D02*
X127275000Y-165608000D01*
X127275000Y-165608000D02*
X119888000Y-165608000D01*
X119888000Y-165608000D02*
X119888000Y-165608000D01*
X118364000Y-161036000D02*
X114817001Y-164582999D01*
X114817001Y-164582999D02*
X114817001Y-165598999D01*
X114817001Y-165598999D02*
X114817001Y-165598999D01*
X114817001Y-165598999D02*
X111760000Y-168656000D01*
X111760000Y-168656000D02*
X108712000Y-168656000D01*
X108712000Y-168656000D02*
X108712000Y-168656000D01*
%TO.N,Net-(D2-Pad2)*%
X148844000Y-156464000D02*
X153924000Y-156464000D01*
X146304000Y-159004000D02*
X148844000Y-156464000D01*
X146304000Y-159004000D02*
X142482010Y-155182010D01*
X142482010Y-155182010D02*
X87319335Y-155182009D01*
X87319335Y-153980665D02*
X87376000Y-153924000D01*
X87319335Y-155182009D02*
X87319335Y-153980665D01*
%TO.N,+12V*%
X154312000Y-159392000D02*
X153924000Y-159004000D01*
X154312000Y-163576000D02*
X154312000Y-159392000D01*
X155644010Y-157283990D02*
X155644010Y-153612010D01*
X155644010Y-153612010D02*
X153924000Y-151892000D01*
X153924000Y-159004000D02*
X155644010Y-157283990D01*
X155644010Y-146500010D02*
X153924000Y-144780000D01*
X155644010Y-150171990D02*
X155644010Y-146500010D01*
X153924000Y-151892000D02*
X155644010Y-150171990D01*
X152400000Y-146304000D02*
X153924000Y-144780000D01*
X146304000Y-146304000D02*
X152400000Y-146304000D01*
X130556000Y-146304000D02*
X127508000Y-143256000D01*
X146304000Y-146304000D02*
X130556000Y-146304000D01*
X127508000Y-143256000D02*
X127508000Y-144780000D01*
X123444000Y-148844000D02*
X123444000Y-148336000D01*
X123444000Y-148336000D02*
X120396000Y-145288000D01*
X120396000Y-145288000D02*
X120396000Y-142748000D01*
X120396000Y-142748000D02*
X121920000Y-141224000D01*
X125476000Y-141224000D02*
X127508000Y-143256000D01*
X121920000Y-141224000D02*
X125476000Y-141224000D01*
%TO.N,Net-(D3-Pad2)*%
X153416000Y-148844000D02*
X153924000Y-149352000D01*
X136144000Y-148844000D02*
X153416000Y-148844000D01*
X136144000Y-148844000D02*
X128016000Y-148844000D01*
X128016000Y-148844000D02*
X122936000Y-143764000D01*
X122936000Y-143764000D02*
X122936000Y-143764000D01*
X87376000Y-145288000D02*
X93472000Y-145288000D01*
X93472000Y-145288000D02*
X96012000Y-147828000D01*
X96012000Y-147828000D02*
X96012000Y-147828000D01*
%TO.N,Net-(D4-Pad2)*%
X152908000Y-143256000D02*
X153924000Y-142240000D01*
X140208000Y-143256000D02*
X152908000Y-143256000D01*
X137425990Y-140473990D02*
X94222010Y-140473990D01*
X140208000Y-143256000D02*
X137425990Y-140473990D01*
X94222010Y-140473990D02*
X92456000Y-142240000D01*
X96012000Y-153924000D02*
X91440000Y-153924000D01*
X91440000Y-153924000D02*
X91440000Y-153924000D01*
X92456000Y-142240000D02*
X91440000Y-142240000D01*
X91440000Y-142240000D02*
X91440000Y-142240000D01*
%TO.N,Net-(IC1-Pad14)*%
X132588000Y-157480000D02*
X136144000Y-161036000D01*
X86499998Y-157480000D02*
X132588000Y-157480000D01*
X82296000Y-153276002D02*
X86499998Y-157480000D01*
X80308674Y-151384000D02*
X76200000Y-151384000D01*
X82200676Y-153276002D02*
X80308674Y-151384000D01*
X82296000Y-153276002D02*
X82200676Y-153276002D01*
%TO.N,Net-(IC1-Pad13)*%
X131064000Y-158496000D02*
X133604000Y-161036000D01*
X86455324Y-158496000D02*
X131064000Y-158496000D01*
X75596676Y-153924000D02*
X81788000Y-153924000D01*
X81788000Y-153924000D02*
X85852000Y-157988000D01*
X85852000Y-157988000D02*
X85947324Y-157988000D01*
X85947324Y-157988000D02*
X86455324Y-158496000D01*
%TO.N,GND*%
X76200000Y-148844000D02*
X83312000Y-148844000D01*
X83312000Y-145812000D02*
X86376000Y-142748000D01*
X86376000Y-142748000D02*
X87376000Y-142748000D01*
X83312000Y-148844000D02*
X83312000Y-145812000D01*
X116840000Y-165100000D02*
X120904000Y-161036000D01*
X116840000Y-169164000D02*
X116840000Y-165100000D01*
X74724999Y-150319001D02*
X76200000Y-148844000D01*
X74724999Y-157724675D02*
X74724999Y-150319001D01*
X86865334Y-169865010D02*
X74724999Y-157724675D01*
X105470990Y-169865010D02*
X86865334Y-169865010D01*
X110744000Y-164592000D02*
X105470990Y-169865010D01*
X119478999Y-159610999D02*
X120904000Y-161036000D01*
X94710920Y-159610999D02*
X119478999Y-159610999D01*
X87884000Y-166437919D02*
X94710920Y-159610999D01*
X87884000Y-167640000D02*
X87884000Y-166437919D01*
X84836000Y-148844000D02*
X87376000Y-151384000D01*
X83312000Y-148844000D02*
X84836000Y-148844000D01*
X87376000Y-151384000D02*
X96012000Y-151384000D01*
X151812000Y-163576000D02*
X151812000Y-166196000D01*
X147418999Y-170589001D02*
X118265001Y-170589001D01*
X118265001Y-170589001D02*
X116840000Y-169164000D01*
X151812000Y-166196000D02*
X147418999Y-170589001D01*
X96012000Y-151384000D02*
X99060000Y-151384000D01*
X118364000Y-153416000D02*
X116332000Y-151384000D01*
X116332000Y-151384000D02*
X102616000Y-151384000D01*
X102616000Y-151384000D02*
X102616000Y-151384000D01*
X99060000Y-151384000D02*
X99568000Y-151384000D01*
X151812000Y-163576000D02*
X149312000Y-163576000D01*
X105569979Y-169963999D02*
X105470990Y-169865010D01*
X116040001Y-169963999D02*
X105569979Y-169963999D01*
X116840000Y-169164000D02*
X116040001Y-169963999D01*
%TO.N,Net-(IC1-Pad17)*%
X116840000Y-146165002D02*
X116840000Y-143256000D01*
X121543999Y-150869001D02*
X116840000Y-146165002D01*
X128517001Y-150869001D02*
X121543999Y-150869001D01*
X131064000Y-153416000D02*
X128517001Y-150869001D01*
%TO.N,Net-(IC1-Pad3)*%
X105664000Y-163576000D02*
X105664000Y-164592000D01*
X108204000Y-161036000D02*
X105664000Y-163576000D01*
%TO.N,Net-(IC1-Pad2)*%
X108204000Y-164592000D02*
X104648000Y-168148000D01*
X104648000Y-168148000D02*
X101092000Y-168148000D01*
X101092000Y-168148000D02*
X101092000Y-168148000D01*
X105664000Y-161036000D02*
X104140000Y-162560000D01*
X102330998Y-162560000D02*
X97536000Y-167354998D01*
X104140000Y-162560000D02*
X102330998Y-162560000D01*
X97536000Y-167354998D02*
X97536000Y-167640000D01*
X97536000Y-167640000D02*
X97536000Y-167640000D01*
%TO.N,Net-(IC1-Pad1)*%
X90424000Y-167132000D02*
X90424000Y-167640000D01*
X96012000Y-161544000D02*
X90424000Y-167132000D01*
X96520000Y-161036000D02*
X96012000Y-161544000D01*
X103124000Y-161036000D02*
X96520000Y-161036000D01*
%TO.N,Net-(Q1-Pad2)*%
X95758000Y-144018000D02*
X87376000Y-144018000D01*
X96520000Y-143256000D02*
X95758000Y-144018000D01*
X87630000Y-152654000D02*
X96012000Y-152654000D01*
X87376000Y-152654000D02*
X87630000Y-152654000D01*
X97387010Y-146155010D02*
X96520000Y-145288000D01*
X96520000Y-145288000D02*
X96520000Y-143256000D01*
X96012000Y-152654000D02*
X99822000Y-152654000D01*
X99927010Y-146155010D02*
X97387010Y-146155010D01*
X99822000Y-152654000D02*
X100584000Y-151892000D01*
X100584000Y-151892000D02*
X100584000Y-146812000D01*
X100584000Y-146812000D02*
X99927010Y-146155010D01*
%TD*%
D25*
%TO.N,GND*%
G36*
X160401000Y-173101000D02*
G01*
X72263000Y-173101000D01*
X72263000Y-155614000D01*
X74711928Y-155614000D01*
X74711928Y-157314000D01*
X74724188Y-157438482D01*
X74760498Y-157558180D01*
X74819463Y-157668494D01*
X74898815Y-157765185D01*
X74995506Y-157844537D01*
X75105820Y-157903502D01*
X75225518Y-157939812D01*
X75350000Y-157952072D01*
X76105271Y-157952072D01*
X79373312Y-161220115D01*
X79337000Y-161402665D01*
X79337000Y-161685335D01*
X79392147Y-161962574D01*
X79500320Y-162223727D01*
X79657363Y-162458759D01*
X79857241Y-162658637D01*
X80013446Y-162763010D01*
X80022236Y-162852246D01*
X80022998Y-162859987D01*
X80066454Y-163003248D01*
X80137026Y-163135278D01*
X80198259Y-163209890D01*
X80232000Y-163251003D01*
X80260998Y-163274801D01*
X86612200Y-169626004D01*
X86635998Y-169655002D01*
X86751723Y-169749975D01*
X86883752Y-169820547D01*
X87027013Y-169864004D01*
X87138666Y-169875001D01*
X87138675Y-169875001D01*
X87175998Y-169878677D01*
X87213321Y-169875001D01*
X98563677Y-169875001D01*
X98600999Y-169878677D01*
X98638321Y-169875001D01*
X98638332Y-169875001D01*
X98749985Y-169864004D01*
X98893246Y-169820547D01*
X99025275Y-169749975D01*
X99141000Y-169655002D01*
X99164803Y-169625998D01*
X100168278Y-168622523D01*
X100174795Y-168638256D01*
X100288063Y-168807774D01*
X100432226Y-168951937D01*
X100601744Y-169065205D01*
X100790102Y-169143226D01*
X100990061Y-169183000D01*
X101193939Y-169183000D01*
X101393898Y-169143226D01*
X101582256Y-169065205D01*
X101751774Y-168951937D01*
X101795711Y-168908000D01*
X104610678Y-168908000D01*
X104648000Y-168911676D01*
X104685322Y-168908000D01*
X104685333Y-168908000D01*
X104796986Y-168897003D01*
X104940247Y-168853546D01*
X105072276Y-168782974D01*
X105188001Y-168688001D01*
X105211804Y-168658997D01*
X107837593Y-166033210D01*
X108057740Y-166077000D01*
X108350260Y-166077000D01*
X108637158Y-166019932D01*
X108907411Y-165907990D01*
X109150632Y-165745475D01*
X109357475Y-165538632D01*
X109479195Y-165356466D01*
X109548822Y-165473355D01*
X109743731Y-165689588D01*
X109977080Y-165863641D01*
X110239901Y-165988825D01*
X110387110Y-166033476D01*
X110617000Y-165912155D01*
X110617000Y-164719000D01*
X110871000Y-164719000D01*
X110871000Y-165912155D01*
X111100890Y-166033476D01*
X111248099Y-165988825D01*
X111510920Y-165863641D01*
X111744269Y-165689588D01*
X111939178Y-165473355D01*
X112088157Y-165223252D01*
X112185481Y-164948891D01*
X112064814Y-164719000D01*
X110871000Y-164719000D01*
X110617000Y-164719000D01*
X110597000Y-164719000D01*
X110597000Y-164465000D01*
X110617000Y-164465000D01*
X110617000Y-163271845D01*
X110871000Y-163271845D01*
X110871000Y-164465000D01*
X112064814Y-164465000D01*
X112185481Y-164235109D01*
X112088157Y-163960748D01*
X111939178Y-163710645D01*
X111744269Y-163494412D01*
X111510920Y-163320359D01*
X111248099Y-163195175D01*
X111100890Y-163150524D01*
X110871000Y-163271845D01*
X110617000Y-163271845D01*
X110387110Y-163150524D01*
X110239901Y-163195175D01*
X109977080Y-163320359D01*
X109743731Y-163494412D01*
X109548822Y-163710645D01*
X109479195Y-163827534D01*
X109357475Y-163645368D01*
X109150632Y-163438525D01*
X108907411Y-163276010D01*
X108637158Y-163164068D01*
X108350260Y-163107000D01*
X108057740Y-163107000D01*
X107770842Y-163164068D01*
X107500589Y-163276010D01*
X107257368Y-163438525D01*
X107050525Y-163645368D01*
X106934000Y-163819760D01*
X106817475Y-163645368D01*
X106743454Y-163571347D01*
X107880114Y-162434688D01*
X108062665Y-162471000D01*
X108345335Y-162471000D01*
X108622574Y-162415853D01*
X108883727Y-162307680D01*
X109118759Y-162150637D01*
X109318637Y-161950759D01*
X109474000Y-161718241D01*
X109629363Y-161950759D01*
X109829241Y-162150637D01*
X110064273Y-162307680D01*
X110325426Y-162415853D01*
X110602665Y-162471000D01*
X110885335Y-162471000D01*
X111162574Y-162415853D01*
X111423727Y-162307680D01*
X111658759Y-162150637D01*
X111858637Y-161950759D01*
X112014000Y-161718241D01*
X112169363Y-161950759D01*
X112369241Y-162150637D01*
X112604273Y-162307680D01*
X112865426Y-162415853D01*
X113142665Y-162471000D01*
X113425335Y-162471000D01*
X113702574Y-162415853D01*
X113963727Y-162307680D01*
X114198759Y-162150637D01*
X114398637Y-161950759D01*
X114554000Y-161718241D01*
X114709363Y-161950759D01*
X114909241Y-162150637D01*
X115144273Y-162307680D01*
X115405426Y-162415853D01*
X115682665Y-162471000D01*
X115854199Y-162471000D01*
X114306004Y-164019195D01*
X114277000Y-164042998D01*
X114240886Y-164087004D01*
X114182027Y-164158723D01*
X114141198Y-164235109D01*
X114111455Y-164290753D01*
X114067998Y-164434014D01*
X114057001Y-164545667D01*
X114057001Y-164545677D01*
X114053325Y-164582999D01*
X114057001Y-164620322D01*
X114057001Y-164895288D01*
X114013064Y-164939225D01*
X113899796Y-165108743D01*
X113821775Y-165297101D01*
X113782001Y-165497060D01*
X113782001Y-165559197D01*
X111445199Y-167896000D01*
X109415711Y-167896000D01*
X109371774Y-167852063D01*
X109202256Y-167738795D01*
X109013898Y-167660774D01*
X108813939Y-167621000D01*
X108610061Y-167621000D01*
X108410102Y-167660774D01*
X108221744Y-167738795D01*
X108052226Y-167852063D01*
X107908063Y-167996226D01*
X107794795Y-168165744D01*
X107716774Y-168354102D01*
X107677000Y-168554061D01*
X107677000Y-168757939D01*
X107716774Y-168957898D01*
X107794795Y-169146256D01*
X107908063Y-169315774D01*
X108052226Y-169459937D01*
X108221744Y-169573205D01*
X108410102Y-169651226D01*
X108610061Y-169691000D01*
X108813939Y-169691000D01*
X109013898Y-169651226D01*
X109202256Y-169573205D01*
X109292301Y-169513039D01*
X115448096Y-169513039D01*
X115488754Y-169647087D01*
X115608963Y-169901420D01*
X115776481Y-170127414D01*
X115984869Y-170316385D01*
X116226119Y-170461070D01*
X116490960Y-170555909D01*
X116713000Y-170434624D01*
X116713000Y-169291000D01*
X116967000Y-169291000D01*
X116967000Y-170434624D01*
X117189040Y-170555909D01*
X117453881Y-170461070D01*
X117695131Y-170316385D01*
X117903519Y-170127414D01*
X118071037Y-169901420D01*
X118191246Y-169647087D01*
X118231904Y-169513039D01*
X118109915Y-169291000D01*
X116967000Y-169291000D01*
X116713000Y-169291000D01*
X115570085Y-169291000D01*
X115448096Y-169513039D01*
X109292301Y-169513039D01*
X109371774Y-169459937D01*
X109415711Y-169416000D01*
X111722678Y-169416000D01*
X111760000Y-169419676D01*
X111797322Y-169416000D01*
X111797333Y-169416000D01*
X111908986Y-169405003D01*
X112052247Y-169361546D01*
X112184276Y-169290974D01*
X112300001Y-169196001D01*
X112323804Y-169166997D01*
X112675840Y-168814961D01*
X115448096Y-168814961D01*
X115570085Y-169037000D01*
X116713000Y-169037000D01*
X116713000Y-167893376D01*
X116967000Y-167893376D01*
X116967000Y-169037000D01*
X118109915Y-169037000D01*
X118231904Y-168814961D01*
X118191246Y-168680913D01*
X118071037Y-168426580D01*
X117903519Y-168200586D01*
X117695131Y-168011615D01*
X117453881Y-167866930D01*
X117189040Y-167772091D01*
X116967000Y-167893376D01*
X116713000Y-167893376D01*
X116490960Y-167772091D01*
X116226119Y-167866930D01*
X115984869Y-168011615D01*
X115776481Y-168200586D01*
X115608963Y-168426580D01*
X115488754Y-168680913D01*
X115448096Y-168814961D01*
X112675840Y-168814961D01*
X114856803Y-166633999D01*
X114918940Y-166633999D01*
X115118899Y-166594225D01*
X115307257Y-166516204D01*
X115476775Y-166402936D01*
X115620938Y-166258773D01*
X115734206Y-166089255D01*
X115812227Y-165900897D01*
X115852001Y-165700938D01*
X115852001Y-165506061D01*
X118853000Y-165506061D01*
X118853000Y-165709939D01*
X118892774Y-165909898D01*
X118970795Y-166098256D01*
X119084063Y-166267774D01*
X119228226Y-166411937D01*
X119397744Y-166525205D01*
X119586102Y-166603226D01*
X119786061Y-166643000D01*
X119989939Y-166643000D01*
X120189898Y-166603226D01*
X120378256Y-166525205D01*
X120547774Y-166411937D01*
X120591711Y-166368000D01*
X138877199Y-166368000D01*
X139143520Y-166634321D01*
X139063820Y-166658498D01*
X138953506Y-166717463D01*
X138856815Y-166796815D01*
X138777463Y-166893506D01*
X138718498Y-167003820D01*
X138712944Y-167022127D01*
X138646505Y-166955688D01*
X138395095Y-166787701D01*
X138115743Y-166671989D01*
X137819184Y-166613000D01*
X137516816Y-166613000D01*
X137220257Y-166671989D01*
X136940905Y-166787701D01*
X136689495Y-166955688D01*
X136475688Y-167169495D01*
X136307701Y-167420905D01*
X136191989Y-167700257D01*
X136133000Y-167996816D01*
X136133000Y-168299184D01*
X136153849Y-168404000D01*
X133298043Y-168404000D01*
X133194637Y-168249241D01*
X132994759Y-168049363D01*
X132759727Y-167892320D01*
X132498574Y-167784147D01*
X132221335Y-167729000D01*
X131938665Y-167729000D01*
X131661426Y-167784147D01*
X131400273Y-167892320D01*
X131165241Y-168049363D01*
X130965363Y-168249241D01*
X130808320Y-168484273D01*
X130700147Y-168745426D01*
X130645000Y-169022665D01*
X130645000Y-169305335D01*
X130700147Y-169582574D01*
X130808320Y-169843727D01*
X130965363Y-170078759D01*
X131165241Y-170278637D01*
X131400273Y-170435680D01*
X131661426Y-170543853D01*
X131938665Y-170599000D01*
X132221335Y-170599000D01*
X132498574Y-170543853D01*
X132759727Y-170435680D01*
X132994759Y-170278637D01*
X133194637Y-170078759D01*
X133298043Y-169924000D01*
X136614678Y-169924000D01*
X136652000Y-169927676D01*
X136689322Y-169924000D01*
X136689333Y-169924000D01*
X136800986Y-169913003D01*
X136944247Y-169869546D01*
X137076276Y-169798974D01*
X137192001Y-169704001D01*
X137215804Y-169674998D01*
X137259070Y-169631731D01*
X137516816Y-169683000D01*
X137819184Y-169683000D01*
X138115743Y-169624011D01*
X138395095Y-169508299D01*
X138646505Y-169340312D01*
X138712944Y-169273873D01*
X138718498Y-169292180D01*
X138777463Y-169402494D01*
X138856815Y-169499185D01*
X138953506Y-169578537D01*
X139063820Y-169637502D01*
X139183518Y-169673812D01*
X139308000Y-169686072D01*
X141108000Y-169686072D01*
X141232482Y-169673812D01*
X141352180Y-169637502D01*
X141462494Y-169578537D01*
X141559185Y-169499185D01*
X141638537Y-169402494D01*
X141697502Y-169292180D01*
X141733812Y-169172482D01*
X141746072Y-169048000D01*
X141746072Y-168908000D01*
X142202678Y-168908000D01*
X142240000Y-168911676D01*
X142277322Y-168908000D01*
X142277333Y-168908000D01*
X142388986Y-168897003D01*
X142532247Y-168853546D01*
X142664276Y-168782974D01*
X142780001Y-168688001D01*
X142803804Y-168658997D01*
X146323731Y-165139072D01*
X147412000Y-165139072D01*
X147585254Y-165122008D01*
X147751850Y-165071472D01*
X147905386Y-164989405D01*
X148039962Y-164878962D01*
X148150405Y-164744386D01*
X148208954Y-164634850D01*
X148258460Y-164695695D01*
X148482513Y-164881157D01*
X148738443Y-165019345D01*
X148955110Y-165092476D01*
X149185000Y-164971155D01*
X149185000Y-163703000D01*
X149439000Y-163703000D01*
X149439000Y-164971155D01*
X149668890Y-165092476D01*
X149885557Y-165019345D01*
X150141487Y-164881157D01*
X150365540Y-164695695D01*
X150549106Y-164470086D01*
X150562000Y-164445716D01*
X150574894Y-164470086D01*
X150758460Y-164695695D01*
X150982513Y-164881157D01*
X151238443Y-165019345D01*
X151455110Y-165092476D01*
X151685000Y-164971155D01*
X151685000Y-163703000D01*
X149439000Y-163703000D01*
X149185000Y-163703000D01*
X149165000Y-163703000D01*
X149165000Y-163449000D01*
X149185000Y-163449000D01*
X149185000Y-162180845D01*
X149439000Y-162180845D01*
X149439000Y-163449000D01*
X151685000Y-163449000D01*
X151685000Y-162180845D01*
X151455110Y-162059524D01*
X151238443Y-162132655D01*
X150982513Y-162270843D01*
X150758460Y-162456305D01*
X150574894Y-162681914D01*
X150562000Y-162706284D01*
X150549106Y-162681914D01*
X150365540Y-162456305D01*
X150141487Y-162270843D01*
X149885557Y-162132655D01*
X149668890Y-162059524D01*
X149439000Y-162180845D01*
X149185000Y-162180845D01*
X148955110Y-162059524D01*
X148738443Y-162132655D01*
X148482513Y-162270843D01*
X148258460Y-162456305D01*
X148208954Y-162517150D01*
X148150405Y-162407614D01*
X148039962Y-162273038D01*
X147905386Y-162162595D01*
X147751850Y-162080528D01*
X147585254Y-162029992D01*
X147412000Y-162012928D01*
X146212000Y-162012928D01*
X146038746Y-162029992D01*
X145872150Y-162080528D01*
X145718614Y-162162595D01*
X145584038Y-162273038D01*
X145473595Y-162407614D01*
X145391528Y-162561150D01*
X145340992Y-162727746D01*
X145323928Y-162901000D01*
X145323928Y-163989269D01*
X141925199Y-167388000D01*
X141746072Y-167388000D01*
X141746072Y-167248000D01*
X141733812Y-167123518D01*
X141697502Y-167003820D01*
X141638537Y-166893506D01*
X141559185Y-166796815D01*
X141462494Y-166717463D01*
X141352180Y-166658498D01*
X141232482Y-166622188D01*
X141108000Y-166609928D01*
X140970290Y-166609928D01*
X140968000Y-166586677D01*
X140968000Y-166586667D01*
X140957003Y-166475014D01*
X140913546Y-166331753D01*
X140874537Y-166258773D01*
X140842974Y-166199723D01*
X140771799Y-166112997D01*
X140748001Y-166083999D01*
X140719003Y-166060201D01*
X139755804Y-165097002D01*
X139732001Y-165067999D01*
X139616276Y-164973026D01*
X139484247Y-164902454D01*
X139340986Y-164858997D01*
X139229333Y-164848000D01*
X139229322Y-164848000D01*
X139192000Y-164844324D01*
X139154678Y-164848000D01*
X120591711Y-164848000D01*
X120547774Y-164804063D01*
X120378256Y-164690795D01*
X120189898Y-164612774D01*
X119989939Y-164573000D01*
X119786061Y-164573000D01*
X119586102Y-164612774D01*
X119397744Y-164690795D01*
X119228226Y-164804063D01*
X119084063Y-164948226D01*
X118970795Y-165117744D01*
X118892774Y-165306102D01*
X118853000Y-165506061D01*
X115852001Y-165506061D01*
X115852001Y-165497060D01*
X115812227Y-165297101D01*
X115734206Y-165108743D01*
X115620938Y-164939225D01*
X115578257Y-164896544D01*
X118040114Y-162434688D01*
X118222665Y-162471000D01*
X118505335Y-162471000D01*
X118782574Y-162415853D01*
X119043727Y-162307680D01*
X119278759Y-162150637D01*
X119478637Y-161950759D01*
X119635680Y-161715727D01*
X119640067Y-161705135D01*
X119751615Y-161891131D01*
X119940586Y-162099519D01*
X120166580Y-162267037D01*
X120420913Y-162387246D01*
X120554961Y-162427904D01*
X120777000Y-162305915D01*
X120777000Y-161163000D01*
X120757000Y-161163000D01*
X120757000Y-160909000D01*
X120777000Y-160909000D01*
X120777000Y-159766085D01*
X120554961Y-159644096D01*
X120420913Y-159684754D01*
X120166580Y-159804963D01*
X119940586Y-159972481D01*
X119751615Y-160180869D01*
X119640067Y-160366865D01*
X119635680Y-160356273D01*
X119478637Y-160121241D01*
X119278759Y-159921363D01*
X119043727Y-159764320D01*
X118782574Y-159656147D01*
X118505335Y-159601000D01*
X118222665Y-159601000D01*
X117945426Y-159656147D01*
X117684273Y-159764320D01*
X117449241Y-159921363D01*
X117249363Y-160121241D01*
X117094000Y-160353759D01*
X116938637Y-160121241D01*
X116738759Y-159921363D01*
X116503727Y-159764320D01*
X116242574Y-159656147D01*
X115965335Y-159601000D01*
X115682665Y-159601000D01*
X115405426Y-159656147D01*
X115144273Y-159764320D01*
X114909241Y-159921363D01*
X114709363Y-160121241D01*
X114554000Y-160353759D01*
X114398637Y-160121241D01*
X114198759Y-159921363D01*
X113963727Y-159764320D01*
X113702574Y-159656147D01*
X113425335Y-159601000D01*
X113142665Y-159601000D01*
X112865426Y-159656147D01*
X112604273Y-159764320D01*
X112369241Y-159921363D01*
X112169363Y-160121241D01*
X112014000Y-160353759D01*
X111858637Y-160121241D01*
X111658759Y-159921363D01*
X111423727Y-159764320D01*
X111162574Y-159656147D01*
X110885335Y-159601000D01*
X110602665Y-159601000D01*
X110325426Y-159656147D01*
X110064273Y-159764320D01*
X109829241Y-159921363D01*
X109629363Y-160121241D01*
X109474000Y-160353759D01*
X109318637Y-160121241D01*
X109118759Y-159921363D01*
X108883727Y-159764320D01*
X108622574Y-159656147D01*
X108345335Y-159601000D01*
X108062665Y-159601000D01*
X107785426Y-159656147D01*
X107524273Y-159764320D01*
X107289241Y-159921363D01*
X107089363Y-160121241D01*
X106934000Y-160353759D01*
X106778637Y-160121241D01*
X106578759Y-159921363D01*
X106343727Y-159764320D01*
X106082574Y-159656147D01*
X105805335Y-159601000D01*
X105522665Y-159601000D01*
X105245426Y-159656147D01*
X104984273Y-159764320D01*
X104749241Y-159921363D01*
X104550643Y-160119961D01*
X104549812Y-160111518D01*
X104513502Y-159991820D01*
X104454537Y-159881506D01*
X104375185Y-159784815D01*
X104278494Y-159705463D01*
X104168180Y-159646498D01*
X104048482Y-159610188D01*
X103924000Y-159597928D01*
X102324000Y-159597928D01*
X102199518Y-159610188D01*
X102079820Y-159646498D01*
X101969506Y-159705463D01*
X101872815Y-159784815D01*
X101793463Y-159881506D01*
X101734498Y-159991820D01*
X101698188Y-160111518D01*
X101685928Y-160236000D01*
X101685928Y-160276000D01*
X96697235Y-160276000D01*
X96691727Y-160272320D01*
X96430574Y-160164147D01*
X96153335Y-160109000D01*
X95870665Y-160109000D01*
X95593426Y-160164147D01*
X95332273Y-160272320D01*
X95097241Y-160429363D01*
X94897363Y-160629241D01*
X94740320Y-160864273D01*
X94632147Y-161125426D01*
X94577000Y-161402665D01*
X94577000Y-161685335D01*
X94613312Y-161867885D01*
X90329271Y-166151928D01*
X89574000Y-166151928D01*
X89449518Y-166164188D01*
X89329820Y-166200498D01*
X89219506Y-166259463D01*
X89122815Y-166338815D01*
X89043463Y-166435506D01*
X88984498Y-166545820D01*
X88960034Y-166626466D01*
X88884269Y-166542412D01*
X88650920Y-166368359D01*
X88388099Y-166243175D01*
X88240890Y-166198524D01*
X88011000Y-166319845D01*
X88011000Y-167513000D01*
X88031000Y-167513000D01*
X88031000Y-167767000D01*
X88011000Y-167767000D01*
X88011000Y-167787000D01*
X87757000Y-167787000D01*
X87757000Y-167767000D01*
X87737000Y-167767000D01*
X87737000Y-167513000D01*
X87757000Y-167513000D01*
X87757000Y-166319845D01*
X87527110Y-166198524D01*
X87379901Y-166243175D01*
X87117080Y-166368359D01*
X86883731Y-166542412D01*
X86688822Y-166758645D01*
X86539843Y-167008748D01*
X86442519Y-167283109D01*
X86468603Y-167332803D01*
X81740598Y-162604798D01*
X81886637Y-162458759D01*
X82043680Y-162223727D01*
X82151853Y-161962574D01*
X82207000Y-161685335D01*
X82207000Y-161402665D01*
X82151853Y-161125426D01*
X82043680Y-160864273D01*
X81886637Y-160629241D01*
X81686759Y-160429363D01*
X81451727Y-160272320D01*
X81190574Y-160164147D01*
X80913335Y-160109000D01*
X80630665Y-160109000D01*
X80448115Y-160145312D01*
X77681682Y-157378881D01*
X77688072Y-157314000D01*
X77688072Y-155614000D01*
X77675812Y-155489518D01*
X77639502Y-155369820D01*
X77580537Y-155259506D01*
X77501185Y-155162815D01*
X77404494Y-155083463D01*
X77294180Y-155024498D01*
X77221620Y-155002487D01*
X77353475Y-154870632D01*
X77478178Y-154684000D01*
X81473199Y-154684000D01*
X85288200Y-158499002D01*
X85311999Y-158528001D01*
X85340997Y-158551799D01*
X85427723Y-158622974D01*
X85546485Y-158686454D01*
X85559753Y-158693546D01*
X85586044Y-158701521D01*
X85891524Y-159007002D01*
X85915323Y-159036001D01*
X86031048Y-159130974D01*
X86163077Y-159201546D01*
X86306338Y-159245003D01*
X86417991Y-159256000D01*
X86418000Y-159256000D01*
X86455323Y-159259676D01*
X86492646Y-159256000D01*
X130749199Y-159256000D01*
X131094199Y-159601000D01*
X130922665Y-159601000D01*
X130645426Y-159656147D01*
X130384273Y-159764320D01*
X130149241Y-159921363D01*
X129949363Y-160121241D01*
X129794000Y-160353759D01*
X129638637Y-160121241D01*
X129438759Y-159921363D01*
X129203727Y-159764320D01*
X128942574Y-159656147D01*
X128665335Y-159601000D01*
X128382665Y-159601000D01*
X128105426Y-159656147D01*
X127844273Y-159764320D01*
X127609241Y-159921363D01*
X127409363Y-160121241D01*
X127254000Y-160353759D01*
X127098637Y-160121241D01*
X126898759Y-159921363D01*
X126663727Y-159764320D01*
X126402574Y-159656147D01*
X126125335Y-159601000D01*
X125842665Y-159601000D01*
X125565426Y-159656147D01*
X125304273Y-159764320D01*
X125069241Y-159921363D01*
X124869363Y-160121241D01*
X124714000Y-160353759D01*
X124558637Y-160121241D01*
X124358759Y-159921363D01*
X124123727Y-159764320D01*
X123862574Y-159656147D01*
X123585335Y-159601000D01*
X123302665Y-159601000D01*
X123025426Y-159656147D01*
X122764273Y-159764320D01*
X122529241Y-159921363D01*
X122329363Y-160121241D01*
X122172320Y-160356273D01*
X122167933Y-160366865D01*
X122056385Y-160180869D01*
X121867414Y-159972481D01*
X121641420Y-159804963D01*
X121387087Y-159684754D01*
X121253039Y-159644096D01*
X121031000Y-159766085D01*
X121031000Y-160909000D01*
X121051000Y-160909000D01*
X121051000Y-161163000D01*
X121031000Y-161163000D01*
X121031000Y-162305915D01*
X121253039Y-162427904D01*
X121387087Y-162387246D01*
X121641420Y-162267037D01*
X121867414Y-162099519D01*
X122056385Y-161891131D01*
X122167933Y-161705135D01*
X122172320Y-161715727D01*
X122329363Y-161950759D01*
X122529241Y-162150637D01*
X122764273Y-162307680D01*
X123025426Y-162415853D01*
X123302665Y-162471000D01*
X123585335Y-162471000D01*
X123862574Y-162415853D01*
X124123727Y-162307680D01*
X124358759Y-162150637D01*
X124558637Y-161950759D01*
X124714000Y-161718241D01*
X124869363Y-161950759D01*
X125069241Y-162150637D01*
X125304273Y-162307680D01*
X125565426Y-162415853D01*
X125842665Y-162471000D01*
X126125335Y-162471000D01*
X126402574Y-162415853D01*
X126663727Y-162307680D01*
X126898759Y-162150637D01*
X127098637Y-161950759D01*
X127254000Y-161718241D01*
X127409363Y-161950759D01*
X127609241Y-162150637D01*
X127844273Y-162307680D01*
X128105426Y-162415853D01*
X128382665Y-162471000D01*
X128665335Y-162471000D01*
X128942574Y-162415853D01*
X129203727Y-162307680D01*
X129438759Y-162150637D01*
X129638637Y-161950759D01*
X129794000Y-161718241D01*
X129949363Y-161950759D01*
X130149241Y-162150637D01*
X130384273Y-162307680D01*
X130645426Y-162415853D01*
X130922665Y-162471000D01*
X131205335Y-162471000D01*
X131482574Y-162415853D01*
X131743727Y-162307680D01*
X131978759Y-162150637D01*
X132178637Y-161950759D01*
X132334000Y-161718241D01*
X132489363Y-161950759D01*
X132689241Y-162150637D01*
X132924273Y-162307680D01*
X133185426Y-162415853D01*
X133462665Y-162471000D01*
X133745335Y-162471000D01*
X134022574Y-162415853D01*
X134283727Y-162307680D01*
X134518759Y-162150637D01*
X134718637Y-161950759D01*
X134874000Y-161718241D01*
X135029363Y-161950759D01*
X135229241Y-162150637D01*
X135464273Y-162307680D01*
X135725426Y-162415853D01*
X136002665Y-162471000D01*
X136285335Y-162471000D01*
X136562574Y-162415853D01*
X136823727Y-162307680D01*
X137058759Y-162150637D01*
X137258637Y-161950759D01*
X137415680Y-161715727D01*
X137523853Y-161454574D01*
X137579000Y-161177335D01*
X137579000Y-160894665D01*
X137523853Y-160617426D01*
X137415680Y-160356273D01*
X137258637Y-160121241D01*
X137058759Y-159921363D01*
X136823727Y-159764320D01*
X136562574Y-159656147D01*
X136285335Y-159601000D01*
X136002665Y-159601000D01*
X135820115Y-159637312D01*
X133151801Y-156969000D01*
X133128001Y-156939999D01*
X133012276Y-156845026D01*
X132880247Y-156774454D01*
X132736986Y-156730997D01*
X132625333Y-156720000D01*
X132625322Y-156720000D01*
X132588000Y-156716324D01*
X132550678Y-156720000D01*
X86814800Y-156720000D01*
X82859804Y-152765005D01*
X82836001Y-152736001D01*
X82720276Y-152641028D01*
X82588247Y-152570456D01*
X82561957Y-152562481D01*
X81077666Y-151078190D01*
X86032036Y-151078190D01*
X86157837Y-151257000D01*
X87249000Y-151257000D01*
X87249000Y-150377402D01*
X87503000Y-150377402D01*
X87503000Y-151257000D01*
X88594163Y-151257000D01*
X88719964Y-151078190D01*
X94668036Y-151078190D01*
X94793837Y-151257000D01*
X95885000Y-151257000D01*
X95885000Y-150377402D01*
X96139000Y-150377402D01*
X96139000Y-151257000D01*
X97230163Y-151257000D01*
X97355964Y-151078190D01*
X97347272Y-151016663D01*
X97254275Y-150807118D01*
X97122184Y-150619742D01*
X96956076Y-150461736D01*
X96762334Y-150339172D01*
X96548404Y-150256761D01*
X96322507Y-150217669D01*
X96139000Y-150377402D01*
X95885000Y-150377402D01*
X95701493Y-150217669D01*
X95475596Y-150256761D01*
X95261666Y-150339172D01*
X95067924Y-150461736D01*
X94901816Y-150619742D01*
X94769725Y-150807118D01*
X94676728Y-151016663D01*
X94668036Y-151078190D01*
X88719964Y-151078190D01*
X88711272Y-151016663D01*
X88618275Y-150807118D01*
X88486184Y-150619742D01*
X88320076Y-150461736D01*
X88126334Y-150339172D01*
X87912404Y-150256761D01*
X87686507Y-150217669D01*
X87503000Y-150377402D01*
X87249000Y-150377402D01*
X87065493Y-150217669D01*
X86839596Y-150256761D01*
X86625666Y-150339172D01*
X86431924Y-150461736D01*
X86265816Y-150619742D01*
X86133725Y-150807118D01*
X86040728Y-151016663D01*
X86032036Y-151078190D01*
X81077666Y-151078190D01*
X80872478Y-150873003D01*
X80848675Y-150843999D01*
X80732950Y-150749026D01*
X80600921Y-150678454D01*
X80457660Y-150634997D01*
X80346007Y-150624000D01*
X80345996Y-150624000D01*
X80308674Y-150620324D01*
X80271352Y-150624000D01*
X77478178Y-150624000D01*
X77353475Y-150437368D01*
X77146632Y-150230525D01*
X76964466Y-150108805D01*
X77081355Y-150039178D01*
X77297588Y-149844269D01*
X77471641Y-149610920D01*
X77596825Y-149348099D01*
X77641476Y-149200890D01*
X77520155Y-148971000D01*
X76327000Y-148971000D01*
X76327000Y-148991000D01*
X76073000Y-148991000D01*
X76073000Y-148971000D01*
X74879845Y-148971000D01*
X74758524Y-149200890D01*
X74803175Y-149348099D01*
X74928359Y-149610920D01*
X75102412Y-149844269D01*
X75318645Y-150039178D01*
X75435534Y-150108805D01*
X75253368Y-150230525D01*
X75046525Y-150437368D01*
X74884010Y-150680589D01*
X74772068Y-150950842D01*
X74715000Y-151237740D01*
X74715000Y-151530260D01*
X74772068Y-151817158D01*
X74884010Y-152087411D01*
X75046525Y-152330632D01*
X75253368Y-152537475D01*
X75427760Y-152654000D01*
X75253368Y-152770525D01*
X75046525Y-152977368D01*
X74884010Y-153220589D01*
X74772068Y-153490842D01*
X74715000Y-153777740D01*
X74715000Y-154070260D01*
X74772068Y-154357158D01*
X74884010Y-154627411D01*
X75046525Y-154870632D01*
X75178380Y-155002487D01*
X75105820Y-155024498D01*
X74995506Y-155083463D01*
X74898815Y-155162815D01*
X74819463Y-155259506D01*
X74760498Y-155369820D01*
X74724188Y-155489518D01*
X74711928Y-155614000D01*
X72263000Y-155614000D01*
X72263000Y-148487110D01*
X74758524Y-148487110D01*
X74879845Y-148717000D01*
X76073000Y-148717000D01*
X76073000Y-147523186D01*
X76327000Y-147523186D01*
X76327000Y-148717000D01*
X77520155Y-148717000D01*
X77641476Y-148487110D01*
X77596825Y-148339901D01*
X77471641Y-148077080D01*
X77297588Y-147843731D01*
X77081355Y-147648822D01*
X76831252Y-147499843D01*
X76556891Y-147402519D01*
X76327000Y-147523186D01*
X76073000Y-147523186D01*
X75843109Y-147402519D01*
X75568748Y-147499843D01*
X75318645Y-147648822D01*
X75102412Y-147843731D01*
X74928359Y-148077080D01*
X74803175Y-148339901D01*
X74758524Y-148487110D01*
X72263000Y-148487110D01*
X72263000Y-144018000D01*
X85985388Y-144018000D01*
X86007785Y-144245400D01*
X86071093Y-144454098D01*
X86036498Y-144518820D01*
X86000188Y-144638518D01*
X85987928Y-144763000D01*
X85987928Y-145813000D01*
X86000188Y-145937482D01*
X86036498Y-146057180D01*
X86095463Y-146167494D01*
X86174815Y-146264185D01*
X86271506Y-146343537D01*
X86381820Y-146402502D01*
X86501518Y-146438812D01*
X86626000Y-146451072D01*
X88126000Y-146451072D01*
X88250482Y-146438812D01*
X88370180Y-146402502D01*
X88480494Y-146343537D01*
X88577185Y-146264185D01*
X88656537Y-146167494D01*
X88715502Y-146057180D01*
X88718287Y-146048000D01*
X93157199Y-146048000D01*
X94977000Y-147867803D01*
X94977000Y-147929939D01*
X95016774Y-148129898D01*
X95094795Y-148318256D01*
X95208063Y-148487774D01*
X95352226Y-148631937D01*
X95521744Y-148745205D01*
X95710102Y-148823226D01*
X95910061Y-148863000D01*
X96113939Y-148863000D01*
X96313898Y-148823226D01*
X96502256Y-148745205D01*
X96671774Y-148631937D01*
X96815937Y-148487774D01*
X96929205Y-148318256D01*
X97007226Y-148129898D01*
X97047000Y-147929939D01*
X97047000Y-147726061D01*
X97007226Y-147526102D01*
X96929205Y-147337744D01*
X96815937Y-147168226D01*
X96671774Y-147024063D01*
X96502256Y-146910795D01*
X96313898Y-146832774D01*
X96113939Y-146793000D01*
X96051803Y-146793000D01*
X94036801Y-144778000D01*
X95720678Y-144778000D01*
X95758000Y-144781676D01*
X95760000Y-144781479D01*
X95760000Y-145250677D01*
X95756324Y-145288000D01*
X95760000Y-145325322D01*
X95760000Y-145325332D01*
X95770997Y-145436985D01*
X95785728Y-145485546D01*
X95814454Y-145580246D01*
X95885026Y-145712276D01*
X95908375Y-145740726D01*
X95979999Y-145828001D01*
X96009002Y-145851803D01*
X96823210Y-146666012D01*
X96847009Y-146695011D01*
X96962734Y-146789984D01*
X97094763Y-146860556D01*
X97238024Y-146904013D01*
X97349677Y-146915010D01*
X97349686Y-146915010D01*
X97387009Y-146918686D01*
X97424332Y-146915010D01*
X99612209Y-146915010D01*
X99824001Y-147126803D01*
X99824000Y-151577198D01*
X99507199Y-151894000D01*
X97283958Y-151894000D01*
X97347272Y-151751337D01*
X97355964Y-151689810D01*
X97230163Y-151511000D01*
X96465109Y-151511000D01*
X96464400Y-151510785D01*
X96293979Y-151494000D01*
X95730021Y-151494000D01*
X95559600Y-151510785D01*
X95558891Y-151511000D01*
X94793837Y-151511000D01*
X94668036Y-151689810D01*
X94676728Y-151751337D01*
X94740042Y-151894000D01*
X88647958Y-151894000D01*
X88711272Y-151751337D01*
X88719964Y-151689810D01*
X88594163Y-151511000D01*
X87829109Y-151511000D01*
X87828400Y-151510785D01*
X87657979Y-151494000D01*
X87094021Y-151494000D01*
X86923600Y-151510785D01*
X86922891Y-151511000D01*
X86157837Y-151511000D01*
X86032036Y-151689810D01*
X86040728Y-151751337D01*
X86133725Y-151960882D01*
X86174929Y-152019331D01*
X86074115Y-152207940D01*
X86007785Y-152426600D01*
X85985388Y-152654000D01*
X86007785Y-152881400D01*
X86071093Y-153090098D01*
X86036498Y-153154820D01*
X86000188Y-153274518D01*
X85987928Y-153399000D01*
X85987928Y-154449000D01*
X86000188Y-154573482D01*
X86036498Y-154693180D01*
X86095463Y-154803494D01*
X86174815Y-154900185D01*
X86271506Y-154979537D01*
X86381820Y-155038502D01*
X86501518Y-155074812D01*
X86559335Y-155080506D01*
X86559335Y-155144686D01*
X86555659Y-155182009D01*
X86559335Y-155219334D01*
X86559335Y-155219341D01*
X86570332Y-155330994D01*
X86613789Y-155474255D01*
X86684361Y-155606284D01*
X86779334Y-155722010D01*
X86895059Y-155816983D01*
X87027088Y-155887555D01*
X87170349Y-155931012D01*
X87319335Y-155945686D01*
X87356678Y-155942008D01*
X142167209Y-155942010D01*
X144431677Y-158206478D01*
X144347204Y-158410413D01*
X144269000Y-158803570D01*
X144269000Y-159204430D01*
X144347204Y-159597587D01*
X144500607Y-159967934D01*
X144723313Y-160301237D01*
X145006763Y-160584687D01*
X145340066Y-160807393D01*
X145710413Y-160960796D01*
X146103570Y-161039000D01*
X146504430Y-161039000D01*
X146897587Y-160960796D01*
X147267934Y-160807393D01*
X147601237Y-160584687D01*
X147884687Y-160301237D01*
X148107393Y-159967934D01*
X148260796Y-159597587D01*
X148339000Y-159204430D01*
X148339000Y-158803570D01*
X148260796Y-158410413D01*
X148176323Y-158206479D01*
X149158803Y-157224000D01*
X152398727Y-157224000D01*
X152441583Y-157304179D01*
X152629655Y-157533345D01*
X152695114Y-157587066D01*
X152585613Y-157645595D01*
X152451038Y-157756038D01*
X152340595Y-157890613D01*
X152258528Y-158044149D01*
X152207992Y-158210745D01*
X152190928Y-158383999D01*
X152190928Y-159624001D01*
X152207992Y-159797255D01*
X152258528Y-159963851D01*
X152340595Y-160117387D01*
X152451038Y-160251962D01*
X152585613Y-160362405D01*
X152739149Y-160444472D01*
X152905745Y-160495008D01*
X153078999Y-160512072D01*
X153552001Y-160512072D01*
X153552000Y-162223405D01*
X153482986Y-162260294D01*
X153256866Y-162445866D01*
X153071294Y-162671987D01*
X153057504Y-162697786D01*
X153049106Y-162681914D01*
X152865540Y-162456305D01*
X152641487Y-162270843D01*
X152385557Y-162132655D01*
X152168890Y-162059524D01*
X151939000Y-162180845D01*
X151939000Y-163449000D01*
X151959000Y-163449000D01*
X151959000Y-163703000D01*
X151939000Y-163703000D01*
X151939000Y-164971155D01*
X152168890Y-165092476D01*
X152385557Y-165019345D01*
X152641487Y-164881157D01*
X152865540Y-164695695D01*
X153049106Y-164470086D01*
X153057504Y-164454214D01*
X153071294Y-164480014D01*
X153256866Y-164706134D01*
X153482987Y-164891706D01*
X153740967Y-165029599D01*
X154020890Y-165114513D01*
X154312000Y-165143185D01*
X154603111Y-165114513D01*
X154883034Y-165029599D01*
X155141014Y-164891706D01*
X155367134Y-164706134D01*
X155552706Y-164480013D01*
X155690599Y-164222033D01*
X155775513Y-163942110D01*
X155797000Y-163723949D01*
X155797000Y-163428050D01*
X155775513Y-163209889D01*
X155690599Y-162929966D01*
X155552706Y-162671986D01*
X155367134Y-162445866D01*
X155141013Y-162260294D01*
X155072000Y-162223406D01*
X155072000Y-160455651D01*
X155108851Y-160444472D01*
X155262387Y-160362405D01*
X155396962Y-160251962D01*
X155507405Y-160117387D01*
X155589472Y-159963851D01*
X155640008Y-159797255D01*
X155657072Y-159624001D01*
X155657072Y-158383999D01*
X155653641Y-158349162D01*
X156155019Y-157847784D01*
X156184011Y-157823991D01*
X156207805Y-157794998D01*
X156207809Y-157794994D01*
X156278983Y-157708267D01*
X156278984Y-157708266D01*
X156349556Y-157576237D01*
X156393013Y-157432976D01*
X156404010Y-157321323D01*
X156404010Y-157321314D01*
X156407686Y-157283991D01*
X156404010Y-157246668D01*
X156404010Y-153649332D01*
X156407686Y-153612009D01*
X156404010Y-153574686D01*
X156404010Y-153574677D01*
X156393013Y-153463024D01*
X156349556Y-153319763D01*
X156278984Y-153187734D01*
X156229155Y-153127017D01*
X156207809Y-153101006D01*
X156207805Y-153101002D01*
X156184011Y-153072009D01*
X156155018Y-153048215D01*
X155653641Y-152546838D01*
X155657072Y-152512001D01*
X155657072Y-151271999D01*
X155653641Y-151237162D01*
X156155019Y-150735784D01*
X156184011Y-150711991D01*
X156207805Y-150682998D01*
X156207809Y-150682994D01*
X156268191Y-150609417D01*
X156278984Y-150596266D01*
X156349556Y-150464237D01*
X156393013Y-150320976D01*
X156404010Y-150209323D01*
X156404010Y-150209314D01*
X156407686Y-150171991D01*
X156404010Y-150134668D01*
X156404010Y-146537332D01*
X156407686Y-146500009D01*
X156404010Y-146462686D01*
X156404010Y-146462677D01*
X156393013Y-146351024D01*
X156349556Y-146207763D01*
X156278984Y-146075734D01*
X156259241Y-146051677D01*
X156207809Y-145989006D01*
X156207805Y-145989002D01*
X156184011Y-145960009D01*
X156155018Y-145936215D01*
X155653641Y-145434838D01*
X155657072Y-145400001D01*
X155657072Y-144159999D01*
X155640008Y-143986745D01*
X155589472Y-143820149D01*
X155507405Y-143666613D01*
X155396962Y-143532038D01*
X155262387Y-143421595D01*
X155152886Y-143363066D01*
X155218345Y-143309345D01*
X155406417Y-143080179D01*
X155546166Y-142818725D01*
X155632224Y-142535032D01*
X155661282Y-142240000D01*
X155632224Y-141944968D01*
X155546166Y-141661275D01*
X155406417Y-141399821D01*
X155218345Y-141170655D01*
X154989179Y-140982583D01*
X154727725Y-140842834D01*
X154444032Y-140756776D01*
X154222936Y-140735000D01*
X153625064Y-140735000D01*
X153403968Y-140756776D01*
X153120275Y-140842834D01*
X152858821Y-140982583D01*
X152629655Y-141170655D01*
X152441583Y-141399821D01*
X152301834Y-141661275D01*
X152215776Y-141944968D01*
X152186718Y-142240000D01*
X152211932Y-142496000D01*
X142095865Y-142496000D01*
X142011393Y-142292066D01*
X141788687Y-141958763D01*
X141505237Y-141675313D01*
X141171934Y-141452607D01*
X140801587Y-141299204D01*
X140408430Y-141221000D01*
X140007570Y-141221000D01*
X139614413Y-141299204D01*
X139410478Y-141383677D01*
X137989794Y-139962993D01*
X137965991Y-139933989D01*
X137850266Y-139839016D01*
X137718237Y-139768444D01*
X137574976Y-139724987D01*
X137463323Y-139713990D01*
X137463312Y-139713990D01*
X137425990Y-139710314D01*
X137388668Y-139713990D01*
X94259332Y-139713990D01*
X94222009Y-139710314D01*
X94184686Y-139713990D01*
X94184677Y-139713990D01*
X94073024Y-139724987D01*
X93929763Y-139768444D01*
X93797734Y-139839016D01*
X93682009Y-139933989D01*
X93658211Y-139962987D01*
X92142455Y-141478744D01*
X92099774Y-141436063D01*
X91930256Y-141322795D01*
X91741898Y-141244774D01*
X91541939Y-141205000D01*
X91338061Y-141205000D01*
X91138102Y-141244774D01*
X90949744Y-141322795D01*
X90780226Y-141436063D01*
X90636063Y-141580226D01*
X90522795Y-141749744D01*
X90444774Y-141938102D01*
X90405000Y-142138061D01*
X90405000Y-142341939D01*
X90444774Y-142541898D01*
X90522795Y-142730256D01*
X90636063Y-142899774D01*
X90780226Y-143043937D01*
X90949744Y-143157205D01*
X91138102Y-143235226D01*
X91252596Y-143258000D01*
X88647958Y-143258000D01*
X88711272Y-143115337D01*
X88719964Y-143053810D01*
X88594163Y-142875000D01*
X87829109Y-142875000D01*
X87828400Y-142874785D01*
X87657979Y-142858000D01*
X87094021Y-142858000D01*
X86923600Y-142874785D01*
X86922891Y-142875000D01*
X86157837Y-142875000D01*
X86032036Y-143053810D01*
X86040728Y-143115337D01*
X86133725Y-143324882D01*
X86174929Y-143383331D01*
X86074115Y-143571940D01*
X86007785Y-143790600D01*
X85985388Y-144018000D01*
X72263000Y-144018000D01*
X72263000Y-142442190D01*
X86032036Y-142442190D01*
X86157837Y-142621000D01*
X87249000Y-142621000D01*
X87249000Y-141741402D01*
X87503000Y-141741402D01*
X87503000Y-142621000D01*
X88594163Y-142621000D01*
X88719964Y-142442190D01*
X88711272Y-142380663D01*
X88618275Y-142171118D01*
X88486184Y-141983742D01*
X88320076Y-141825736D01*
X88126334Y-141703172D01*
X87912404Y-141620761D01*
X87686507Y-141581669D01*
X87503000Y-141741402D01*
X87249000Y-141741402D01*
X87065493Y-141581669D01*
X86839596Y-141620761D01*
X86625666Y-141703172D01*
X86431924Y-141825736D01*
X86265816Y-141983742D01*
X86133725Y-142171118D01*
X86040728Y-142380663D01*
X86032036Y-142442190D01*
X72263000Y-142442190D01*
X72263000Y-137795000D01*
X160401000Y-137795000D01*
X160401000Y-173101000D01*
G37*
X160401000Y-173101000D02*
X72263000Y-173101000D01*
X72263000Y-155614000D01*
X74711928Y-155614000D01*
X74711928Y-157314000D01*
X74724188Y-157438482D01*
X74760498Y-157558180D01*
X74819463Y-157668494D01*
X74898815Y-157765185D01*
X74995506Y-157844537D01*
X75105820Y-157903502D01*
X75225518Y-157939812D01*
X75350000Y-157952072D01*
X76105271Y-157952072D01*
X79373312Y-161220115D01*
X79337000Y-161402665D01*
X79337000Y-161685335D01*
X79392147Y-161962574D01*
X79500320Y-162223727D01*
X79657363Y-162458759D01*
X79857241Y-162658637D01*
X80013446Y-162763010D01*
X80022236Y-162852246D01*
X80022998Y-162859987D01*
X80066454Y-163003248D01*
X80137026Y-163135278D01*
X80198259Y-163209890D01*
X80232000Y-163251003D01*
X80260998Y-163274801D01*
X86612200Y-169626004D01*
X86635998Y-169655002D01*
X86751723Y-169749975D01*
X86883752Y-169820547D01*
X87027013Y-169864004D01*
X87138666Y-169875001D01*
X87138675Y-169875001D01*
X87175998Y-169878677D01*
X87213321Y-169875001D01*
X98563677Y-169875001D01*
X98600999Y-169878677D01*
X98638321Y-169875001D01*
X98638332Y-169875001D01*
X98749985Y-169864004D01*
X98893246Y-169820547D01*
X99025275Y-169749975D01*
X99141000Y-169655002D01*
X99164803Y-169625998D01*
X100168278Y-168622523D01*
X100174795Y-168638256D01*
X100288063Y-168807774D01*
X100432226Y-168951937D01*
X100601744Y-169065205D01*
X100790102Y-169143226D01*
X100990061Y-169183000D01*
X101193939Y-169183000D01*
X101393898Y-169143226D01*
X101582256Y-169065205D01*
X101751774Y-168951937D01*
X101795711Y-168908000D01*
X104610678Y-168908000D01*
X104648000Y-168911676D01*
X104685322Y-168908000D01*
X104685333Y-168908000D01*
X104796986Y-168897003D01*
X104940247Y-168853546D01*
X105072276Y-168782974D01*
X105188001Y-168688001D01*
X105211804Y-168658997D01*
X107837593Y-166033210D01*
X108057740Y-166077000D01*
X108350260Y-166077000D01*
X108637158Y-166019932D01*
X108907411Y-165907990D01*
X109150632Y-165745475D01*
X109357475Y-165538632D01*
X109479195Y-165356466D01*
X109548822Y-165473355D01*
X109743731Y-165689588D01*
X109977080Y-165863641D01*
X110239901Y-165988825D01*
X110387110Y-166033476D01*
X110617000Y-165912155D01*
X110617000Y-164719000D01*
X110871000Y-164719000D01*
X110871000Y-165912155D01*
X111100890Y-166033476D01*
X111248099Y-165988825D01*
X111510920Y-165863641D01*
X111744269Y-165689588D01*
X111939178Y-165473355D01*
X112088157Y-165223252D01*
X112185481Y-164948891D01*
X112064814Y-164719000D01*
X110871000Y-164719000D01*
X110617000Y-164719000D01*
X110597000Y-164719000D01*
X110597000Y-164465000D01*
X110617000Y-164465000D01*
X110617000Y-163271845D01*
X110871000Y-163271845D01*
X110871000Y-164465000D01*
X112064814Y-164465000D01*
X112185481Y-164235109D01*
X112088157Y-163960748D01*
X111939178Y-163710645D01*
X111744269Y-163494412D01*
X111510920Y-163320359D01*
X111248099Y-163195175D01*
X111100890Y-163150524D01*
X110871000Y-163271845D01*
X110617000Y-163271845D01*
X110387110Y-163150524D01*
X110239901Y-163195175D01*
X109977080Y-163320359D01*
X109743731Y-163494412D01*
X109548822Y-163710645D01*
X109479195Y-163827534D01*
X109357475Y-163645368D01*
X109150632Y-163438525D01*
X108907411Y-163276010D01*
X108637158Y-163164068D01*
X108350260Y-163107000D01*
X108057740Y-163107000D01*
X107770842Y-163164068D01*
X107500589Y-163276010D01*
X107257368Y-163438525D01*
X107050525Y-163645368D01*
X106934000Y-163819760D01*
X106817475Y-163645368D01*
X106743454Y-163571347D01*
X107880114Y-162434688D01*
X108062665Y-162471000D01*
X108345335Y-162471000D01*
X108622574Y-162415853D01*
X108883727Y-162307680D01*
X109118759Y-162150637D01*
X109318637Y-161950759D01*
X109474000Y-161718241D01*
X109629363Y-161950759D01*
X109829241Y-162150637D01*
X110064273Y-162307680D01*
X110325426Y-162415853D01*
X110602665Y-162471000D01*
X110885335Y-162471000D01*
X111162574Y-162415853D01*
X111423727Y-162307680D01*
X111658759Y-162150637D01*
X111858637Y-161950759D01*
X112014000Y-161718241D01*
X112169363Y-161950759D01*
X112369241Y-162150637D01*
X112604273Y-162307680D01*
X112865426Y-162415853D01*
X113142665Y-162471000D01*
X113425335Y-162471000D01*
X113702574Y-162415853D01*
X113963727Y-162307680D01*
X114198759Y-162150637D01*
X114398637Y-161950759D01*
X114554000Y-161718241D01*
X114709363Y-161950759D01*
X114909241Y-162150637D01*
X115144273Y-162307680D01*
X115405426Y-162415853D01*
X115682665Y-162471000D01*
X115854199Y-162471000D01*
X114306004Y-164019195D01*
X114277000Y-164042998D01*
X114240886Y-164087004D01*
X114182027Y-164158723D01*
X114141198Y-164235109D01*
X114111455Y-164290753D01*
X114067998Y-164434014D01*
X114057001Y-164545667D01*
X114057001Y-164545677D01*
X114053325Y-164582999D01*
X114057001Y-164620322D01*
X114057001Y-164895288D01*
X114013064Y-164939225D01*
X113899796Y-165108743D01*
X113821775Y-165297101D01*
X113782001Y-165497060D01*
X113782001Y-165559197D01*
X111445199Y-167896000D01*
X109415711Y-167896000D01*
X109371774Y-167852063D01*
X109202256Y-167738795D01*
X109013898Y-167660774D01*
X108813939Y-167621000D01*
X108610061Y-167621000D01*
X108410102Y-167660774D01*
X108221744Y-167738795D01*
X108052226Y-167852063D01*
X107908063Y-167996226D01*
X107794795Y-168165744D01*
X107716774Y-168354102D01*
X107677000Y-168554061D01*
X107677000Y-168757939D01*
X107716774Y-168957898D01*
X107794795Y-169146256D01*
X107908063Y-169315774D01*
X108052226Y-169459937D01*
X108221744Y-169573205D01*
X108410102Y-169651226D01*
X108610061Y-169691000D01*
X108813939Y-169691000D01*
X109013898Y-169651226D01*
X109202256Y-169573205D01*
X109292301Y-169513039D01*
X115448096Y-169513039D01*
X115488754Y-169647087D01*
X115608963Y-169901420D01*
X115776481Y-170127414D01*
X115984869Y-170316385D01*
X116226119Y-170461070D01*
X116490960Y-170555909D01*
X116713000Y-170434624D01*
X116713000Y-169291000D01*
X116967000Y-169291000D01*
X116967000Y-170434624D01*
X117189040Y-170555909D01*
X117453881Y-170461070D01*
X117695131Y-170316385D01*
X117903519Y-170127414D01*
X118071037Y-169901420D01*
X118191246Y-169647087D01*
X118231904Y-169513039D01*
X118109915Y-169291000D01*
X116967000Y-169291000D01*
X116713000Y-169291000D01*
X115570085Y-169291000D01*
X115448096Y-169513039D01*
X109292301Y-169513039D01*
X109371774Y-169459937D01*
X109415711Y-169416000D01*
X111722678Y-169416000D01*
X111760000Y-169419676D01*
X111797322Y-169416000D01*
X111797333Y-169416000D01*
X111908986Y-169405003D01*
X112052247Y-169361546D01*
X112184276Y-169290974D01*
X112300001Y-169196001D01*
X112323804Y-169166997D01*
X112675840Y-168814961D01*
X115448096Y-168814961D01*
X115570085Y-169037000D01*
X116713000Y-169037000D01*
X116713000Y-167893376D01*
X116967000Y-167893376D01*
X116967000Y-169037000D01*
X118109915Y-169037000D01*
X118231904Y-168814961D01*
X118191246Y-168680913D01*
X118071037Y-168426580D01*
X117903519Y-168200586D01*
X117695131Y-168011615D01*
X117453881Y-167866930D01*
X117189040Y-167772091D01*
X116967000Y-167893376D01*
X116713000Y-167893376D01*
X116490960Y-167772091D01*
X116226119Y-167866930D01*
X115984869Y-168011615D01*
X115776481Y-168200586D01*
X115608963Y-168426580D01*
X115488754Y-168680913D01*
X115448096Y-168814961D01*
X112675840Y-168814961D01*
X114856803Y-166633999D01*
X114918940Y-166633999D01*
X115118899Y-166594225D01*
X115307257Y-166516204D01*
X115476775Y-166402936D01*
X115620938Y-166258773D01*
X115734206Y-166089255D01*
X115812227Y-165900897D01*
X115852001Y-165700938D01*
X115852001Y-165506061D01*
X118853000Y-165506061D01*
X118853000Y-165709939D01*
X118892774Y-165909898D01*
X118970795Y-166098256D01*
X119084063Y-166267774D01*
X119228226Y-166411937D01*
X119397744Y-166525205D01*
X119586102Y-166603226D01*
X119786061Y-166643000D01*
X119989939Y-166643000D01*
X120189898Y-166603226D01*
X120378256Y-166525205D01*
X120547774Y-166411937D01*
X120591711Y-166368000D01*
X138877199Y-166368000D01*
X139143520Y-166634321D01*
X139063820Y-166658498D01*
X138953506Y-166717463D01*
X138856815Y-166796815D01*
X138777463Y-166893506D01*
X138718498Y-167003820D01*
X138712944Y-167022127D01*
X138646505Y-166955688D01*
X138395095Y-166787701D01*
X138115743Y-166671989D01*
X137819184Y-166613000D01*
X137516816Y-166613000D01*
X137220257Y-166671989D01*
X136940905Y-166787701D01*
X136689495Y-166955688D01*
X136475688Y-167169495D01*
X136307701Y-167420905D01*
X136191989Y-167700257D01*
X136133000Y-167996816D01*
X136133000Y-168299184D01*
X136153849Y-168404000D01*
X133298043Y-168404000D01*
X133194637Y-168249241D01*
X132994759Y-168049363D01*
X132759727Y-167892320D01*
X132498574Y-167784147D01*
X132221335Y-167729000D01*
X131938665Y-167729000D01*
X131661426Y-167784147D01*
X131400273Y-167892320D01*
X131165241Y-168049363D01*
X130965363Y-168249241D01*
X130808320Y-168484273D01*
X130700147Y-168745426D01*
X130645000Y-169022665D01*
X130645000Y-169305335D01*
X130700147Y-169582574D01*
X130808320Y-169843727D01*
X130965363Y-170078759D01*
X131165241Y-170278637D01*
X131400273Y-170435680D01*
X131661426Y-170543853D01*
X131938665Y-170599000D01*
X132221335Y-170599000D01*
X132498574Y-170543853D01*
X132759727Y-170435680D01*
X132994759Y-170278637D01*
X133194637Y-170078759D01*
X133298043Y-169924000D01*
X136614678Y-169924000D01*
X136652000Y-169927676D01*
X136689322Y-169924000D01*
X136689333Y-169924000D01*
X136800986Y-169913003D01*
X136944247Y-169869546D01*
X137076276Y-169798974D01*
X137192001Y-169704001D01*
X137215804Y-169674998D01*
X137259070Y-169631731D01*
X137516816Y-169683000D01*
X137819184Y-169683000D01*
X138115743Y-169624011D01*
X138395095Y-169508299D01*
X138646505Y-169340312D01*
X138712944Y-169273873D01*
X138718498Y-169292180D01*
X138777463Y-169402494D01*
X138856815Y-169499185D01*
X138953506Y-169578537D01*
X139063820Y-169637502D01*
X139183518Y-169673812D01*
X139308000Y-169686072D01*
X141108000Y-169686072D01*
X141232482Y-169673812D01*
X141352180Y-169637502D01*
X141462494Y-169578537D01*
X141559185Y-169499185D01*
X141638537Y-169402494D01*
X141697502Y-169292180D01*
X141733812Y-169172482D01*
X141746072Y-169048000D01*
X141746072Y-168908000D01*
X142202678Y-168908000D01*
X142240000Y-168911676D01*
X142277322Y-168908000D01*
X142277333Y-168908000D01*
X142388986Y-168897003D01*
X142532247Y-168853546D01*
X142664276Y-168782974D01*
X142780001Y-168688001D01*
X142803804Y-168658997D01*
X146323731Y-165139072D01*
X147412000Y-165139072D01*
X147585254Y-165122008D01*
X147751850Y-165071472D01*
X147905386Y-164989405D01*
X148039962Y-164878962D01*
X148150405Y-164744386D01*
X148208954Y-164634850D01*
X148258460Y-164695695D01*
X148482513Y-164881157D01*
X148738443Y-165019345D01*
X148955110Y-165092476D01*
X149185000Y-164971155D01*
X149185000Y-163703000D01*
X149439000Y-163703000D01*
X149439000Y-164971155D01*
X149668890Y-165092476D01*
X149885557Y-165019345D01*
X150141487Y-164881157D01*
X150365540Y-164695695D01*
X150549106Y-164470086D01*
X150562000Y-164445716D01*
X150574894Y-164470086D01*
X150758460Y-164695695D01*
X150982513Y-164881157D01*
X151238443Y-165019345D01*
X151455110Y-165092476D01*
X151685000Y-164971155D01*
X151685000Y-163703000D01*
X149439000Y-163703000D01*
X149185000Y-163703000D01*
X149165000Y-163703000D01*
X149165000Y-163449000D01*
X149185000Y-163449000D01*
X149185000Y-162180845D01*
X149439000Y-162180845D01*
X149439000Y-163449000D01*
X151685000Y-163449000D01*
X151685000Y-162180845D01*
X151455110Y-162059524D01*
X151238443Y-162132655D01*
X150982513Y-162270843D01*
X150758460Y-162456305D01*
X150574894Y-162681914D01*
X150562000Y-162706284D01*
X150549106Y-162681914D01*
X150365540Y-162456305D01*
X150141487Y-162270843D01*
X149885557Y-162132655D01*
X149668890Y-162059524D01*
X149439000Y-162180845D01*
X149185000Y-162180845D01*
X148955110Y-162059524D01*
X148738443Y-162132655D01*
X148482513Y-162270843D01*
X148258460Y-162456305D01*
X148208954Y-162517150D01*
X148150405Y-162407614D01*
X148039962Y-162273038D01*
X147905386Y-162162595D01*
X147751850Y-162080528D01*
X147585254Y-162029992D01*
X147412000Y-162012928D01*
X146212000Y-162012928D01*
X146038746Y-162029992D01*
X145872150Y-162080528D01*
X145718614Y-162162595D01*
X145584038Y-162273038D01*
X145473595Y-162407614D01*
X145391528Y-162561150D01*
X145340992Y-162727746D01*
X145323928Y-162901000D01*
X145323928Y-163989269D01*
X141925199Y-167388000D01*
X141746072Y-167388000D01*
X141746072Y-167248000D01*
X141733812Y-167123518D01*
X141697502Y-167003820D01*
X141638537Y-166893506D01*
X141559185Y-166796815D01*
X141462494Y-166717463D01*
X141352180Y-166658498D01*
X141232482Y-166622188D01*
X141108000Y-166609928D01*
X140970290Y-166609928D01*
X140968000Y-166586677D01*
X140968000Y-166586667D01*
X140957003Y-166475014D01*
X140913546Y-166331753D01*
X140874537Y-166258773D01*
X140842974Y-166199723D01*
X140771799Y-166112997D01*
X140748001Y-166083999D01*
X140719003Y-166060201D01*
X139755804Y-165097002D01*
X139732001Y-165067999D01*
X139616276Y-164973026D01*
X139484247Y-164902454D01*
X139340986Y-164858997D01*
X139229333Y-164848000D01*
X139229322Y-164848000D01*
X139192000Y-164844324D01*
X139154678Y-164848000D01*
X120591711Y-164848000D01*
X120547774Y-164804063D01*
X120378256Y-164690795D01*
X120189898Y-164612774D01*
X119989939Y-164573000D01*
X119786061Y-164573000D01*
X119586102Y-164612774D01*
X119397744Y-164690795D01*
X119228226Y-164804063D01*
X119084063Y-164948226D01*
X118970795Y-165117744D01*
X118892774Y-165306102D01*
X118853000Y-165506061D01*
X115852001Y-165506061D01*
X115852001Y-165497060D01*
X115812227Y-165297101D01*
X115734206Y-165108743D01*
X115620938Y-164939225D01*
X115578257Y-164896544D01*
X118040114Y-162434688D01*
X118222665Y-162471000D01*
X118505335Y-162471000D01*
X118782574Y-162415853D01*
X119043727Y-162307680D01*
X119278759Y-162150637D01*
X119478637Y-161950759D01*
X119635680Y-161715727D01*
X119640067Y-161705135D01*
X119751615Y-161891131D01*
X119940586Y-162099519D01*
X120166580Y-162267037D01*
X120420913Y-162387246D01*
X120554961Y-162427904D01*
X120777000Y-162305915D01*
X120777000Y-161163000D01*
X120757000Y-161163000D01*
X120757000Y-160909000D01*
X120777000Y-160909000D01*
X120777000Y-159766085D01*
X120554961Y-159644096D01*
X120420913Y-159684754D01*
X120166580Y-159804963D01*
X119940586Y-159972481D01*
X119751615Y-160180869D01*
X119640067Y-160366865D01*
X119635680Y-160356273D01*
X119478637Y-160121241D01*
X119278759Y-159921363D01*
X119043727Y-159764320D01*
X118782574Y-159656147D01*
X118505335Y-159601000D01*
X118222665Y-159601000D01*
X117945426Y-159656147D01*
X117684273Y-159764320D01*
X117449241Y-159921363D01*
X117249363Y-160121241D01*
X117094000Y-160353759D01*
X116938637Y-160121241D01*
X116738759Y-159921363D01*
X116503727Y-159764320D01*
X116242574Y-159656147D01*
X115965335Y-159601000D01*
X115682665Y-159601000D01*
X115405426Y-159656147D01*
X115144273Y-159764320D01*
X114909241Y-159921363D01*
X114709363Y-160121241D01*
X114554000Y-160353759D01*
X114398637Y-160121241D01*
X114198759Y-159921363D01*
X113963727Y-159764320D01*
X113702574Y-159656147D01*
X113425335Y-159601000D01*
X113142665Y-159601000D01*
X112865426Y-159656147D01*
X112604273Y-159764320D01*
X112369241Y-159921363D01*
X112169363Y-160121241D01*
X112014000Y-160353759D01*
X111858637Y-160121241D01*
X111658759Y-159921363D01*
X111423727Y-159764320D01*
X111162574Y-159656147D01*
X110885335Y-159601000D01*
X110602665Y-159601000D01*
X110325426Y-159656147D01*
X110064273Y-159764320D01*
X109829241Y-159921363D01*
X109629363Y-160121241D01*
X109474000Y-160353759D01*
X109318637Y-160121241D01*
X109118759Y-159921363D01*
X108883727Y-159764320D01*
X108622574Y-159656147D01*
X108345335Y-159601000D01*
X108062665Y-159601000D01*
X107785426Y-159656147D01*
X107524273Y-159764320D01*
X107289241Y-159921363D01*
X107089363Y-160121241D01*
X106934000Y-160353759D01*
X106778637Y-160121241D01*
X106578759Y-159921363D01*
X106343727Y-159764320D01*
X106082574Y-159656147D01*
X105805335Y-159601000D01*
X105522665Y-159601000D01*
X105245426Y-159656147D01*
X104984273Y-159764320D01*
X104749241Y-159921363D01*
X104550643Y-160119961D01*
X104549812Y-160111518D01*
X104513502Y-159991820D01*
X104454537Y-159881506D01*
X104375185Y-159784815D01*
X104278494Y-159705463D01*
X104168180Y-159646498D01*
X104048482Y-159610188D01*
X103924000Y-159597928D01*
X102324000Y-159597928D01*
X102199518Y-159610188D01*
X102079820Y-159646498D01*
X101969506Y-159705463D01*
X101872815Y-159784815D01*
X101793463Y-159881506D01*
X101734498Y-159991820D01*
X101698188Y-160111518D01*
X101685928Y-160236000D01*
X101685928Y-160276000D01*
X96697235Y-160276000D01*
X96691727Y-160272320D01*
X96430574Y-160164147D01*
X96153335Y-160109000D01*
X95870665Y-160109000D01*
X95593426Y-160164147D01*
X95332273Y-160272320D01*
X95097241Y-160429363D01*
X94897363Y-160629241D01*
X94740320Y-160864273D01*
X94632147Y-161125426D01*
X94577000Y-161402665D01*
X94577000Y-161685335D01*
X94613312Y-161867885D01*
X90329271Y-166151928D01*
X89574000Y-166151928D01*
X89449518Y-166164188D01*
X89329820Y-166200498D01*
X89219506Y-166259463D01*
X89122815Y-166338815D01*
X89043463Y-166435506D01*
X88984498Y-166545820D01*
X88960034Y-166626466D01*
X88884269Y-166542412D01*
X88650920Y-166368359D01*
X88388099Y-166243175D01*
X88240890Y-166198524D01*
X88011000Y-166319845D01*
X88011000Y-167513000D01*
X88031000Y-167513000D01*
X88031000Y-167767000D01*
X88011000Y-167767000D01*
X88011000Y-167787000D01*
X87757000Y-167787000D01*
X87757000Y-167767000D01*
X87737000Y-167767000D01*
X87737000Y-167513000D01*
X87757000Y-167513000D01*
X87757000Y-166319845D01*
X87527110Y-166198524D01*
X87379901Y-166243175D01*
X87117080Y-166368359D01*
X86883731Y-166542412D01*
X86688822Y-166758645D01*
X86539843Y-167008748D01*
X86442519Y-167283109D01*
X86468603Y-167332803D01*
X81740598Y-162604798D01*
X81886637Y-162458759D01*
X82043680Y-162223727D01*
X82151853Y-161962574D01*
X82207000Y-161685335D01*
X82207000Y-161402665D01*
X82151853Y-161125426D01*
X82043680Y-160864273D01*
X81886637Y-160629241D01*
X81686759Y-160429363D01*
X81451727Y-160272320D01*
X81190574Y-160164147D01*
X80913335Y-160109000D01*
X80630665Y-160109000D01*
X80448115Y-160145312D01*
X77681682Y-157378881D01*
X77688072Y-157314000D01*
X77688072Y-155614000D01*
X77675812Y-155489518D01*
X77639502Y-155369820D01*
X77580537Y-155259506D01*
X77501185Y-155162815D01*
X77404494Y-155083463D01*
X77294180Y-155024498D01*
X77221620Y-155002487D01*
X77353475Y-154870632D01*
X77478178Y-154684000D01*
X81473199Y-154684000D01*
X85288200Y-158499002D01*
X85311999Y-158528001D01*
X85340997Y-158551799D01*
X85427723Y-158622974D01*
X85546485Y-158686454D01*
X85559753Y-158693546D01*
X85586044Y-158701521D01*
X85891524Y-159007002D01*
X85915323Y-159036001D01*
X86031048Y-159130974D01*
X86163077Y-159201546D01*
X86306338Y-159245003D01*
X86417991Y-159256000D01*
X86418000Y-159256000D01*
X86455323Y-159259676D01*
X86492646Y-159256000D01*
X130749199Y-159256000D01*
X131094199Y-159601000D01*
X130922665Y-159601000D01*
X130645426Y-159656147D01*
X130384273Y-159764320D01*
X130149241Y-159921363D01*
X129949363Y-160121241D01*
X129794000Y-160353759D01*
X129638637Y-160121241D01*
X129438759Y-159921363D01*
X129203727Y-159764320D01*
X128942574Y-159656147D01*
X128665335Y-159601000D01*
X128382665Y-159601000D01*
X128105426Y-159656147D01*
X127844273Y-159764320D01*
X127609241Y-159921363D01*
X127409363Y-160121241D01*
X127254000Y-160353759D01*
X127098637Y-160121241D01*
X126898759Y-159921363D01*
X126663727Y-159764320D01*
X126402574Y-159656147D01*
X126125335Y-159601000D01*
X125842665Y-159601000D01*
X125565426Y-159656147D01*
X125304273Y-159764320D01*
X125069241Y-159921363D01*
X124869363Y-160121241D01*
X124714000Y-160353759D01*
X124558637Y-160121241D01*
X124358759Y-159921363D01*
X124123727Y-159764320D01*
X123862574Y-159656147D01*
X123585335Y-159601000D01*
X123302665Y-159601000D01*
X123025426Y-159656147D01*
X122764273Y-159764320D01*
X122529241Y-159921363D01*
X122329363Y-160121241D01*
X122172320Y-160356273D01*
X122167933Y-160366865D01*
X122056385Y-160180869D01*
X121867414Y-159972481D01*
X121641420Y-159804963D01*
X121387087Y-159684754D01*
X121253039Y-159644096D01*
X121031000Y-159766085D01*
X121031000Y-160909000D01*
X121051000Y-160909000D01*
X121051000Y-161163000D01*
X121031000Y-161163000D01*
X121031000Y-162305915D01*
X121253039Y-162427904D01*
X121387087Y-162387246D01*
X121641420Y-162267037D01*
X121867414Y-162099519D01*
X122056385Y-161891131D01*
X122167933Y-161705135D01*
X122172320Y-161715727D01*
X122329363Y-161950759D01*
X122529241Y-162150637D01*
X122764273Y-162307680D01*
X123025426Y-162415853D01*
X123302665Y-162471000D01*
X123585335Y-162471000D01*
X123862574Y-162415853D01*
X124123727Y-162307680D01*
X124358759Y-162150637D01*
X124558637Y-161950759D01*
X124714000Y-161718241D01*
X124869363Y-161950759D01*
X125069241Y-162150637D01*
X125304273Y-162307680D01*
X125565426Y-162415853D01*
X125842665Y-162471000D01*
X126125335Y-162471000D01*
X126402574Y-162415853D01*
X126663727Y-162307680D01*
X126898759Y-162150637D01*
X127098637Y-161950759D01*
X127254000Y-161718241D01*
X127409363Y-161950759D01*
X127609241Y-162150637D01*
X127844273Y-162307680D01*
X128105426Y-162415853D01*
X128382665Y-162471000D01*
X128665335Y-162471000D01*
X128942574Y-162415853D01*
X129203727Y-162307680D01*
X129438759Y-162150637D01*
X129638637Y-161950759D01*
X129794000Y-161718241D01*
X129949363Y-161950759D01*
X130149241Y-162150637D01*
X130384273Y-162307680D01*
X130645426Y-162415853D01*
X130922665Y-162471000D01*
X131205335Y-162471000D01*
X131482574Y-162415853D01*
X131743727Y-162307680D01*
X131978759Y-162150637D01*
X132178637Y-161950759D01*
X132334000Y-161718241D01*
X132489363Y-161950759D01*
X132689241Y-162150637D01*
X132924273Y-162307680D01*
X133185426Y-162415853D01*
X133462665Y-162471000D01*
X133745335Y-162471000D01*
X134022574Y-162415853D01*
X134283727Y-162307680D01*
X134518759Y-162150637D01*
X134718637Y-161950759D01*
X134874000Y-161718241D01*
X135029363Y-161950759D01*
X135229241Y-162150637D01*
X135464273Y-162307680D01*
X135725426Y-162415853D01*
X136002665Y-162471000D01*
X136285335Y-162471000D01*
X136562574Y-162415853D01*
X136823727Y-162307680D01*
X137058759Y-162150637D01*
X137258637Y-161950759D01*
X137415680Y-161715727D01*
X137523853Y-161454574D01*
X137579000Y-161177335D01*
X137579000Y-160894665D01*
X137523853Y-160617426D01*
X137415680Y-160356273D01*
X137258637Y-160121241D01*
X137058759Y-159921363D01*
X136823727Y-159764320D01*
X136562574Y-159656147D01*
X136285335Y-159601000D01*
X136002665Y-159601000D01*
X135820115Y-159637312D01*
X133151801Y-156969000D01*
X133128001Y-156939999D01*
X133012276Y-156845026D01*
X132880247Y-156774454D01*
X132736986Y-156730997D01*
X132625333Y-156720000D01*
X132625322Y-156720000D01*
X132588000Y-156716324D01*
X132550678Y-156720000D01*
X86814800Y-156720000D01*
X82859804Y-152765005D01*
X82836001Y-152736001D01*
X82720276Y-152641028D01*
X82588247Y-152570456D01*
X82561957Y-152562481D01*
X81077666Y-151078190D01*
X86032036Y-151078190D01*
X86157837Y-151257000D01*
X87249000Y-151257000D01*
X87249000Y-150377402D01*
X87503000Y-150377402D01*
X87503000Y-151257000D01*
X88594163Y-151257000D01*
X88719964Y-151078190D01*
X94668036Y-151078190D01*
X94793837Y-151257000D01*
X95885000Y-151257000D01*
X95885000Y-150377402D01*
X96139000Y-150377402D01*
X96139000Y-151257000D01*
X97230163Y-151257000D01*
X97355964Y-151078190D01*
X97347272Y-151016663D01*
X97254275Y-150807118D01*
X97122184Y-150619742D01*
X96956076Y-150461736D01*
X96762334Y-150339172D01*
X96548404Y-150256761D01*
X96322507Y-150217669D01*
X96139000Y-150377402D01*
X95885000Y-150377402D01*
X95701493Y-150217669D01*
X95475596Y-150256761D01*
X95261666Y-150339172D01*
X95067924Y-150461736D01*
X94901816Y-150619742D01*
X94769725Y-150807118D01*
X94676728Y-151016663D01*
X94668036Y-151078190D01*
X88719964Y-151078190D01*
X88711272Y-151016663D01*
X88618275Y-150807118D01*
X88486184Y-150619742D01*
X88320076Y-150461736D01*
X88126334Y-150339172D01*
X87912404Y-150256761D01*
X87686507Y-150217669D01*
X87503000Y-150377402D01*
X87249000Y-150377402D01*
X87065493Y-150217669D01*
X86839596Y-150256761D01*
X86625666Y-150339172D01*
X86431924Y-150461736D01*
X86265816Y-150619742D01*
X86133725Y-150807118D01*
X86040728Y-151016663D01*
X86032036Y-151078190D01*
X81077666Y-151078190D01*
X80872478Y-150873003D01*
X80848675Y-150843999D01*
X80732950Y-150749026D01*
X80600921Y-150678454D01*
X80457660Y-150634997D01*
X80346007Y-150624000D01*
X80345996Y-150624000D01*
X80308674Y-150620324D01*
X80271352Y-150624000D01*
X77478178Y-150624000D01*
X77353475Y-150437368D01*
X77146632Y-150230525D01*
X76964466Y-150108805D01*
X77081355Y-150039178D01*
X77297588Y-149844269D01*
X77471641Y-149610920D01*
X77596825Y-149348099D01*
X77641476Y-149200890D01*
X77520155Y-148971000D01*
X76327000Y-148971000D01*
X76327000Y-148991000D01*
X76073000Y-148991000D01*
X76073000Y-148971000D01*
X74879845Y-148971000D01*
X74758524Y-149200890D01*
X74803175Y-149348099D01*
X74928359Y-149610920D01*
X75102412Y-149844269D01*
X75318645Y-150039178D01*
X75435534Y-150108805D01*
X75253368Y-150230525D01*
X75046525Y-150437368D01*
X74884010Y-150680589D01*
X74772068Y-150950842D01*
X74715000Y-151237740D01*
X74715000Y-151530260D01*
X74772068Y-151817158D01*
X74884010Y-152087411D01*
X75046525Y-152330632D01*
X75253368Y-152537475D01*
X75427760Y-152654000D01*
X75253368Y-152770525D01*
X75046525Y-152977368D01*
X74884010Y-153220589D01*
X74772068Y-153490842D01*
X74715000Y-153777740D01*
X74715000Y-154070260D01*
X74772068Y-154357158D01*
X74884010Y-154627411D01*
X75046525Y-154870632D01*
X75178380Y-155002487D01*
X75105820Y-155024498D01*
X74995506Y-155083463D01*
X74898815Y-155162815D01*
X74819463Y-155259506D01*
X74760498Y-155369820D01*
X74724188Y-155489518D01*
X74711928Y-155614000D01*
X72263000Y-155614000D01*
X72263000Y-148487110D01*
X74758524Y-148487110D01*
X74879845Y-148717000D01*
X76073000Y-148717000D01*
X76073000Y-147523186D01*
X76327000Y-147523186D01*
X76327000Y-148717000D01*
X77520155Y-148717000D01*
X77641476Y-148487110D01*
X77596825Y-148339901D01*
X77471641Y-148077080D01*
X77297588Y-147843731D01*
X77081355Y-147648822D01*
X76831252Y-147499843D01*
X76556891Y-147402519D01*
X76327000Y-147523186D01*
X76073000Y-147523186D01*
X75843109Y-147402519D01*
X75568748Y-147499843D01*
X75318645Y-147648822D01*
X75102412Y-147843731D01*
X74928359Y-148077080D01*
X74803175Y-148339901D01*
X74758524Y-148487110D01*
X72263000Y-148487110D01*
X72263000Y-144018000D01*
X85985388Y-144018000D01*
X86007785Y-144245400D01*
X86071093Y-144454098D01*
X86036498Y-144518820D01*
X86000188Y-144638518D01*
X85987928Y-144763000D01*
X85987928Y-145813000D01*
X86000188Y-145937482D01*
X86036498Y-146057180D01*
X86095463Y-146167494D01*
X86174815Y-146264185D01*
X86271506Y-146343537D01*
X86381820Y-146402502D01*
X86501518Y-146438812D01*
X86626000Y-146451072D01*
X88126000Y-146451072D01*
X88250482Y-146438812D01*
X88370180Y-146402502D01*
X88480494Y-146343537D01*
X88577185Y-146264185D01*
X88656537Y-146167494D01*
X88715502Y-146057180D01*
X88718287Y-146048000D01*
X93157199Y-146048000D01*
X94977000Y-147867803D01*
X94977000Y-147929939D01*
X95016774Y-148129898D01*
X95094795Y-148318256D01*
X95208063Y-148487774D01*
X95352226Y-148631937D01*
X95521744Y-148745205D01*
X95710102Y-148823226D01*
X95910061Y-148863000D01*
X96113939Y-148863000D01*
X96313898Y-148823226D01*
X96502256Y-148745205D01*
X96671774Y-148631937D01*
X96815937Y-148487774D01*
X96929205Y-148318256D01*
X97007226Y-148129898D01*
X97047000Y-147929939D01*
X97047000Y-147726061D01*
X97007226Y-147526102D01*
X96929205Y-147337744D01*
X96815937Y-147168226D01*
X96671774Y-147024063D01*
X96502256Y-146910795D01*
X96313898Y-146832774D01*
X96113939Y-146793000D01*
X96051803Y-146793000D01*
X94036801Y-144778000D01*
X95720678Y-144778000D01*
X95758000Y-144781676D01*
X95760000Y-144781479D01*
X95760000Y-145250677D01*
X95756324Y-145288000D01*
X95760000Y-145325322D01*
X95760000Y-145325332D01*
X95770997Y-145436985D01*
X95785728Y-145485546D01*
X95814454Y-145580246D01*
X95885026Y-145712276D01*
X95908375Y-145740726D01*
X95979999Y-145828001D01*
X96009002Y-145851803D01*
X96823210Y-146666012D01*
X96847009Y-146695011D01*
X96962734Y-146789984D01*
X97094763Y-146860556D01*
X97238024Y-146904013D01*
X97349677Y-146915010D01*
X97349686Y-146915010D01*
X97387009Y-146918686D01*
X97424332Y-146915010D01*
X99612209Y-146915010D01*
X99824001Y-147126803D01*
X99824000Y-151577198D01*
X99507199Y-151894000D01*
X97283958Y-151894000D01*
X97347272Y-151751337D01*
X97355964Y-151689810D01*
X97230163Y-151511000D01*
X96465109Y-151511000D01*
X96464400Y-151510785D01*
X96293979Y-151494000D01*
X95730021Y-151494000D01*
X95559600Y-151510785D01*
X95558891Y-151511000D01*
X94793837Y-151511000D01*
X94668036Y-151689810D01*
X94676728Y-151751337D01*
X94740042Y-151894000D01*
X88647958Y-151894000D01*
X88711272Y-151751337D01*
X88719964Y-151689810D01*
X88594163Y-151511000D01*
X87829109Y-151511000D01*
X87828400Y-151510785D01*
X87657979Y-151494000D01*
X87094021Y-151494000D01*
X86923600Y-151510785D01*
X86922891Y-151511000D01*
X86157837Y-151511000D01*
X86032036Y-151689810D01*
X86040728Y-151751337D01*
X86133725Y-151960882D01*
X86174929Y-152019331D01*
X86074115Y-152207940D01*
X86007785Y-152426600D01*
X85985388Y-152654000D01*
X86007785Y-152881400D01*
X86071093Y-153090098D01*
X86036498Y-153154820D01*
X86000188Y-153274518D01*
X85987928Y-153399000D01*
X85987928Y-154449000D01*
X86000188Y-154573482D01*
X86036498Y-154693180D01*
X86095463Y-154803494D01*
X86174815Y-154900185D01*
X86271506Y-154979537D01*
X86381820Y-155038502D01*
X86501518Y-155074812D01*
X86559335Y-155080506D01*
X86559335Y-155144686D01*
X86555659Y-155182009D01*
X86559335Y-155219334D01*
X86559335Y-155219341D01*
X86570332Y-155330994D01*
X86613789Y-155474255D01*
X86684361Y-155606284D01*
X86779334Y-155722010D01*
X86895059Y-155816983D01*
X87027088Y-155887555D01*
X87170349Y-155931012D01*
X87319335Y-155945686D01*
X87356678Y-155942008D01*
X142167209Y-155942010D01*
X144431677Y-158206478D01*
X144347204Y-158410413D01*
X144269000Y-158803570D01*
X144269000Y-159204430D01*
X144347204Y-159597587D01*
X144500607Y-159967934D01*
X144723313Y-160301237D01*
X145006763Y-160584687D01*
X145340066Y-160807393D01*
X145710413Y-160960796D01*
X146103570Y-161039000D01*
X146504430Y-161039000D01*
X146897587Y-160960796D01*
X147267934Y-160807393D01*
X147601237Y-160584687D01*
X147884687Y-160301237D01*
X148107393Y-159967934D01*
X148260796Y-159597587D01*
X148339000Y-159204430D01*
X148339000Y-158803570D01*
X148260796Y-158410413D01*
X148176323Y-158206479D01*
X149158803Y-157224000D01*
X152398727Y-157224000D01*
X152441583Y-157304179D01*
X152629655Y-157533345D01*
X152695114Y-157587066D01*
X152585613Y-157645595D01*
X152451038Y-157756038D01*
X152340595Y-157890613D01*
X152258528Y-158044149D01*
X152207992Y-158210745D01*
X152190928Y-158383999D01*
X152190928Y-159624001D01*
X152207992Y-159797255D01*
X152258528Y-159963851D01*
X152340595Y-160117387D01*
X152451038Y-160251962D01*
X152585613Y-160362405D01*
X152739149Y-160444472D01*
X152905745Y-160495008D01*
X153078999Y-160512072D01*
X153552001Y-160512072D01*
X153552000Y-162223405D01*
X153482986Y-162260294D01*
X153256866Y-162445866D01*
X153071294Y-162671987D01*
X153057504Y-162697786D01*
X153049106Y-162681914D01*
X152865540Y-162456305D01*
X152641487Y-162270843D01*
X152385557Y-162132655D01*
X152168890Y-162059524D01*
X151939000Y-162180845D01*
X151939000Y-163449000D01*
X151959000Y-163449000D01*
X151959000Y-163703000D01*
X151939000Y-163703000D01*
X151939000Y-164971155D01*
X152168890Y-165092476D01*
X152385557Y-165019345D01*
X152641487Y-164881157D01*
X152865540Y-164695695D01*
X153049106Y-164470086D01*
X153057504Y-164454214D01*
X153071294Y-164480014D01*
X153256866Y-164706134D01*
X153482987Y-164891706D01*
X153740967Y-165029599D01*
X154020890Y-165114513D01*
X154312000Y-165143185D01*
X154603111Y-165114513D01*
X154883034Y-165029599D01*
X155141014Y-164891706D01*
X155367134Y-164706134D01*
X155552706Y-164480013D01*
X155690599Y-164222033D01*
X155775513Y-163942110D01*
X155797000Y-163723949D01*
X155797000Y-163428050D01*
X155775513Y-163209889D01*
X155690599Y-162929966D01*
X155552706Y-162671986D01*
X155367134Y-162445866D01*
X155141013Y-162260294D01*
X155072000Y-162223406D01*
X155072000Y-160455651D01*
X155108851Y-160444472D01*
X155262387Y-160362405D01*
X155396962Y-160251962D01*
X155507405Y-160117387D01*
X155589472Y-159963851D01*
X155640008Y-159797255D01*
X155657072Y-159624001D01*
X155657072Y-158383999D01*
X155653641Y-158349162D01*
X156155019Y-157847784D01*
X156184011Y-157823991D01*
X156207805Y-157794998D01*
X156207809Y-157794994D01*
X156278983Y-157708267D01*
X156278984Y-157708266D01*
X156349556Y-157576237D01*
X156393013Y-157432976D01*
X156404010Y-157321323D01*
X156404010Y-157321314D01*
X156407686Y-157283991D01*
X156404010Y-157246668D01*
X156404010Y-153649332D01*
X156407686Y-153612009D01*
X156404010Y-153574686D01*
X156404010Y-153574677D01*
X156393013Y-153463024D01*
X156349556Y-153319763D01*
X156278984Y-153187734D01*
X156229155Y-153127017D01*
X156207809Y-153101006D01*
X156207805Y-153101002D01*
X156184011Y-153072009D01*
X156155018Y-153048215D01*
X155653641Y-152546838D01*
X155657072Y-152512001D01*
X155657072Y-151271999D01*
X155653641Y-151237162D01*
X156155019Y-150735784D01*
X156184011Y-150711991D01*
X156207805Y-150682998D01*
X156207809Y-150682994D01*
X156268191Y-150609417D01*
X156278984Y-150596266D01*
X156349556Y-150464237D01*
X156393013Y-150320976D01*
X156404010Y-150209323D01*
X156404010Y-150209314D01*
X156407686Y-150171991D01*
X156404010Y-150134668D01*
X156404010Y-146537332D01*
X156407686Y-146500009D01*
X156404010Y-146462686D01*
X156404010Y-146462677D01*
X156393013Y-146351024D01*
X156349556Y-146207763D01*
X156278984Y-146075734D01*
X156259241Y-146051677D01*
X156207809Y-145989006D01*
X156207805Y-145989002D01*
X156184011Y-145960009D01*
X156155018Y-145936215D01*
X155653641Y-145434838D01*
X155657072Y-145400001D01*
X155657072Y-144159999D01*
X155640008Y-143986745D01*
X155589472Y-143820149D01*
X155507405Y-143666613D01*
X155396962Y-143532038D01*
X155262387Y-143421595D01*
X155152886Y-143363066D01*
X155218345Y-143309345D01*
X155406417Y-143080179D01*
X155546166Y-142818725D01*
X155632224Y-142535032D01*
X155661282Y-142240000D01*
X155632224Y-141944968D01*
X155546166Y-141661275D01*
X155406417Y-141399821D01*
X155218345Y-141170655D01*
X154989179Y-140982583D01*
X154727725Y-140842834D01*
X154444032Y-140756776D01*
X154222936Y-140735000D01*
X153625064Y-140735000D01*
X153403968Y-140756776D01*
X153120275Y-140842834D01*
X152858821Y-140982583D01*
X152629655Y-141170655D01*
X152441583Y-141399821D01*
X152301834Y-141661275D01*
X152215776Y-141944968D01*
X152186718Y-142240000D01*
X152211932Y-142496000D01*
X142095865Y-142496000D01*
X142011393Y-142292066D01*
X141788687Y-141958763D01*
X141505237Y-141675313D01*
X141171934Y-141452607D01*
X140801587Y-141299204D01*
X140408430Y-141221000D01*
X140007570Y-141221000D01*
X139614413Y-141299204D01*
X139410478Y-141383677D01*
X137989794Y-139962993D01*
X137965991Y-139933989D01*
X137850266Y-139839016D01*
X137718237Y-139768444D01*
X137574976Y-139724987D01*
X137463323Y-139713990D01*
X137463312Y-139713990D01*
X137425990Y-139710314D01*
X137388668Y-139713990D01*
X94259332Y-139713990D01*
X94222009Y-139710314D01*
X94184686Y-139713990D01*
X94184677Y-139713990D01*
X94073024Y-139724987D01*
X93929763Y-139768444D01*
X93797734Y-139839016D01*
X93682009Y-139933989D01*
X93658211Y-139962987D01*
X92142455Y-141478744D01*
X92099774Y-141436063D01*
X91930256Y-141322795D01*
X91741898Y-141244774D01*
X91541939Y-141205000D01*
X91338061Y-141205000D01*
X91138102Y-141244774D01*
X90949744Y-141322795D01*
X90780226Y-141436063D01*
X90636063Y-141580226D01*
X90522795Y-141749744D01*
X90444774Y-141938102D01*
X90405000Y-142138061D01*
X90405000Y-142341939D01*
X90444774Y-142541898D01*
X90522795Y-142730256D01*
X90636063Y-142899774D01*
X90780226Y-143043937D01*
X90949744Y-143157205D01*
X91138102Y-143235226D01*
X91252596Y-143258000D01*
X88647958Y-143258000D01*
X88711272Y-143115337D01*
X88719964Y-143053810D01*
X88594163Y-142875000D01*
X87829109Y-142875000D01*
X87828400Y-142874785D01*
X87657979Y-142858000D01*
X87094021Y-142858000D01*
X86923600Y-142874785D01*
X86922891Y-142875000D01*
X86157837Y-142875000D01*
X86032036Y-143053810D01*
X86040728Y-143115337D01*
X86133725Y-143324882D01*
X86174929Y-143383331D01*
X86074115Y-143571940D01*
X86007785Y-143790600D01*
X85985388Y-144018000D01*
X72263000Y-144018000D01*
X72263000Y-142442190D01*
X86032036Y-142442190D01*
X86157837Y-142621000D01*
X87249000Y-142621000D01*
X87249000Y-141741402D01*
X87503000Y-141741402D01*
X87503000Y-142621000D01*
X88594163Y-142621000D01*
X88719964Y-142442190D01*
X88711272Y-142380663D01*
X88618275Y-142171118D01*
X88486184Y-141983742D01*
X88320076Y-141825736D01*
X88126334Y-141703172D01*
X87912404Y-141620761D01*
X87686507Y-141581669D01*
X87503000Y-141741402D01*
X87249000Y-141741402D01*
X87065493Y-141581669D01*
X86839596Y-141620761D01*
X86625666Y-141703172D01*
X86431924Y-141825736D01*
X86265816Y-141983742D01*
X86133725Y-142171118D01*
X86040728Y-142380663D01*
X86032036Y-142442190D01*
X72263000Y-142442190D01*
X72263000Y-137795000D01*
X160401000Y-137795000D01*
X160401000Y-173101000D01*
G36*
X119884998Y-142184201D02*
G01*
X119856000Y-142207999D01*
X119832202Y-142236997D01*
X119832201Y-142236998D01*
X119761026Y-142323724D01*
X119690454Y-142455754D01*
X119646998Y-142599015D01*
X119632324Y-142748000D01*
X119636001Y-142785332D01*
X119636000Y-145250677D01*
X119632324Y-145288000D01*
X119636000Y-145325322D01*
X119636000Y-145325332D01*
X119646997Y-145436985D01*
X119661728Y-145485546D01*
X119690454Y-145580246D01*
X119761026Y-145712276D01*
X119784375Y-145740726D01*
X119855999Y-145828001D01*
X119885003Y-145851804D01*
X121412318Y-147379119D01*
X121405928Y-147444000D01*
X121405928Y-149656128D01*
X117600000Y-145850201D01*
X117600000Y-144474043D01*
X117754759Y-144370637D01*
X117954637Y-144170759D01*
X118111680Y-143935727D01*
X118219853Y-143674574D01*
X118275000Y-143397335D01*
X118275000Y-143114665D01*
X118219853Y-142837426D01*
X118111680Y-142576273D01*
X117954637Y-142341241D01*
X117754759Y-142141363D01*
X117519727Y-141984320D01*
X117258574Y-141876147D01*
X116981335Y-141821000D01*
X116698665Y-141821000D01*
X116421426Y-141876147D01*
X116160273Y-141984320D01*
X115925241Y-142141363D01*
X115725363Y-142341241D01*
X115568320Y-142576273D01*
X115460147Y-142837426D01*
X115405000Y-143114665D01*
X115405000Y-143397335D01*
X115460147Y-143674574D01*
X115568320Y-143935727D01*
X115725363Y-144170759D01*
X115925241Y-144370637D01*
X116080001Y-144474044D01*
X116080000Y-146127679D01*
X116076324Y-146165002D01*
X116080000Y-146202324D01*
X116080000Y-146202334D01*
X116090997Y-146313987D01*
X116128862Y-146438812D01*
X116134454Y-146457248D01*
X116205026Y-146589278D01*
X116244871Y-146637828D01*
X116299999Y-146705003D01*
X116329003Y-146728806D01*
X120980199Y-151380003D01*
X121003998Y-151409002D01*
X121119723Y-151503975D01*
X121251752Y-151574547D01*
X121395013Y-151618004D01*
X121506666Y-151629001D01*
X121506675Y-151629001D01*
X121543998Y-151632677D01*
X121581321Y-151629001D01*
X128202200Y-151629001D01*
X128554199Y-151981000D01*
X128382665Y-151981000D01*
X128105426Y-152036147D01*
X127844273Y-152144320D01*
X127609241Y-152301363D01*
X127409363Y-152501241D01*
X127254000Y-152733759D01*
X127098637Y-152501241D01*
X126898759Y-152301363D01*
X126663727Y-152144320D01*
X126402574Y-152036147D01*
X126125335Y-151981000D01*
X125842665Y-151981000D01*
X125565426Y-152036147D01*
X125304273Y-152144320D01*
X125069241Y-152301363D01*
X124869363Y-152501241D01*
X124714000Y-152733759D01*
X124558637Y-152501241D01*
X124358759Y-152301363D01*
X124123727Y-152144320D01*
X123862574Y-152036147D01*
X123585335Y-151981000D01*
X123302665Y-151981000D01*
X123025426Y-152036147D01*
X122764273Y-152144320D01*
X122529241Y-152301363D01*
X122329363Y-152501241D01*
X122174000Y-152733759D01*
X122018637Y-152501241D01*
X121818759Y-152301363D01*
X121583727Y-152144320D01*
X121322574Y-152036147D01*
X121045335Y-151981000D01*
X120762665Y-151981000D01*
X120485426Y-152036147D01*
X120224273Y-152144320D01*
X119989241Y-152301363D01*
X119789363Y-152501241D01*
X119632320Y-152736273D01*
X119627933Y-152746865D01*
X119516385Y-152560869D01*
X119327414Y-152352481D01*
X119101420Y-152184963D01*
X118847087Y-152064754D01*
X118713039Y-152024096D01*
X118491000Y-152146085D01*
X118491000Y-153289000D01*
X118511000Y-153289000D01*
X118511000Y-153543000D01*
X118491000Y-153543000D01*
X118491000Y-153563000D01*
X118237000Y-153563000D01*
X118237000Y-153543000D01*
X118217000Y-153543000D01*
X118217000Y-153289000D01*
X118237000Y-153289000D01*
X118237000Y-152146085D01*
X118014961Y-152024096D01*
X117880913Y-152064754D01*
X117626580Y-152184963D01*
X117400586Y-152352481D01*
X117211615Y-152560869D01*
X117100067Y-152746865D01*
X117095680Y-152736273D01*
X116938637Y-152501241D01*
X116738759Y-152301363D01*
X116503727Y-152144320D01*
X116242574Y-152036147D01*
X115965335Y-151981000D01*
X115682665Y-151981000D01*
X115405426Y-152036147D01*
X115144273Y-152144320D01*
X114909241Y-152301363D01*
X114709363Y-152501241D01*
X114554000Y-152733759D01*
X114398637Y-152501241D01*
X114198759Y-152301363D01*
X113963727Y-152144320D01*
X113702574Y-152036147D01*
X113425335Y-151981000D01*
X113142665Y-151981000D01*
X112865426Y-152036147D01*
X112604273Y-152144320D01*
X112369241Y-152301363D01*
X112169363Y-152501241D01*
X112014000Y-152733759D01*
X111858637Y-152501241D01*
X111658759Y-152301363D01*
X111423727Y-152144320D01*
X111162574Y-152036147D01*
X110885335Y-151981000D01*
X110602665Y-151981000D01*
X110325426Y-152036147D01*
X110064273Y-152144320D01*
X109829241Y-152301363D01*
X109629363Y-152501241D01*
X109474000Y-152733759D01*
X109318637Y-152501241D01*
X109118759Y-152301363D01*
X108883727Y-152144320D01*
X108622574Y-152036147D01*
X108345335Y-151981000D01*
X108062665Y-151981000D01*
X107785426Y-152036147D01*
X107524273Y-152144320D01*
X107289241Y-152301363D01*
X107089363Y-152501241D01*
X106934000Y-152733759D01*
X106778637Y-152501241D01*
X106578759Y-152301363D01*
X106343727Y-152144320D01*
X106082574Y-152036147D01*
X105805335Y-151981000D01*
X105522665Y-151981000D01*
X105245426Y-152036147D01*
X104984273Y-152144320D01*
X104749241Y-152301363D01*
X104549363Y-152501241D01*
X104394000Y-152733759D01*
X104238637Y-152501241D01*
X104038759Y-152301363D01*
X103803727Y-152144320D01*
X103542574Y-152036147D01*
X103265335Y-151981000D01*
X102982665Y-151981000D01*
X102705426Y-152036147D01*
X102444273Y-152144320D01*
X102209241Y-152301363D01*
X102009363Y-152501241D01*
X101852320Y-152736273D01*
X101744147Y-152997426D01*
X101689000Y-153274665D01*
X101689000Y-153557335D01*
X101744147Y-153834574D01*
X101852320Y-154095727D01*
X102009363Y-154330759D01*
X102100614Y-154422010D01*
X97400072Y-154422009D01*
X97400072Y-153414000D01*
X99784678Y-153414000D01*
X99822000Y-153417676D01*
X99859322Y-153414000D01*
X99859333Y-153414000D01*
X99970986Y-153403003D01*
X100114247Y-153359546D01*
X100246276Y-153288974D01*
X100362001Y-153194001D01*
X100385803Y-153164998D01*
X101095004Y-152455798D01*
X101124001Y-152432001D01*
X101218974Y-152316276D01*
X101289546Y-152184247D01*
X101333003Y-152040986D01*
X101344000Y-151929333D01*
X101344000Y-151929325D01*
X101347676Y-151892000D01*
X101344000Y-151854675D01*
X101344000Y-146849322D01*
X101347676Y-146811999D01*
X101344000Y-146774676D01*
X101344000Y-146774667D01*
X101333003Y-146663014D01*
X101289546Y-146519753D01*
X101218974Y-146387724D01*
X101124001Y-146271999D01*
X101095002Y-146248200D01*
X100490813Y-145644012D01*
X100467011Y-145615009D01*
X100351286Y-145520036D01*
X100219257Y-145449464D01*
X100075996Y-145406007D01*
X99964343Y-145395010D01*
X99964332Y-145395010D01*
X99927010Y-145391334D01*
X99889688Y-145395010D01*
X97701812Y-145395010D01*
X97280000Y-144973199D01*
X97280000Y-144474043D01*
X97434759Y-144370637D01*
X97634637Y-144170759D01*
X97791680Y-143935727D01*
X97899853Y-143674574D01*
X97955000Y-143397335D01*
X97955000Y-143114665D01*
X97899853Y-142837426D01*
X97791680Y-142576273D01*
X97634637Y-142341241D01*
X97434759Y-142141363D01*
X97199727Y-141984320D01*
X96938574Y-141876147D01*
X96661335Y-141821000D01*
X96378665Y-141821000D01*
X96101426Y-141876147D01*
X95840273Y-141984320D01*
X95605241Y-142141363D01*
X95405363Y-142341241D01*
X95248320Y-142576273D01*
X95140147Y-142837426D01*
X95085000Y-143114665D01*
X95085000Y-143258000D01*
X91627404Y-143258000D01*
X91741898Y-143235226D01*
X91930256Y-143157205D01*
X92099774Y-143043937D01*
X92143711Y-143000000D01*
X92418678Y-143000000D01*
X92456000Y-143003676D01*
X92493322Y-143000000D01*
X92493333Y-143000000D01*
X92604986Y-142989003D01*
X92748247Y-142945546D01*
X92880276Y-142874974D01*
X92996001Y-142780001D01*
X93019804Y-142750997D01*
X94536812Y-141233990D01*
X120835208Y-141233990D01*
X119884998Y-142184201D01*
G37*
X119884998Y-142184201D02*
X119856000Y-142207999D01*
X119832202Y-142236997D01*
X119832201Y-142236998D01*
X119761026Y-142323724D01*
X119690454Y-142455754D01*
X119646998Y-142599015D01*
X119632324Y-142748000D01*
X119636001Y-142785332D01*
X119636000Y-145250677D01*
X119632324Y-145288000D01*
X119636000Y-145325322D01*
X119636000Y-145325332D01*
X119646997Y-145436985D01*
X119661728Y-145485546D01*
X119690454Y-145580246D01*
X119761026Y-145712276D01*
X119784375Y-145740726D01*
X119855999Y-145828001D01*
X119885003Y-145851804D01*
X121412318Y-147379119D01*
X121405928Y-147444000D01*
X121405928Y-149656128D01*
X117600000Y-145850201D01*
X117600000Y-144474043D01*
X117754759Y-144370637D01*
X117954637Y-144170759D01*
X118111680Y-143935727D01*
X118219853Y-143674574D01*
X118275000Y-143397335D01*
X118275000Y-143114665D01*
X118219853Y-142837426D01*
X118111680Y-142576273D01*
X117954637Y-142341241D01*
X117754759Y-142141363D01*
X117519727Y-141984320D01*
X117258574Y-141876147D01*
X116981335Y-141821000D01*
X116698665Y-141821000D01*
X116421426Y-141876147D01*
X116160273Y-141984320D01*
X115925241Y-142141363D01*
X115725363Y-142341241D01*
X115568320Y-142576273D01*
X115460147Y-142837426D01*
X115405000Y-143114665D01*
X115405000Y-143397335D01*
X115460147Y-143674574D01*
X115568320Y-143935727D01*
X115725363Y-144170759D01*
X115925241Y-144370637D01*
X116080001Y-144474044D01*
X116080000Y-146127679D01*
X116076324Y-146165002D01*
X116080000Y-146202324D01*
X116080000Y-146202334D01*
X116090997Y-146313987D01*
X116128862Y-146438812D01*
X116134454Y-146457248D01*
X116205026Y-146589278D01*
X116244871Y-146637828D01*
X116299999Y-146705003D01*
X116329003Y-146728806D01*
X120980199Y-151380003D01*
X121003998Y-151409002D01*
X121119723Y-151503975D01*
X121251752Y-151574547D01*
X121395013Y-151618004D01*
X121506666Y-151629001D01*
X121506675Y-151629001D01*
X121543998Y-151632677D01*
X121581321Y-151629001D01*
X128202200Y-151629001D01*
X128554199Y-151981000D01*
X128382665Y-151981000D01*
X128105426Y-152036147D01*
X127844273Y-152144320D01*
X127609241Y-152301363D01*
X127409363Y-152501241D01*
X127254000Y-152733759D01*
X127098637Y-152501241D01*
X126898759Y-152301363D01*
X126663727Y-152144320D01*
X126402574Y-152036147D01*
X126125335Y-151981000D01*
X125842665Y-151981000D01*
X125565426Y-152036147D01*
X125304273Y-152144320D01*
X125069241Y-152301363D01*
X124869363Y-152501241D01*
X124714000Y-152733759D01*
X124558637Y-152501241D01*
X124358759Y-152301363D01*
X124123727Y-152144320D01*
X123862574Y-152036147D01*
X123585335Y-151981000D01*
X123302665Y-151981000D01*
X123025426Y-152036147D01*
X122764273Y-152144320D01*
X122529241Y-152301363D01*
X122329363Y-152501241D01*
X122174000Y-152733759D01*
X122018637Y-152501241D01*
X121818759Y-152301363D01*
X121583727Y-152144320D01*
X121322574Y-152036147D01*
X121045335Y-151981000D01*
X120762665Y-151981000D01*
X120485426Y-152036147D01*
X120224273Y-152144320D01*
X119989241Y-152301363D01*
X119789363Y-152501241D01*
X119632320Y-152736273D01*
X119627933Y-152746865D01*
X119516385Y-152560869D01*
X119327414Y-152352481D01*
X119101420Y-152184963D01*
X118847087Y-152064754D01*
X118713039Y-152024096D01*
X118491000Y-152146085D01*
X118491000Y-153289000D01*
X118511000Y-153289000D01*
X118511000Y-153543000D01*
X118491000Y-153543000D01*
X118491000Y-153563000D01*
X118237000Y-153563000D01*
X118237000Y-153543000D01*
X118217000Y-153543000D01*
X118217000Y-153289000D01*
X118237000Y-153289000D01*
X118237000Y-152146085D01*
X118014961Y-152024096D01*
X117880913Y-152064754D01*
X117626580Y-152184963D01*
X117400586Y-152352481D01*
X117211615Y-152560869D01*
X117100067Y-152746865D01*
X117095680Y-152736273D01*
X116938637Y-152501241D01*
X116738759Y-152301363D01*
X116503727Y-152144320D01*
X116242574Y-152036147D01*
X115965335Y-151981000D01*
X115682665Y-151981000D01*
X115405426Y-152036147D01*
X115144273Y-152144320D01*
X114909241Y-152301363D01*
X114709363Y-152501241D01*
X114554000Y-152733759D01*
X114398637Y-152501241D01*
X114198759Y-152301363D01*
X113963727Y-152144320D01*
X113702574Y-152036147D01*
X113425335Y-151981000D01*
X113142665Y-151981000D01*
X112865426Y-152036147D01*
X112604273Y-152144320D01*
X112369241Y-152301363D01*
X112169363Y-152501241D01*
X112014000Y-152733759D01*
X111858637Y-152501241D01*
X111658759Y-152301363D01*
X111423727Y-152144320D01*
X111162574Y-152036147D01*
X110885335Y-151981000D01*
X110602665Y-151981000D01*
X110325426Y-152036147D01*
X110064273Y-152144320D01*
X109829241Y-152301363D01*
X109629363Y-152501241D01*
X109474000Y-152733759D01*
X109318637Y-152501241D01*
X109118759Y-152301363D01*
X108883727Y-152144320D01*
X108622574Y-152036147D01*
X108345335Y-151981000D01*
X108062665Y-151981000D01*
X107785426Y-152036147D01*
X107524273Y-152144320D01*
X107289241Y-152301363D01*
X107089363Y-152501241D01*
X106934000Y-152733759D01*
X106778637Y-152501241D01*
X106578759Y-152301363D01*
X106343727Y-152144320D01*
X106082574Y-152036147D01*
X105805335Y-151981000D01*
X105522665Y-151981000D01*
X105245426Y-152036147D01*
X104984273Y-152144320D01*
X104749241Y-152301363D01*
X104549363Y-152501241D01*
X104394000Y-152733759D01*
X104238637Y-152501241D01*
X104038759Y-152301363D01*
X103803727Y-152144320D01*
X103542574Y-152036147D01*
X103265335Y-151981000D01*
X102982665Y-151981000D01*
X102705426Y-152036147D01*
X102444273Y-152144320D01*
X102209241Y-152301363D01*
X102009363Y-152501241D01*
X101852320Y-152736273D01*
X101744147Y-152997426D01*
X101689000Y-153274665D01*
X101689000Y-153557335D01*
X101744147Y-153834574D01*
X101852320Y-154095727D01*
X102009363Y-154330759D01*
X102100614Y-154422010D01*
X97400072Y-154422009D01*
X97400072Y-153414000D01*
X99784678Y-153414000D01*
X99822000Y-153417676D01*
X99859322Y-153414000D01*
X99859333Y-153414000D01*
X99970986Y-153403003D01*
X100114247Y-153359546D01*
X100246276Y-153288974D01*
X100362001Y-153194001D01*
X100385803Y-153164998D01*
X101095004Y-152455798D01*
X101124001Y-152432001D01*
X101218974Y-152316276D01*
X101289546Y-152184247D01*
X101333003Y-152040986D01*
X101344000Y-151929333D01*
X101344000Y-151929325D01*
X101347676Y-151892000D01*
X101344000Y-151854675D01*
X101344000Y-146849322D01*
X101347676Y-146811999D01*
X101344000Y-146774676D01*
X101344000Y-146774667D01*
X101333003Y-146663014D01*
X101289546Y-146519753D01*
X101218974Y-146387724D01*
X101124001Y-146271999D01*
X101095002Y-146248200D01*
X100490813Y-145644012D01*
X100467011Y-145615009D01*
X100351286Y-145520036D01*
X100219257Y-145449464D01*
X100075996Y-145406007D01*
X99964343Y-145395010D01*
X99964332Y-145395010D01*
X99927010Y-145391334D01*
X99889688Y-145395010D01*
X97701812Y-145395010D01*
X97280000Y-144973199D01*
X97280000Y-144474043D01*
X97434759Y-144370637D01*
X97634637Y-144170759D01*
X97791680Y-143935727D01*
X97899853Y-143674574D01*
X97955000Y-143397335D01*
X97955000Y-143114665D01*
X97899853Y-142837426D01*
X97791680Y-142576273D01*
X97634637Y-142341241D01*
X97434759Y-142141363D01*
X97199727Y-141984320D01*
X96938574Y-141876147D01*
X96661335Y-141821000D01*
X96378665Y-141821000D01*
X96101426Y-141876147D01*
X95840273Y-141984320D01*
X95605241Y-142141363D01*
X95405363Y-142341241D01*
X95248320Y-142576273D01*
X95140147Y-142837426D01*
X95085000Y-143114665D01*
X95085000Y-143258000D01*
X91627404Y-143258000D01*
X91741898Y-143235226D01*
X91930256Y-143157205D01*
X92099774Y-143043937D01*
X92143711Y-143000000D01*
X92418678Y-143000000D01*
X92456000Y-143003676D01*
X92493322Y-143000000D01*
X92493333Y-143000000D01*
X92604986Y-142989003D01*
X92748247Y-142945546D01*
X92880276Y-142874974D01*
X92996001Y-142780001D01*
X93019804Y-142750997D01*
X94536812Y-141233990D01*
X120835208Y-141233990D01*
X119884998Y-142184201D01*
%TD*%
M02*
